<svg width="1200" height="630" viewBox="0 0 1200 630" fill="none" xmlns="http://www.w3.org/2000/svg">
<rect width="1200" height="630" fill="white"/>
<path d="M439.704 298.288C439.704 299.397 437.101 300.293 431.896 300.976C426.691 301.659 421.485 302 416.28 302C411.075 302 407.747 301.701 406.296 301.104C404.845 300.507 404.12 299.568 404.12 298.288V215.984C404.12 211.888 416.408 209.84 440.984 209.84C455.832 209.84 465.645 210.864 470.424 212.912C476.227 215.301 480.152 218.544 482.2 222.64C484.931 227.931 486.296 234.715 486.296 242.992C486.296 254.341 484.333 262.576 480.408 267.696C477.592 271.451 474.776 273.883 471.96 274.992C469.144 276.101 466.797 276.912 464.92 277.424C463.128 277.851 460.867 278.192 458.136 278.448C454.381 278.789 449.261 278.96 442.776 278.96L439.704 278.832V298.288ZM439.832 257.584H442.904C444.525 257.584 445.805 257.371 446.744 256.944C447.683 256.432 448.493 255.152 449.176 253.104C449.944 250.971 450.328 248.027 450.328 244.272C450.328 240.432 449.901 237.531 449.048 235.568C448.28 233.52 447.469 232.325 446.616 231.984C445.848 231.557 444.909 231.344 443.8 231.344H439.832V257.584ZM530.46 298.288C530.46 299.397 527.857 300.293 522.652 300.976C517.447 301.659 512.199 302 506.908 302C501.703 302 498.332 301.701 496.796 301.104C495.345 300.507 494.62 299.568 494.62 298.288V215.984C494.62 213.765 497.393 212.187 502.94 211.248C508.572 210.309 515.655 209.84 524.188 209.84C532.721 209.84 538.225 209.883 540.7 209.968C543.26 209.968 546.247 210.096 549.66 210.352C553.073 210.608 555.761 211.035 557.724 211.632C559.772 212.229 561.991 212.997 564.38 213.936C566.855 214.875 568.775 216.112 570.14 217.648C571.505 219.099 572.828 220.848 574.108 222.896C576.412 226.565 577.564 231.813 577.564 238.64C577.564 245.381 576.412 251.099 574.108 255.792C571.889 260.4 568.903 263.899 565.148 266.288C574.961 281.733 579.868 291.547 579.868 295.728C579.868 299.909 571.463 302 554.652 302C549.788 302 546.417 301.787 544.54 301.36C542.663 300.933 541.468 299.995 540.956 298.544L532.636 272.176L530.46 272.048V298.288ZM530.46 252.336H533.788C538.737 252.336 541.212 248.496 541.212 240.816C541.212 236.891 540.529 234.117 539.164 232.496C537.884 230.875 536.391 230.064 534.684 230.064H530.46V252.336ZM655.621 237.104C655.621 238.64 653.36 242.181 648.837 247.728C644.314 253.275 637.53 260.784 628.485 270.256H655.493C656.432 270.256 657.2 271.536 657.797 274.096C658.48 276.571 658.821 280.112 658.821 284.72C658.821 289.243 658.266 293.253 657.157 296.752C656.133 300.251 654.725 302 652.933 302H590.597C588.122 302 586.33 299.525 585.221 294.576C584.197 289.627 583.685 284.251 583.685 278.448C583.685 277.168 586.074 273.669 590.853 267.952C595.632 262.235 602.842 254.256 612.485 244.016H587.653C585.349 244.016 584.197 240.304 584.197 232.88C584.197 227.675 584.752 222.768 585.861 218.16C586.97 213.467 588.378 211.12 590.085 211.12H649.093C653.445 211.12 655.621 219.781 655.621 237.104ZM723.711 298.288C723.711 299.397 721.108 300.293 715.903 300.976C710.698 301.659 705.492 302 700.287 302C695.167 302 691.839 301.744 690.303 301.232C688.767 300.635 687.999 299.653 687.999 298.288V276.016C671.103 241.456 662.655 222.683 662.655 219.696C662.655 217.904 665.514 216.027 671.231 214.064C676.948 212.101 682.964 211.12 689.279 211.12C697.386 211.12 701.695 213.509 702.207 218.288L705.663 252.72H707.071L709.503 219.184C709.674 216.795 712.703 214.875 718.591 213.424C724.479 211.888 730.068 211.12 735.359 211.12C740.65 211.12 744.319 211.888 746.367 213.424C748.415 214.96 749.439 216.581 749.439 218.288C749.439 219.909 740.863 239.152 723.711 276.016V298.288ZM794.014 311.472C792.393 314.373 789.961 316.379 786.718 317.488C783.561 318.683 779.934 319.28 775.838 319.28C771.827 319.28 768.883 319.195 767.006 319.024C765.129 318.939 763.123 318.597 760.99 318C758.942 317.488 757.321 316.763 756.126 315.824C753.395 313.52 752.03 309.936 752.03 305.072C752.03 298.075 753.822 294.576 757.406 294.576C758.515 294.576 759.369 294.405 759.966 294.064C761.587 293.296 762.398 290.651 762.398 286.128V219.44C762.398 217.563 764.83 215.728 769.694 213.936C774.643 212.059 779.891 211.12 785.438 211.12C793.886 211.12 798.11 213.125 798.11 217.136V287.92C798.11 293.808 797.854 298.501 797.342 302C796.83 305.499 795.721 308.656 794.014 311.472ZM843.698 295.472C843.527 297.947 842.205 299.653 839.73 300.592C837.341 301.531 832.989 302 826.674 302C820.359 302 815.069 301.445 810.802 300.336C806.621 299.141 804.53 297.648 804.53 295.856C804.53 293.808 808.327 280.752 815.922 256.688C823.517 232.539 827.869 218.629 828.978 214.96C829.405 213.851 832.818 212.955 839.218 212.272C845.703 211.504 852.615 211.12 859.954 211.12C867.378 211.12 871.474 212.4 872.242 214.96C888.37 268.549 896.434 295.771 896.434 296.624C896.434 297.477 895.922 298.331 894.898 299.184C892.509 301.061 887.773 302 880.69 302C865.586 302 857.863 300.208 857.522 296.624L856.626 288.304H844.338L843.698 295.472ZM853.938 263.984L852.018 240.944H849.202L847.026 263.984H853.938ZM972.246 237.104C972.246 238.64 969.985 242.181 965.462 247.728C960.939 253.275 954.155 260.784 945.11 270.256H972.118C973.057 270.256 973.825 271.536 974.422 274.096C975.105 276.571 975.446 280.112 975.446 284.72C975.446 289.243 974.891 293.253 973.782 296.752C972.758 300.251 971.35 302 969.558 302H907.222C904.747 302 902.955 299.525 901.846 294.576C900.822 289.627 900.31 284.251 900.31 278.448C900.31 277.168 902.699 273.669 907.478 267.952C912.257 262.235 919.467 254.256 929.11 244.016H904.278C901.974 244.016 900.822 240.304 900.822 232.88C900.822 227.675 901.377 222.768 902.486 218.16C903.595 213.467 905.003 211.12 906.71 211.12H965.718C970.07 211.12 972.246 219.781 972.246 237.104ZM1018.83 298.288C1018.83 299.397 1016.19 300.293 1010.9 300.976C1005.69 301.659 1000.49 302 995.28 302C990.075 302 986.747 301.701 985.296 301.104C983.845 300.507 983.12 299.568 983.12 298.288V219.696C983.12 217.563 985.552 215.6 990.416 213.808C995.365 212.016 1000.95 211.12 1007.18 211.12C1009.4 211.12 1011.07 211.205 1012.18 211.376C1015.08 211.803 1017.13 213.637 1018.32 216.88L1030.61 249.904H1031.12V219.696C1031.12 217.563 1033.55 215.6 1038.42 213.808C1043.28 212.016 1048.83 211.12 1055.06 211.12C1060.43 211.12 1063.85 212.144 1065.3 214.192C1066.32 215.643 1066.83 216.965 1066.83 218.16V298.288C1066.83 299.397 1064.19 300.293 1058.9 300.976C1053.69 301.659 1047.93 302 1041.62 302C1035.39 302 1031.97 301.189 1031.38 299.568L1019.47 268.08H1018.83V298.288ZM1134.34 298.288C1134.34 299.397 1131.73 300.293 1126.53 300.976C1121.32 301.659 1116.12 302 1110.91 302C1105.79 302 1102.46 301.744 1100.93 301.232C1099.39 300.635 1098.62 299.653 1098.62 298.288V276.016C1081.73 241.456 1073.28 222.683 1073.28 219.696C1073.28 217.904 1076.14 216.027 1081.86 214.064C1087.57 212.101 1093.59 211.12 1099.9 211.12C1108.01 211.12 1112.32 213.509 1112.83 218.288L1116.29 252.72H1117.7L1120.13 219.184C1120.3 216.795 1123.33 214.875 1129.22 213.424C1135.1 211.888 1140.69 211.12 1145.98 211.12C1151.27 211.12 1154.94 211.888 1156.99 213.424C1159.04 214.96 1160.06 216.581 1160.06 218.288C1160.06 219.909 1151.49 239.152 1134.34 276.016V298.288Z" fill="#F49729"/>
<path d="M414.872 416C410.605 416 407.747 415.787 406.296 415.36C404.845 414.848 404.12 414.037 404.12 412.928V333.312C404.12 331.435 406.595 329.6 411.544 327.808C416.493 325.931 422.04 324.992 428.184 324.992C433.645 324.992 437.229 326.144 438.936 328.448C439.533 329.301 439.832 330.155 439.832 331.008V387.712C450.243 387.029 458.093 386.688 463.384 386.688C465.176 386.688 466.072 389.547 466.072 395.264C466.072 400.896 465.688 405.76 464.92 409.856C464.152 413.952 463.128 416 461.848 416H414.872ZM524.689 417.152C517.606 417.152 511.505 416.512 506.385 415.232C501.35 413.867 496.7 411.477 492.433 408.064C483.814 401.323 479.505 388.395 479.505 369.28C479.505 361.259 480.657 354.261 482.961 348.288C485.35 342.315 488.636 337.579 492.817 334.08C501.009 327.253 511.633 323.84 524.689 323.84C531.43 323.84 537.276 324.437 542.225 325.632C547.26 326.827 551.996 329.003 556.433 332.16C565.393 338.645 569.873 351.019 569.873 369.28C569.873 385.664 565.82 397.739 557.713 405.504C549.606 413.269 538.598 417.152 524.689 417.152ZM520.465 395.264C521.489 396.459 522.897 397.056 524.689 397.056C526.481 397.056 527.889 396.459 528.913 395.264C529.937 393.984 530.79 391.339 531.473 387.328C532.156 383.232 532.497 377.557 532.497 370.304C532.497 363.051 532.156 357.461 531.473 353.536C530.79 349.611 529.937 347.051 528.913 345.856C527.889 344.661 526.481 344.064 524.689 344.064C522.897 344.064 521.489 344.661 520.465 345.856C519.441 347.051 518.588 349.611 517.905 353.536C517.222 357.461 516.881 363.051 516.881 370.304C516.881 377.557 517.222 383.232 517.905 387.328C518.588 391.339 519.441 393.984 520.465 395.264ZM613.631 417.024C610.73 417.024 608.042 416.725 605.567 416.128C603.092 415.531 600.49 414.293 597.759 412.416C595.114 410.453 592.852 407.893 590.975 404.736C586.708 397.568 584.575 386.773 584.575 372.352C584.575 364.416 585.642 357.419 587.775 351.36C589.908 345.301 592.596 340.608 595.839 337.28C599.082 333.867 602.964 331.093 607.487 328.96C612.01 326.827 616.234 325.461 620.159 324.864C624.084 324.181 628.266 323.84 632.703 323.84C642.943 323.84 650.154 324.736 654.335 326.528C658.516 328.235 660.607 331.563 660.607 336.512C660.607 340.437 659.882 344.704 658.431 349.312C656.98 353.835 654.847 356.096 652.031 356.096C651.348 356.096 648.447 355.456 643.327 354.176C638.207 352.811 634.367 352.128 631.807 352.128C624.468 352.128 620.799 358.315 620.799 370.688C620.799 376.917 621.652 381.568 623.359 384.64C625.066 387.627 627.199 389.291 629.759 389.632V378.112C629.759 375.979 631.935 374.016 636.287 372.224C640.639 370.432 644.82 369.536 648.831 369.536C652.842 369.536 655.743 369.792 657.535 370.304C659.412 370.816 660.692 371.541 661.375 372.48C662.57 374.016 663.167 375.381 663.167 376.576V412.032C663.167 413.141 660.906 414.037 656.383 414.72C651.946 415.403 647.295 415.744 642.431 415.744C637.652 415.744 634.623 415.531 633.343 415.104C632.063 414.592 631.338 413.269 631.167 411.136L630.271 403.584H629.247C628.65 407.253 627.114 410.411 624.639 413.056C622.25 415.701 618.58 417.024 613.631 417.024ZM723.049 417.152C715.966 417.152 709.865 416.512 704.745 415.232C699.71 413.867 695.06 411.477 690.793 408.064C682.174 401.323 677.865 388.395 677.865 369.28C677.865 361.259 679.017 354.261 681.321 348.288C683.71 342.315 686.996 337.579 691.177 334.08C699.369 327.253 709.993 323.84 723.049 323.84C729.79 323.84 735.636 324.437 740.585 325.632C745.62 326.827 750.356 329.003 754.793 332.16C763.753 338.645 768.233 351.019 768.233 369.28C768.233 385.664 764.18 397.739 756.073 405.504C747.966 413.269 736.958 417.152 723.049 417.152ZM718.825 395.264C719.849 396.459 721.257 397.056 723.049 397.056C724.841 397.056 726.249 396.459 727.273 395.264C728.297 393.984 729.15 391.339 729.833 387.328C730.516 383.232 730.857 377.557 730.857 370.304C730.857 363.051 730.516 357.461 729.833 353.536C729.15 349.611 728.297 347.051 727.273 345.856C726.249 344.661 724.841 344.064 723.049 344.064C721.257 344.064 719.849 344.661 718.825 345.856C717.801 347.051 716.948 349.611 716.265 353.536C715.582 357.461 715.241 363.051 715.241 370.304C715.241 377.557 715.582 383.232 716.265 387.328C716.948 391.339 717.801 393.984 718.825 395.264ZM819.799 412.288C819.799 413.397 817.196 414.293 811.991 414.976C806.786 415.659 801.58 416 796.375 416C791.17 416 787.842 415.701 786.391 415.104C784.94 414.507 784.215 413.568 784.215 412.288V329.984C784.215 325.888 796.503 323.84 821.079 323.84C835.927 323.84 845.74 324.864 850.519 326.912C856.322 329.301 860.247 332.544 862.295 336.64C865.026 341.931 866.391 348.715 866.391 356.992C866.391 368.341 864.428 376.576 860.503 381.696C857.687 385.451 854.871 387.883 852.055 388.992C849.239 390.101 846.892 390.912 845.015 391.424C843.223 391.851 840.962 392.192 838.231 392.448C834.476 392.789 829.356 392.96 822.871 392.96L819.799 392.832V412.288ZM819.927 371.584H822.999C824.62 371.584 825.9 371.371 826.839 370.944C827.778 370.432 828.588 369.152 829.271 367.104C830.039 364.971 830.423 362.027 830.423 358.272C830.423 354.432 829.996 351.531 829.143 349.568C828.375 347.52 827.564 346.325 826.711 345.984C825.943 345.557 825.004 345.344 823.895 345.344H819.927V371.584ZM947.291 416H893.019C888.838 416 886.022 415.701 884.571 415.104C883.12 414.507 882.395 413.568 882.395 412.288V331.264C882.395 329.045 883.376 327.467 885.339 326.528C887.387 325.589 891.014 325.12 896.219 325.12H947.675C949.467 325.12 950.363 328.107 950.363 334.08C950.363 339.968 949.979 344.491 949.211 347.648C948.443 350.72 947.419 352.256 946.139 352.256C940.592 352.256 931.248 351.701 918.107 350.592V359.168C930.736 358.656 938.971 358.4 942.811 358.4C945.115 358.4 946.267 361.088 946.267 366.464C946.267 371.84 945.798 375.936 944.859 378.752C944.006 381.483 942.811 382.848 941.275 382.848L918.107 382.336V390.528C932.955 389.419 943.195 388.864 948.827 388.864C950.619 388.864 951.515 391.851 951.515 397.824C951.515 403.797 951.131 408.32 950.363 411.392C949.595 414.464 948.571 416 947.291 416ZM1009.03 416H978.824C974.643 416 971.827 415.701 970.376 415.104C968.925 414.507 968.2 413.525 968.2 412.16V331.392C968.2 329.173 969.139 327.595 971.016 326.656C972.893 325.632 976.136 325.12 980.744 325.12H1009.54C1025.93 325.12 1037.23 328.363 1043.46 334.848C1049.69 341.248 1052.81 352.939 1052.81 369.92C1052.81 386.901 1049.57 398.848 1043.08 405.76C1036.59 412.587 1025.25 416 1009.03 416ZM1008.01 344.192C1005.96 344.192 1004.59 344.363 1003.91 344.704V396.416L1008.78 396.928C1011.34 396.928 1013.26 394.88 1014.54 390.784C1015.9 386.688 1016.58 379.605 1016.58 369.536C1016.58 359.467 1015.9 352.725 1014.54 349.312C1013.17 345.899 1010.99 344.192 1008.01 344.192ZM1104.83 409.472C1104.66 411.947 1103.34 413.653 1100.87 414.592C1098.48 415.531 1094.12 416 1087.81 416C1081.49 416 1076.2 415.445 1071.94 414.336C1067.76 413.141 1065.67 411.648 1065.67 409.856C1065.67 407.808 1069.46 394.752 1077.06 370.688C1084.65 346.539 1089 332.629 1090.11 328.96C1090.54 327.851 1093.95 326.955 1100.35 326.272C1106.84 325.504 1113.75 325.12 1121.09 325.12C1128.51 325.12 1132.61 326.4 1133.38 328.96C1149.51 382.549 1157.57 409.771 1157.57 410.624C1157.57 411.477 1157.06 412.331 1156.03 413.184C1153.64 415.061 1148.91 416 1141.83 416C1126.72 416 1119 414.208 1118.66 410.624L1117.76 402.304H1105.47L1104.83 409.472ZM1115.07 377.984L1113.15 354.944H1110.34L1108.16 377.984H1115.07Z" fill="#3C302E"/>
<path fill-rule="evenodd" clip-rule="evenodd" d="M246.147 425.13C247.808 425.235 249.093 425.716 251.2 425.689C250.064 428.819 246.322 428.382 243.332 428.102C243.682 463.769 202.813 473.018 178.694 448.646C177.82 447.763 177.4 447.518 176.578 446.478C175.529 445.14 175.993 445.027 174.052 444.677C169.567 443.873 168.448 444.021 163.763 442.631L161 441.32C160.957 441.171 160.825 441.18 160.747 441.101C180.067 441.32 201.633 439.773 219.528 431.975C222.981 430.471 232.483 425.864 234.057 423.617C233.629 421.528 233.393 419.054 234.171 417.044C234.739 416.982 236.015 418.486 236.741 419.168C241.225 423.355 242.126 422.708 246.147 425.13ZM152.94 421.887L153.054 423.425L154.068 425.882C154.435 427.901 154.505 432.255 153.368 433.339C151.874 434.772 150.781 433.347 147.695 435.638C145.09 437.578 139.469 437.246 136.706 436.512C134.486 435.917 131.312 434.309 129.311 433.225L125.114 429.247C122.623 426.065 124.03 428.294 121.862 424.229C119.965 420.671 118.602 414.246 119.214 410.199C119.843 406.09 122.544 407.008 124.555 404.744L121.731 404.586C123.777 403.406 125.805 403.013 128.366 402.672C124.896 388.711 123.821 376.996 130.569 364.915C135.194 356.645 145.579 346.907 157.32 355.36C165.083 360.955 169.095 374.426 168.02 388.947C167.504 395.879 166.158 401.544 163.378 406.658C159.217 414.325 153.937 414.561 151.646 416.231C152.905 418.923 153.893 419.299 154.356 423.416L153.605 422.769C153.543 422.7 153.456 422.603 153.403 422.542C153.01 422.105 153.316 422.394 152.94 421.887ZM273.352 385.03C274.025 385.196 274.585 385.345 275.59 385.38C277.688 385.52 280.984 386.779 281.884 386.753C284.909 388.352 287.252 389.768 288.17 392.837C289.709 397.986 289.542 402.619 288.24 408.162C287.506 411.265 287.645 411.763 286.019 414.176C284.437 416.536 285.442 416.091 284.096 418.241L280.162 423.268L268.343 430.2C262.058 431.949 261.201 432.307 257.617 429.676C256.069 428.539 255.44 428.303 254.819 426.319C253.718 424.448 252.616 422.883 251.899 420.173L250.842 413.722L250.754 415.417C249.408 412.568 249.959 408.634 250.553 405.434C224.415 404.717 217.028 363.988 230.892 349.337C232.798 347.317 234.083 345.691 236.951 344.153C245.736 339.45 253.674 344.039 259.479 350.43C266.577 358.245 270.555 369.758 269.375 385.188L273.352 385.03ZM194.744 395.739C194.159 396.544 194.36 395.94 194.097 397.322L199.526 397.348C197.734 398.257 194.368 397.697 192.856 399.612C195.697 399.42 201.974 396.841 204.553 399.804C203.88 403.249 192.533 408.555 188.843 406.597C188.45 404.516 189.097 403.974 189.613 402.27C189.097 402.698 189.359 402.401 188.931 402.925C188.118 403.896 189.403 402.095 188.572 403.406C187.794 404.63 187.637 406.011 187.585 407.419L189.412 409.674C190.181 410.522 190.688 410.889 191.588 411.352C193.398 412.288 195.671 412.734 197.944 412.603C202 412.367 207.551 408.441 209.798 409.989C211.398 411.422 209.807 413.608 208.679 414.989L207.385 416.082C204.361 416.432 202.271 418.713 197.21 418.53C193.442 418.399 190.155 416.659 188.319 414.57C182.934 408.468 186.466 399.708 193.153 397.829C193.582 390.608 192.279 390.424 190.435 385.529C193.389 386.499 193.94 389.401 194.141 388.982C194.167 388.912 194.281 389.148 194.36 389.218C190.671 370.606 178.694 368.456 181.806 361.838C183.249 358.769 187.637 358.813 190.706 360.605C196.947 364.259 204.492 377.442 200.304 388.903C199.211 391.893 196.606 395.416 194.928 396.683L194.744 395.739ZM261.953 337.789C256.874 338.785 258.036 331.818 250.466 329.239C243.061 326.721 234.87 332.272 229.791 337.037C226.058 340.534 220.664 347.658 218.715 344.336C216.809 341.102 227.754 320.06 241.96 318.504C255.921 316.965 263.701 332.237 261.953 337.789ZM162.006 351.365C158.666 350.43 156.839 347.212 154.846 346.723C147.992 342.772 137.659 344.441 132.807 348.935C130.377 351.181 128.48 354.285 126.906 357.589C125.683 360.159 123.279 364.924 122.535 367.538C114.659 362.546 122.929 340.708 121.618 338.322C121.014 337.649 119.275 338.514 118.505 338.811C113.479 340.787 114.598 340.595 109.825 340.822C106.905 340.962 108.373 342.99 107.071 352.904C105.891 361.855 104.134 370.37 101.747 378.928C101.52 379.759 101.292 380.659 101.056 381.437L100.069 383.483C101.048 397.086 102.647 408.957 106.695 420.934C114.615 444.353 126.05 456.636 147.179 465.133C178.467 477.713 220.437 474.898 250.676 462.817C260.554 458.874 269.882 453.506 277.417 447.728C283.196 443.304 295.181 432.08 297.786 426.118C298.958 421.327 300.723 416.851 301.869 411.65C305.54 395.022 306.196 379.217 302.07 362.703C299.762 353.481 295.985 344.441 292.078 336.871C289.953 332.753 288.1 328.916 285.818 325.34C284.385 323.093 280.049 316.161 277.111 316.624L279.367 326.337C270.144 324.37 250.842 301.361 244.626 292.61C242.974 290.276 241.802 288.178 240.281 285.52C239.311 283.842 237.353 279.069 236.426 278.02C235.159 278.658 234.293 280.896 233.41 282.356C226.906 293.117 220.393 303.529 211.275 311.58C206.878 315.462 182.488 335.288 173.519 329.204C174.41 327.088 176.622 324.85 178.056 323.181C179 322.079 179.603 321.249 180.539 320.174C181.666 318.853 182.427 318.897 182.331 316.956C179.691 317.402 172.443 327.018 161.201 329.125C161.63 333.077 173.353 344.546 172.819 360.92C171.613 360.133 171.394 359.294 170.389 358.105C169.62 357.178 168.833 356.295 167.959 355.465C162.504 350.29 164.13 352.72 162.006 351.365Z" fill="#FAD5BD"/>
<path fill-rule="evenodd" clip-rule="evenodd" d="M297.209 198.581C292.698 194.315 291.579 192.995 285.6 190.128L275.319 185.512C272.329 184.008 273.081 184.489 272.758 183.449C275.345 181.639 286.247 183.108 289.787 183.807C312.744 188.336 333.2 205.286 346.26 225.463C350.623 232.203 358.621 245.648 356.113 254.582C354.408 254.198 354.819 253.892 353.708 252.493L341.286 237.544C338.226 234.196 329.659 225.585 324.589 223.426C329.1 230.655 333.541 238.462 337.326 247.694C339.599 253.21 346.724 271.384 342.746 277.416C341.557 276.988 341.758 276.944 341.076 275.537L337.859 268.403C336.802 265.894 335.403 260.754 334.17 258.726C334.301 262.38 335.438 267.04 335.683 271.315C336.172 279.506 335.744 304.324 331.18 309.578C330.096 309.211 330.315 309.333 329.537 308.031C326.031 302.182 325.009 290.223 322.019 281.464C321.451 279.803 318.889 273.806 318.793 273.168C319.151 277.425 320.087 281.953 320.463 286.517C320.856 291.299 320.987 296.054 321.11 300.862C321.232 305.802 321.617 310.671 321.459 315.663C321.284 321.52 320.795 323.417 318.793 327.665C317.15 326.966 316.433 325.2 315.086 322.831C308.023 310.479 301.834 297.138 295.653 284.043C291.168 274.54 283.047 259.906 279.839 249.835C278.973 247.117 276.893 238.698 275.809 237.151C275.852 242.999 272.154 247.694 276.674 268.57C277.959 274.488 283.808 293.642 284.026 296.57C282.199 296.116 282.645 295.845 281.421 294.079C271.735 280.161 263.264 264.33 259.846 246.575C258.141 237.702 257.879 220.489 262.32 213.845C265.248 209.456 269.759 209.133 274.934 211.362C281.019 213.993 283.056 218.216 284.883 219.335C282.986 212.892 277.811 205.409 273.396 201.186C272.329 200.163 268.693 198.162 268.395 197.174C273.02 194.918 289.07 202.043 294.639 205.942C303.661 212.262 306.082 218.609 311.537 224.886C310.322 215.506 301.327 202.463 297.209 198.581ZM79.4111 217.656C80.2153 212.769 89.7179 202.847 93.5993 199.551C102.822 191.719 114.239 184.323 125.543 179.13C143.979 170.659 169.366 163.447 191.641 163.447C203.941 163.447 219.108 164.916 230.455 168.334C238.227 170.677 255.422 177.828 251.174 190.346C249.565 190.04 248.778 188.467 247.546 187.173C245.255 184.769 239.11 179.191 236.12 178.195C240.045 181.316 244.897 184.367 245.098 191.859C243.332 191.395 242.528 189.76 241.426 188.607C232.44 179.235 219.161 176.822 206.817 176.822C198.442 176.822 175.958 181.316 171.613 186.421C175.197 185.897 178.746 184.507 182.855 184.043C206.852 181.351 233.943 195.556 233.943 227.814C233.943 233.129 233.532 247.204 229.074 247.807C228.506 244.477 229.869 233.54 228.034 227.919C225.892 246.461 218.89 261.602 210.812 272.879C206.677 278.649 201.449 284.27 196.291 288.798C194.089 290.73 182.409 301.448 178.309 299.647C178.58 296.29 196.02 275.178 199.316 264.067C191.204 275.38 181.133 285.835 170.223 294.376C163.002 300.032 140.526 315.357 131.592 314.482C131.776 312.271 134.722 308.45 135.867 306.763C140.684 299.604 145.063 294.07 149.845 286.552C153.255 281.193 163.71 261.873 165.738 256.103C163.465 257.616 159.916 262.389 157.573 264.741C151.209 271.148 139.189 283.693 132.667 289.262C129.17 292.252 123.086 298.764 120.009 301.492C118.61 302.733 117.072 304.106 115.76 305.408C113.304 307.83 100.479 319.693 97.5682 320.243C96.3443 313.302 102.149 298.214 104.562 292.173C112.569 272.145 118.942 263.508 130.255 248.41L138.245 239.214C139.678 237.597 141.165 236.591 142.598 235C144.067 233.366 145.754 232.351 146.917 230.629C138.656 234.187 119.948 251.645 113.251 259.102C101.074 272.643 86.8942 293.423 83.4499 313.486C81.9288 322.368 84.4814 322.315 80.6874 332.115C77.9599 331.687 74.9265 328.129 73.4928 325.987C67.4258 316.965 65.5463 304.342 65.5463 292.671C65.5463 275.423 69.3403 262.24 76.4388 250.307C80.7661 243.052 82.6806 241.26 87.3051 235.673C88.494 234.248 89.0885 233.706 90.2949 232.413C91.4575 231.163 91.9646 230.315 93.2584 229.126C94.3686 228.103 95.2428 227.028 96.388 226.04C97.2448 225.297 98.9931 223.636 99.5089 222.919C87.5499 227.849 70.3369 245.237 61.6561 257.31C60.1525 259.399 58.4653 262.45 56.9616 262.625C56.9092 255.57 63.4744 245.115 66.1233 240.91C70.0484 234.677 75.18 228.61 79.6908 223.933C91.2128 211.956 99.3428 207.017 114.195 198.398C106.782 199.141 94.019 207.647 87.6548 212.254C85.8802 213.53 81.2294 217.49 79.4111 217.656ZM49.3998 326.922C50.0642 325.952 49.6796 327.123 49.8807 325.515C50.0555 324.081 49.3911 320.715 50.5887 313.573C52.1973 303.966 55.3619 295.591 60.2312 287.741C60.8868 286.7 62.7051 284.541 63.0199 283.868C62.8013 287.916 59.829 296.124 61.1403 300.758L61.0179 302.191C59.7416 313.442 66.2194 327.578 70.9576 333.321C74.0697 337.089 76.9983 340.219 80.7836 343.768L90.1637 353.035C90.2074 353.052 90.3211 353.078 90.3736 353.087C92.4629 353.472 89.3857 351.111 88.1618 347.099C87.3401 344.389 86.8155 341.067 87.139 338.016C87.5236 335.734 86.5358 329.999 87.5324 322.079C88.1269 317.402 89.2458 312.463 90.6096 308.302C93.0923 300.792 97.7955 289.874 102.053 286.569C98.9582 292.846 96.9038 294.647 93.6867 303.083C91.7723 308.101 88.6339 317.822 88.7388 323.828L88.6514 325.725C89.9976 323.539 90.2162 320.095 91.6761 317.708C91.5275 326.013 89.036 327.298 92.3492 335.42C96.2482 334.895 110.209 320.925 115.367 316.878C116.923 315.663 118.54 314.439 120.114 313.11L129.494 305.557C130.333 305.032 132.274 301.675 133.122 300.539L129.983 307.935C128.899 312.402 123.069 323.05 123.034 323.609C130.517 326.704 161.638 309.683 170.476 303.24C172.426 301.815 174.166 300.189 176.281 299.403C175.678 301.282 175.127 302.891 174.375 304.735C173.737 306.291 172.312 308.73 172.644 310.085C177.461 311.431 190.461 301.605 193.8 299.193C200.033 294.682 201.904 292.479 206.992 287.933C215.646 280.196 228.82 260.675 234.957 248.76C235.744 247.23 237.038 244.118 237.903 243.087C239.521 247.764 238.69 254.731 246.156 271.612C247.31 274.234 256.935 292.916 260.23 293.904C260.589 292.225 257.94 285.503 257.302 283.081C254.111 270.86 252.756 255.107 253.7 242.352C254.732 255.701 261.043 273.229 267.224 284.366C270.424 290.127 275.031 296.15 278.93 300.128C282.217 303.494 285.591 306.868 289.481 309.779C290.609 310.627 292.156 312.21 293.808 312.367C293.992 308.739 290.871 300.32 289.831 296.675C288.546 292.147 286.797 285.319 286.343 280.31C290.696 283.16 300.54 302.506 303.346 308.748C310.479 324.658 310.855 326.651 314.754 343.34C318.767 342.859 321.468 335.664 323.024 331.232C324.685 326.52 326.748 316.607 327.5 315.112C327.614 318.696 326.058 326.905 326.512 329.029C330.595 328.994 335.14 318.923 336.487 314.946C337.536 311.816 338.358 308.529 338.935 304.962C339.442 301.842 339.31 296.185 340.342 293.773C340.561 299.63 339.564 305.085 339.984 310.444C346.767 310.461 350.623 297.558 352.144 289.62C354.382 277.985 354.338 270.475 353.114 258.551C354.897 259.775 358.901 266.48 361.165 266.9C364.216 260.361 360.256 243.113 358.079 237.011C355.798 230.638 353.35 225.166 350.404 219.221C349.346 217.07 348.219 215.471 347.327 213.381C343.297 205.881 325.157 190.705 317.744 185.66C304.281 176.49 294.114 172.967 275.616 171.114C277.321 167.547 279.069 165.816 281.36 163.141C282.321 162.022 281.814 163.019 282.409 161.603C276.088 162.075 270.257 165.169 265.886 169.365C264.287 170.904 263.308 172.539 261.935 173.937C260.519 172.818 254.714 158.473 246.138 158.062C247.773 163.045 252.083 167.862 252.625 173.955C248.306 171.979 244.049 166.227 228.541 161.865C181.99 148.769 127.387 166.262 91.2915 197.401C87.9258 200.312 84.8748 203.311 81.8763 206.257C75.3111 212.708 60.7907 232.028 58.3167 239.371L63.2559 233.628C64.6983 231.827 66.6041 229.187 68.4836 228.147C67.5832 229.755 67.0761 230.332 65.9921 231.731C59.7154 239.835 52.818 247.528 48.7442 257.764C46.2527 264.032 44.0935 268.963 42.6423 276.49C41.7244 281.219 38.6822 295.661 42.0653 298.336C43.9885 297.698 44.6879 293.108 45.5184 291.133C48.0536 285.083 53.2288 273.614 57.6435 270.528C58.474 272.53 54.7674 280.214 53.8495 282.714C52.241 287.094 50.8947 291.08 49.7583 295.836C48.6393 300.495 47.9312 306.046 47.5902 311.134C47.057 319.238 48.0885 320.453 49.3998 326.922Z" fill="#B56A32"/>
<path fill-rule="evenodd" clip-rule="evenodd" d="M195.269 283.659L203.434 269.636C206.057 264.732 208.382 259.671 210.55 254.137C216.442 239.109 216.905 232.597 219.038 217.115C221.565 221.608 221.206 233.06 220.385 238.742C218.636 250.789 212.936 262.958 206.424 271.717C203.932 275.074 198.652 282.155 195.269 283.659ZM166.621 203.031C169.769 202.699 191.125 193.931 195.933 197.585C195.82 200.321 194.089 202.953 193.075 204.815C193.276 204.718 205.182 194.788 202.796 208.547C201.747 214.579 198.967 219.781 197.594 225.437C200.636 223.024 203.137 219.047 205.882 216.118C208.006 213.871 210.821 208.547 215.367 208.163C219.012 218.312 203.416 243.673 197.192 252.861C194.281 257.17 188.503 264.391 184.857 267.914C184.027 268.719 183.563 269.173 182.768 270.109L171.036 281.316C167.627 284.507 164.821 286.858 160.721 289.184C147.066 296.938 157.713 281.237 160.887 276.228C167.382 265.982 175.215 251.715 181.929 241.671C183.187 239.774 185.653 236.627 186.352 234.756C182.593 236.548 175.967 245.412 171.036 244.486C170.695 240.954 179.813 232.107 181.579 229.834C178.309 231.076 165.092 240.893 161.411 243.55C154.68 248.411 148.185 253.761 142.441 259.05C137.283 263.788 125.42 275.345 121.25 281.123L111.888 293.301C110.979 294.394 110.769 295.049 109.012 295.189C107.517 290.407 110.83 285.792 112.683 282.286C117.037 274.051 120.813 267.206 126.12 259.828L146.856 236.041C151.235 231.565 160.887 223.89 166.167 219.676C167.871 218.321 169.838 217.263 171.342 215.969C158.325 216.415 124.485 239.302 114.537 248.219C112.404 250.133 110.673 251.68 108.618 253.56C107.543 254.539 106.914 255.326 105.856 256.244L97.6383 265.196C90.8633 273.221 83.7211 282.435 79.7872 293.004C78.8431 295.539 77.558 300.198 74.9354 299.42C72.9772 298.24 73.764 289.175 74 287.391C75.3026 277.469 80.1894 264.304 83.9921 255.807C87.0606 248.944 90.6623 244.687 94.5612 239.206C97.4723 235.123 103.924 228.855 107.622 225.367C116.101 217.368 127.274 209.964 139.591 204.168C145.579 201.353 151.62 198.477 158.107 196.379C163.474 194.639 173.685 190.355 179.079 192.147C178.921 196.16 169.602 201.318 166.621 203.031ZM79.4113 217.657C81.2296 217.49 85.8804 213.53 87.655 212.254C94.0192 207.647 106.782 199.141 114.196 198.398C99.343 207.018 91.213 211.957 79.6911 223.933C75.1802 228.61 70.0486 234.677 66.1235 240.91C63.4746 245.115 56.9094 255.571 56.9619 262.625C58.4655 262.451 60.1527 259.4 61.6563 257.31C70.3371 245.238 87.5501 227.85 99.5091 222.919C98.9934 223.636 97.245 225.297 96.3883 226.04C95.2431 227.028 94.3688 228.103 93.2586 229.126C91.9648 230.315 91.4578 231.163 90.2951 232.413C89.0887 233.707 88.4942 234.249 87.3053 235.674C82.6808 241.26 80.7663 243.052 76.439 250.308C69.3405 262.241 65.5465 275.424 65.5465 292.672C65.5465 304.342 67.426 316.966 73.493 325.987C74.9267 328.129 77.9601 331.687 80.6876 332.115C84.4817 322.316 81.929 322.368 83.4501 313.486C86.8945 293.423 101.074 272.644 113.252 259.102C119.948 251.645 138.656 234.188 146.917 230.63C145.754 232.352 144.067 233.366 142.598 235.001C141.165 236.592 139.679 237.597 138.245 239.214L130.255 248.411C118.943 263.508 112.57 272.145 104.562 292.173C102.149 298.214 96.3445 313.303 97.5684 320.244C100.479 319.693 113.304 307.83 115.761 305.409C117.072 304.106 118.61 302.734 120.009 301.492C123.086 298.765 129.171 292.252 132.667 289.262C139.189 283.694 151.209 271.149 157.573 264.741C159.916 262.389 163.466 257.616 165.738 256.104C163.71 261.874 153.255 281.193 149.846 286.552C145.064 294.07 140.684 299.604 135.867 306.764C134.722 308.451 131.776 312.271 131.592 314.483C140.527 315.357 163.002 300.032 170.223 294.376C181.133 285.835 191.204 275.38 199.316 264.068C196.021 275.179 178.58 296.291 178.309 299.648C182.409 301.449 194.089 290.731 196.292 288.799C201.449 284.271 206.677 278.649 210.812 272.88C218.89 261.603 225.892 246.461 228.034 227.92C229.87 233.541 228.506 244.477 229.074 247.808C233.533 247.205 233.943 233.13 233.943 227.815C233.943 195.557 206.852 181.351 182.855 184.044C178.747 184.507 175.197 185.897 171.613 186.421C175.958 181.316 198.442 176.823 206.817 176.823C219.161 176.823 232.44 179.236 241.427 188.607C242.528 189.761 243.332 191.396 245.098 191.859C244.897 184.367 240.045 181.316 236.12 178.195C239.11 179.192 245.256 184.769 247.546 187.173C248.779 188.467 249.565 190.041 251.174 190.347C255.423 177.828 238.227 170.677 230.455 168.334C219.108 164.916 203.941 163.448 191.641 163.448C169.366 163.448 143.98 170.66 125.543 179.131C114.239 184.323 102.822 191.719 93.5996 199.552C89.7181 202.848 80.2156 212.77 79.4113 217.657Z" fill="#C17C3E"/>
<path fill-rule="evenodd" clip-rule="evenodd" d="M166.622 203.03C169.603 201.317 178.922 196.159 179.079 192.147C173.685 190.355 163.474 194.638 158.107 196.378C151.62 198.476 145.58 201.352 139.591 204.167C127.274 209.963 116.102 217.367 107.622 225.366C103.924 228.854 97.4725 235.122 94.5614 239.205C90.6625 244.686 87.0608 248.943 83.9923 255.806C80.1896 264.303 75.3028 277.469 74.0002 287.391C73.7642 289.174 72.9774 298.24 74.9356 299.42C77.5582 300.198 78.8433 295.538 79.7874 293.003C83.7213 282.434 90.8635 273.22 97.6385 265.195L105.856 256.243C106.914 255.325 107.543 254.538 108.618 253.559C110.673 251.68 112.404 250.132 114.537 248.218C124.485 239.301 158.325 216.414 171.342 215.969C169.839 217.262 167.872 218.32 166.167 219.675C160.887 223.889 151.236 231.564 146.856 236.04L126.12 259.827C120.814 267.205 117.037 274.05 112.684 282.285C110.83 285.791 107.517 290.407 109.012 295.189C110.769 295.049 110.979 294.393 111.888 293.3L121.251 281.123C125.421 275.344 137.283 263.787 142.441 259.049C148.185 253.76 154.68 248.41 161.411 243.55C165.092 240.892 178.31 231.075 181.579 229.833C179.813 232.106 170.695 240.953 171.036 244.485C175.967 245.412 182.593 236.547 186.352 234.755C185.653 236.626 183.188 239.773 181.929 241.67C175.215 251.715 167.382 265.982 160.887 276.227C157.714 281.236 147.066 296.937 160.721 289.183C164.821 286.857 167.627 284.506 171.036 281.315L182.768 270.108C183.564 269.172 184.027 268.718 184.857 267.914C188.503 264.391 194.281 257.17 197.192 252.86C203.417 243.672 219.012 218.311 215.367 208.162C210.821 208.547 208.006 213.871 205.882 216.117C203.137 219.046 200.637 223.023 197.594 225.436C198.967 219.78 201.747 214.579 202.796 208.547C205.182 194.787 193.276 204.718 193.075 204.814C194.089 202.952 195.82 200.32 195.933 197.584C191.125 193.93 169.769 202.698 166.622 203.03Z" fill="#D99D57"/>
<path fill-rule="evenodd" clip-rule="evenodd" d="M275.599 275.336C274.069 275.31 274.078 274.506 273.335 273.081C267.303 261.454 264.033 247.965 262.949 234.494C261.769 219.86 267.058 211.992 269.104 219.073C271.595 227.657 269.978 243.087 273.143 260.143C273.685 263.071 276.054 272.915 275.599 275.336ZM328.96 284.061C325.516 282.365 321.477 254.154 317.307 252.607C317.15 255.081 317.543 257.363 317.972 259.662C318.54 262.739 319.606 265.475 318.514 266.428C315.087 268.456 309.334 256.952 307.088 254.845C308.128 262.809 311.94 272.137 313.714 280.45C313.968 281.622 317.814 304.998 317.561 307.043C317.325 308.984 317.552 307.935 316.957 308.573C314.693 310.392 311.345 302.716 310.244 300.706C302.192 285.993 289.709 261.445 283.659 246.024L275.748 225.629C275.617 224.982 275.503 224.397 275.582 223.715C276.071 219.414 279.008 223.776 279.323 224.161C280.53 225.629 281.002 225.743 282.147 227.605C283.65 230.053 284.883 233.891 286.754 235.718C286.675 232.876 286.544 232.291 287.873 230.77C294.001 229.406 297.55 236.985 302.559 237.921C303.477 236.268 304.561 222.098 313.889 235.088C314.851 236.417 316.512 239.127 317.456 239.818L315.725 219.903C315.428 218.758 313.452 215.017 315.856 215.663C317.001 215.969 320.174 222.316 321.049 224.283C326.504 236.461 335.866 279.664 328.96 284.061ZM272.758 183.449C273.081 184.49 272.33 184.009 275.319 185.512L285.6 190.128C291.579 192.995 292.698 194.316 297.209 198.582C301.327 202.463 310.322 215.506 311.537 224.886C306.082 218.61 303.661 212.263 294.639 205.942C289.07 202.043 273.02 194.919 268.396 197.174C268.693 198.162 272.33 200.164 273.396 201.187C277.811 205.409 282.986 212.892 284.883 219.335C283.056 218.216 281.019 213.994 274.935 211.362C269.759 209.133 265.249 209.457 262.32 213.845C257.879 220.489 258.141 237.702 259.846 246.575C263.264 264.33 271.735 280.162 281.421 294.079C282.645 295.845 282.199 296.116 284.026 296.571C283.808 293.642 277.959 274.488 276.674 268.57C272.155 247.694 275.853 243 275.809 237.151C276.893 238.699 278.974 247.117 279.839 249.836C283.047 259.907 291.169 274.541 295.653 284.043C301.834 297.139 308.023 310.479 315.087 322.832C316.433 325.201 317.15 326.966 318.793 327.666C320.795 323.417 321.285 321.52 321.46 315.663C321.617 310.671 321.232 305.802 321.11 300.863C320.987 296.055 320.856 291.299 320.463 286.517C320.087 281.954 319.152 277.426 318.793 273.168C318.889 273.806 321.451 279.803 322.019 281.464C325.009 290.224 326.032 302.183 329.537 308.031C330.315 309.334 330.097 309.211 331.181 309.579C335.744 304.325 336.172 279.506 335.683 271.315C335.438 267.04 334.302 262.381 334.17 258.726C335.403 260.755 336.802 265.895 337.86 268.404L341.077 275.537C341.758 276.945 341.557 276.989 342.746 277.417C346.724 271.385 339.599 253.21 337.326 247.694C333.541 238.463 329.1 230.656 324.589 223.426C329.66 225.586 338.227 234.196 341.286 237.545L353.709 252.493C354.819 253.892 354.408 254.198 356.113 254.583C358.622 245.648 350.623 232.203 346.261 225.463C333.2 205.287 312.744 188.336 289.787 183.808C286.247 183.108 275.346 181.64 272.758 183.449Z" fill="#C17C3E"/>
<path fill-rule="evenodd" clip-rule="evenodd" d="M129.984 307.934C129.136 308.739 129.477 308.503 128.751 309.534L111.827 333.583C117.754 334.65 138.84 324.824 144.871 321.633C152.722 317.489 164.445 311.3 171.001 304.709L172.872 303.179C169.017 310.583 154.164 322.201 153.439 324.378C161.691 325.112 183.223 309.875 191.283 303.362C192.909 302.042 194.229 300.679 196.108 299.507C195.671 307.768 186.615 317.148 185.504 320.059C191.991 319.719 209.125 298.519 213.828 292.653C217.168 288.492 222.282 280.747 225.289 275.816C228.777 270.09 231.942 263.027 235.351 257.476C237.703 262.048 236.68 271.638 250.859 290.625L258.876 298.965C260.886 300.679 262.644 302.436 264.532 304.202C266.341 305.897 268.107 307.821 271.01 308.039C271.569 304.315 267.338 296.622 265.974 293.554C264.235 289.664 262.145 282.399 260.913 278.247C264.453 280.476 266.42 285.87 270.214 291.325C279.14 304.167 280.862 303.625 288.231 311.973C290.915 315.007 299.902 323.749 303.329 324.544C303.381 319.911 293.048 299.56 291.999 294C293.791 296.395 295.076 298.353 296.388 301.701C297.542 304.674 298.783 307.497 299.928 310.496C301.126 313.66 304.596 321.161 304.754 323.993C304.92 326.992 302.962 325.978 301.047 325.445L305.479 334.711C308.373 340.787 311.389 347.527 313.059 354.206C313.854 357.353 314.484 362.589 315.952 364.976C317.36 356.907 324.546 342.054 328.305 337.089C329.878 335.026 328.654 336.905 330.639 335.585C331.557 334.973 331.933 334.405 332.85 333.522C343.988 322.813 363.045 318.687 357.013 296.045C355.728 291.255 353.779 288.684 353.455 283.177C360.029 287.216 360.519 293.204 363.045 295.494C363.465 289.331 360.528 279.908 357.555 274.514C356.218 272.075 355.37 271.655 354.758 268.097C356.13 268.709 361.795 274.155 362.739 275.335C365.624 278.937 366.909 283.78 368.964 285.048C371.682 269.627 364.54 241.626 356.742 227.394L350.133 216.659C349.294 215.479 348.403 214.098 347.327 213.381C348.219 215.47 349.347 217.07 350.404 219.221C353.35 225.165 355.798 230.638 358.08 237.011C360.257 243.112 364.217 260.36 361.166 266.899C358.902 266.48 354.898 259.775 353.114 258.551C354.338 270.475 354.382 277.984 352.144 289.62C350.623 297.558 346.768 310.461 339.984 310.443C339.564 305.084 340.561 299.629 340.342 293.772C339.311 296.185 339.442 301.841 338.935 304.962C338.358 308.529 337.536 311.816 336.487 314.945C335.141 318.923 330.595 328.994 326.513 329.029C326.058 326.904 327.614 318.696 327.5 315.112C326.749 316.606 324.685 326.52 323.024 331.232C321.468 335.664 318.767 342.859 314.755 343.339C310.856 326.651 310.48 324.658 303.346 308.747C300.54 302.506 290.697 283.16 286.343 280.31C286.798 285.319 288.546 292.146 289.831 296.675C290.871 300.32 293.992 308.739 293.809 312.367C292.157 312.209 290.609 310.627 289.481 309.779C285.591 306.868 282.217 303.493 278.93 300.128C275.031 296.15 270.424 290.127 267.224 284.366C261.044 273.229 254.732 255.701 253.701 242.352C252.756 255.106 254.111 270.86 257.302 283.081C257.94 285.502 260.589 292.225 260.231 293.903C256.935 292.916 247.31 274.234 246.156 271.611C238.691 254.731 239.521 247.763 237.904 243.086C237.038 244.118 235.744 247.23 234.958 248.76C228.821 260.675 215.647 280.196 206.992 287.933C201.904 292.479 200.033 294.681 193.8 299.192C190.461 301.605 177.462 311.431 172.645 310.085C172.313 308.73 173.738 306.291 174.376 304.735C175.128 302.89 175.678 301.282 176.281 299.402C174.166 300.189 172.426 301.815 170.477 303.24C161.639 309.683 130.517 326.703 123.034 323.609C123.069 323.049 128.9 312.402 129.984 307.934Z" fill="#A35624"/>
<path fill-rule="evenodd" clip-rule="evenodd" d="M162.006 351.364C164.13 352.719 162.504 350.289 167.959 355.464C168.833 356.295 169.62 357.178 170.389 358.104C171.395 359.293 171.613 360.133 172.819 360.919C173.353 344.546 161.63 333.076 161.201 329.125C172.444 327.018 179.691 317.402 182.331 316.956C182.427 318.897 181.666 318.853 180.539 320.173C179.603 321.248 179 322.079 178.056 323.18C176.622 324.85 174.411 327.088 173.519 329.203C182.488 335.288 206.878 315.461 211.275 311.58C220.393 303.528 226.906 293.117 233.41 282.355C234.293 280.895 235.159 278.657 236.426 278.019C237.353 279.068 239.311 283.841 240.281 285.52C241.803 288.177 242.974 290.275 244.626 292.61C250.842 301.36 270.144 324.369 279.367 326.336L277.111 316.624C280.049 316.16 284.385 323.093 285.818 325.34C288.1 328.915 289.953 332.753 292.078 336.87C295.985 344.441 299.762 353.48 302.07 362.703C306.196 379.216 305.54 395.022 301.869 411.649C300.724 416.851 298.958 421.327 297.786 426.117L299.701 423.617C300.295 422.708 300.863 421.676 301.475 420.653C305.103 414.595 308.014 408.266 310.392 401.028C315.244 386.297 314.894 383.299 314.824 366.969C314.413 362.353 309.046 346.285 306.939 341.731C305.549 338.732 300.444 326.284 299.132 324.509L294.866 320.636C283.878 310.854 272.417 298.773 264.663 285.345C265.965 293.117 273.492 303.572 272.347 308.188C271.508 311.58 266.105 308.004 264.768 306.798C254.601 297.689 246.646 289.943 240.526 276.629C236.907 268.77 235.867 261.777 235.019 259.967C228.541 271.568 228.034 274.531 219.379 286.901C213.487 295.328 203.993 306.964 196.729 313.503C193.083 316.781 189.202 321.537 183.878 321.764C183.948 318.792 187.934 314.683 189.272 312.629C190.618 310.566 193.582 305.39 194.211 302.741C192.961 303.467 181.457 312.699 174.813 316.702C171.473 318.713 155.816 328.303 151.69 325.103C152.083 322.009 159.986 316.965 163.457 312.463L151.987 319.299C148.954 321.073 141.995 324.133 139.836 325.925C149.365 325.576 153.028 329.396 157.582 334.554C159.672 336.914 161.35 339.493 162.95 342.553C164.506 345.56 167.242 351.539 162.006 351.364Z" fill="#F2A881"/>
<path fill-rule="evenodd" clip-rule="evenodd" d="M130.657 337.561C131.618 334.598 134.46 330.751 136.234 329.326C139.102 327.036 142.721 326.249 146.716 327.709C152.223 329.728 157.914 336.128 160.187 340.909C161.193 343.287 163.011 346.653 162.819 349.73C158.421 348.996 154.225 340.805 145.877 338.374C141.182 337.011 136.164 337.963 132.449 341.128L130.805 343.034C129.11 345.036 129.459 345.691 127.982 347.772C128.602 346.976 129.179 339.152 130.657 337.561ZM347.327 213.381C348.402 214.098 349.294 215.479 350.133 216.66L356.742 227.395C364.54 241.627 371.682 269.627 368.964 285.048C366.909 283.781 365.624 278.938 362.739 275.336C361.795 274.156 356.13 268.709 354.758 268.097C355.37 271.655 356.218 272.075 357.555 274.514C360.527 279.908 363.465 289.332 363.045 295.495C360.519 293.204 360.029 287.216 353.455 283.177C353.779 288.685 355.728 291.255 357.013 296.046C363.045 318.687 343.988 322.814 332.85 333.523C331.932 334.405 331.557 334.974 330.639 335.586C328.654 336.906 329.878 335.026 328.305 337.089C324.545 342.055 317.359 356.907 315.952 364.976C314.483 362.59 313.854 357.353 313.058 354.206C311.389 347.527 308.373 340.787 305.479 334.711L301.047 325.445C302.961 325.978 304.92 326.992 304.754 323.994C304.596 321.161 301.126 313.661 299.928 310.496C298.783 307.498 297.541 304.674 296.387 301.702C295.076 298.353 293.791 296.395 291.999 294C293.048 299.56 303.381 319.911 303.329 324.544C299.902 323.749 290.915 315.007 288.231 311.973C280.862 303.625 279.14 304.167 270.214 291.325C266.42 285.87 264.453 280.476 260.912 278.247C262.145 282.399 264.234 289.664 265.974 293.554C267.338 296.623 271.569 304.316 271.009 308.04C268.107 307.821 266.341 305.898 264.532 304.202C262.643 302.436 260.886 300.679 258.876 298.965L250.859 290.626C236.68 271.638 237.703 262.048 235.351 257.476C231.942 263.027 228.777 270.091 225.289 275.817C222.282 280.747 217.168 288.493 213.828 292.654C209.125 298.52 191.991 319.719 185.504 320.06C186.614 317.149 195.671 307.769 196.108 299.507C194.229 300.679 192.909 302.043 191.283 303.363C183.222 309.875 161.691 325.113 153.438 324.378C154.164 322.202 169.017 310.584 172.872 303.179L171.001 304.709C164.445 311.3 152.722 317.49 144.871 321.633C138.839 324.824 117.754 334.65 111.827 333.584L128.751 309.534C129.477 308.503 129.136 308.739 129.984 307.935L133.122 300.539C132.274 301.675 130.333 305.032 129.494 305.557C127.247 311.72 115.07 322.726 111.276 327.106C108.644 330.131 93.9055 345.368 91.0556 345.875C89.1848 342.702 87.0605 327.639 88.739 323.828C88.6341 317.822 91.7725 308.101 93.6869 303.083C96.904 294.647 98.9584 292.846 102.053 286.569C97.7957 289.874 93.0925 300.792 90.6098 308.302C89.246 312.463 88.1271 317.402 87.5326 322.079C86.536 329.999 87.5238 335.734 87.1392 338.016C87.4626 338.558 87.148 337.71 87.5938 339.021C87.7337 339.415 87.8648 339.992 87.9435 340.376C88.3019 342.011 89.1149 346.618 90.2688 347.134C93.5821 347.195 97.8219 341.924 99.8763 340.376C101.048 349.529 100.584 365.431 99.8763 374.881C99.8151 374.802 99.7189 374.566 99.684 374.636L97.0351 370.492C90.7234 361.462 80.5915 355.596 71.255 346.137C67.0589 341.88 63.0201 336.302 60.7034 327.849C59.0862 321.974 57.3552 306.702 61.0181 302.191L61.1405 300.758C59.2523 301.177 60.7209 300.242 59.6544 301.894C58.2644 304.045 55.8778 311.257 55.196 313.731C53.7361 319.028 53.0891 324.011 50.7813 328.111C49.6011 327.526 49.9158 327.893 49.4 326.922C48.0887 320.453 47.0572 319.238 47.5904 311.134C47.9314 306.046 48.6395 300.495 49.7585 295.836C50.8949 291.08 52.2412 287.094 53.8497 282.714C54.7676 280.214 58.4742 272.53 57.6437 270.528C53.229 273.614 48.0538 285.083 45.5186 291.133C44.6881 293.108 43.9887 297.698 42.0655 298.336C38.6824 295.661 41.7246 281.219 42.6425 276.49C44.0936 268.963 46.2529 264.032 48.7444 257.764C52.8182 247.528 59.7156 239.835 65.9923 231.731C67.0763 230.332 67.5834 229.755 68.4838 228.147C66.6043 229.187 64.6985 231.827 63.2561 233.628L58.3169 239.371C60.7909 232.028 75.3113 212.708 81.8765 206.257C84.875 203.311 87.926 200.312 91.2917 197.401C127.387 166.262 181.99 148.769 228.541 161.865C244.049 166.227 248.307 171.979 252.625 173.955C252.083 167.862 247.773 163.045 246.139 158.062C254.714 158.473 260.519 172.819 261.935 173.937C263.308 172.539 264.287 170.904 265.887 169.365C270.258 165.169 276.089 162.075 282.409 161.603C281.815 163.019 282.322 162.022 281.36 163.141C279.07 165.816 277.321 167.547 275.617 171.114C294.115 172.967 304.281 176.49 317.744 185.66C325.157 190.705 343.297 205.881 347.327 213.381ZM88.3456 363.245C89.1499 363.892 89.7793 364.784 90.2426 365.422C91.991 366.287 97.8481 373.264 98.294 376.28C98.9933 377.049 98.8884 377.871 99.9113 378.413C100.523 378.089 100.864 378.981 101.266 374.758C101.432 373.106 101.467 371.402 101.494 369.802C101.563 366.322 101.817 362.957 101.904 359.6C102.097 352.292 101.581 345.779 101.406 338.715L113.514 326.712C115.804 324.475 116.058 323.338 117.701 322.481C116.337 325.349 110.323 332.22 110.192 334.537C114.379 337.317 131.522 328.968 136.121 327.648C133.183 330.052 130.701 332.675 128.838 336.74C127.309 340.096 125.167 346.356 126.775 350.176C131.312 351.068 130.22 341.932 138.918 339.327C142.537 338.243 145.693 339.572 148.289 341.146C150.047 342.203 154.085 344.922 154.846 346.723C156.839 347.212 158.666 350.43 162.006 351.365C167.242 351.54 164.506 345.56 162.95 342.553C161.35 339.493 159.672 336.914 157.582 334.554C153.028 329.396 149.365 325.576 139.836 325.926C141.995 324.134 148.954 321.074 151.987 319.299L163.457 312.463C159.986 316.965 152.083 322.009 151.69 325.104C155.816 328.304 171.473 318.714 174.813 316.703C181.457 312.699 192.961 303.468 194.211 302.742C193.582 305.391 190.618 310.566 189.272 312.629C187.934 314.684 183.948 318.792 183.878 321.765C189.202 321.537 193.083 316.782 196.729 313.503C203.993 306.964 213.487 295.329 219.379 286.901C228.034 274.532 228.541 271.568 235.019 259.967C235.867 261.777 236.907 268.771 240.526 276.63C246.646 289.944 254.601 297.689 264.768 306.798C266.105 308.005 271.508 311.58 272.347 308.188C273.492 303.572 265.965 293.117 264.663 285.345C272.417 298.773 283.878 310.855 294.866 320.637L299.132 324.51C300.444 326.284 305.549 338.733 306.939 341.731C309.046 346.286 314.413 362.354 314.824 366.969C315.996 368.517 314.982 368.447 316.372 368.228C316.87 367.852 316.914 367.153 317.089 366.139C318.452 358.149 319.86 356.077 323.042 349.048C323.295 347.999 323.059 348.725 323.383 347.693C323.418 347.562 323.549 347.169 323.593 347.038L324.047 346.032C324.983 345.141 328.61 338.54 335.132 333.182C344.285 325.646 356.838 320.226 359.207 308.162C360.93 299.42 357.8 293.991 355.632 287.277C357.031 288.256 358.665 291.334 359.811 293.344C361.603 296.491 362.346 298.983 364.26 299.271C366.664 292.741 361.472 279.733 359.05 273.937C361.349 275.843 362.276 276.971 363.937 280.161C365.283 282.723 366.708 286.036 368.57 287.146C372.688 285.092 370.45 270.187 369.89 264.924C367.844 245.779 361.061 229.51 350.754 214.719C349.679 213.172 348.997 212.647 348.035 210.881C347.135 210.636 347.406 210.558 346.234 209.08C345.649 208.328 345.255 207.83 344.661 207.122C343.533 205.767 342.475 204.753 341.234 203.529C338.874 201.186 336.627 198.948 334.135 196.632C318.776 182.304 299.718 170.353 277.514 170.493C279.035 166.524 283.816 163.465 284.166 160.405C278.222 159.609 270.782 163.631 266.446 167.521C264.672 169.112 263.85 170.388 262.337 171.63C260.519 169.549 259.592 165.886 255.361 161.655C253.508 159.793 248.543 155.203 244.355 156.961C244.338 159.321 249.758 167.626 250.842 171.149C248.962 170.161 246.917 168.491 244.775 167.241C228.384 157.634 206.887 155.326 188.494 156.156C140.885 159.216 101.196 182.854 77.6629 208.967C71.3686 215.951 65.7476 223.977 60.1002 233.418C57.6 237.588 55.4058 243.515 53.0192 247.309C50.3092 251.61 47.9139 256.182 45.8071 261.48C42.6687 269.383 37.205 290.643 39.5828 297.514C40.8853 301.3 43.6828 299.979 44.9154 296.614C45.9819 293.72 46.7949 291.526 47.8789 288.816C49.8983 283.781 52.5384 278.413 55.3533 275.065C53.3602 282.828 49.8022 286.7 47.4156 300.653C46.6026 305.382 45.877 311.501 46.0169 316.484C46.148 321.266 47.0921 327.823 49.8721 329.86C55.2397 327.875 54.5491 315.899 57.2941 311.904C57.906 319.492 57.6175 323.408 59.803 330.498C63.7369 343.209 73.3356 350.849 82.6109 358.577C84.0795 359.792 87.0343 362.546 88.3456 363.245Z" fill="#824D14"/>
<path fill-rule="evenodd" clip-rule="evenodd" d="M317.307 252.606C321.477 254.153 325.516 282.364 328.96 284.06C335.866 279.663 326.504 236.46 321.049 224.282C320.174 222.315 317.001 215.968 315.856 215.662C313.452 215.016 315.427 218.757 315.725 219.902L317.456 239.817C316.511 239.126 314.85 236.416 313.889 235.087C304.561 222.097 303.477 236.267 302.559 237.92C297.55 236.984 294.001 229.405 287.873 230.769C286.544 232.29 286.675 232.875 286.754 235.717C284.883 233.89 283.65 230.052 282.147 227.604C281.001 225.742 280.529 225.628 279.323 224.16C279.008 223.775 276.071 219.413 275.581 223.714C275.503 224.396 275.616 224.981 275.748 225.628L283.659 246.023C289.708 261.444 302.192 285.992 310.243 300.705C311.345 302.715 314.693 310.391 316.957 308.572C317.552 307.934 317.324 308.983 317.56 307.043C317.814 304.997 313.968 281.621 313.714 280.449C311.939 272.136 308.128 262.808 307.088 254.844C309.334 256.951 315.087 268.455 318.513 266.427C319.606 265.474 318.54 262.738 317.971 259.661C317.543 257.362 317.15 255.08 317.307 252.606Z" fill="#D99D57"/>
<path fill-rule="evenodd" clip-rule="evenodd" d="M99.2208 415.951C98.2767 416.432 98.8362 416.423 97.7609 416.117L96.5895 415.348C95.7415 414.788 94.9547 414.491 94.1155 413.949C90.6275 411.72 84.5256 405.128 83.5902 400.784C76.6315 383.239 89.5085 374.951 98.5564 387.907C99.1159 385.476 98.3554 379.252 98.2942 376.28C97.8483 373.264 91.9912 366.288 90.2428 365.422C76.5616 364.102 65.1533 389.148 80.6266 412.087C82.3925 414.718 84.5518 417.761 86.8771 419.929C90.5575 423.364 99.553 430.27 106.179 424.44L102.997 413.704C101.808 414.57 101.319 415.619 99.2208 415.951Z" fill="#FAD5BD"/>
<path fill-rule="evenodd" clip-rule="evenodd" d="M323.042 349.049C327.159 347.807 330.062 348.078 333.733 349.774C336.95 351.252 338.375 352.825 339.975 355.99C346.077 368.124 340.998 386.595 332.273 394.857C325.122 401.623 318.645 397.095 314.038 394.935C314.483 391.036 315.891 387.644 316.241 382.941C316.616 377.923 316.057 373.045 316.372 368.229C314.982 368.447 315.996 368.517 314.824 366.97C314.894 383.3 315.244 386.298 310.392 401.028C308.014 408.267 305.103 414.596 301.475 420.654C300.863 421.677 300.295 422.709 299.701 423.618L297.786 426.118C295.181 432.08 283.196 443.305 277.417 447.728C269.882 453.507 260.554 458.874 250.676 462.817C220.437 474.898 178.467 477.713 147.179 465.133C126.05 456.636 114.615 444.354 106.695 420.934C102.647 408.957 101.048 397.086 100.069 383.483L99.9112 378.413C98.8884 377.871 98.9933 377.049 98.294 376.28C98.3552 379.252 99.1157 385.476 98.5562 387.907C99.0458 390.267 100.838 399.595 100.007 401.684C100.619 402.366 100.663 402.357 100.995 403.913C102.857 412.874 103.12 412.017 99.6227 414.797C99.2556 415.094 99.343 414.902 99.1419 415.313C98.6873 416.24 97.6296 414.858 99.2206 415.951C101.319 415.619 101.808 414.57 102.997 413.704L106.179 424.44C99.5528 430.27 90.5573 423.364 86.8769 419.929C84.5515 417.761 82.3923 414.718 80.6264 412.087C65.1531 389.148 76.5614 364.102 90.2426 365.422C89.7792 364.784 89.1498 363.892 88.3456 363.246C87.6987 363.945 88.4855 363.394 87.4015 363.884L83.5812 365.352C78.4234 367.966 75.862 371.175 73.694 377.784C68.0379 395.014 75.6959 410.557 86.5098 421.572C90.4174 425.558 95.8112 428.671 101.625 428.032C104.125 427.753 105.095 426.73 106.87 426.17C107.814 427.613 109.361 431.888 110.139 433.549C118.199 450.77 132.257 461.934 149.653 467.712C192.349 481.901 243.21 475.379 279.524 448.017C287.007 442.369 294.613 433.986 299.832 426.205C304.089 419.867 311.695 406.186 313.321 396.351C318.924 398.904 324.362 403.17 332.667 396.535C339.765 390.862 344.547 377.784 343.97 366.961C343.856 364.898 343.62 363.079 343.166 361.043C341.146 351.933 335.141 346.295 327.107 346.732C326.923 346.741 325.656 346.854 325.612 346.846C323.995 346.653 324.851 347.361 324.047 346.033L323.593 347.038C323.549 347.169 323.418 347.562 323.383 347.694C323.059 348.725 323.295 348 323.042 349.049Z" fill="#B36F41"/>
<path fill-rule="evenodd" clip-rule="evenodd" d="M328.401 387.802C323.514 388.265 321.591 384.812 320.795 380.109C319.003 369.505 322.797 355.788 330.752 360.081C334.144 361.908 335.15 366.069 335.176 371.218C334.389 374.977 333.943 382.119 330.306 385.738C327.937 388.107 330 387.513 328.401 387.802ZM323.042 349.048C319.86 356.077 318.452 358.149 317.089 366.139C316.914 367.153 316.87 367.852 316.372 368.228C316.057 373.045 316.616 377.923 316.241 382.941C315.891 387.644 314.483 391.036 314.038 394.935C318.645 397.094 325.122 401.623 332.273 394.856C340.998 386.595 346.077 368.123 339.975 355.989C338.375 352.825 336.95 351.251 333.733 349.774C330.062 348.078 327.159 347.807 323.042 349.048Z" fill="#FAD5BD"/>
<path fill-rule="evenodd" clip-rule="evenodd" d="M87.1392 338.016C86.8157 341.067 87.3403 344.389 88.162 347.099C89.3859 351.112 92.4631 353.472 90.3738 353.087C90.3213 353.079 90.2076 353.052 90.1639 353.035L80.7838 343.768C76.9985 340.219 74.0699 337.089 70.9578 333.322C66.2196 327.578 59.7418 313.442 61.0181 302.191C57.3552 306.702 59.0862 321.975 60.7034 327.849C63.0201 336.303 67.0589 341.88 71.255 346.137C80.5915 355.596 90.7234 361.462 97.0351 370.493L99.684 374.636C99.7189 374.566 99.8151 374.802 99.8763 374.881C100.584 365.431 101.048 349.529 99.8763 340.376C97.8219 341.924 93.5821 347.195 90.2688 347.134C89.1149 346.618 88.3019 342.011 87.9435 340.376C87.8648 339.992 87.7337 339.415 87.5938 339.021C87.148 337.71 87.4626 338.558 87.1392 338.016Z" fill="#A35624"/>
<path fill-rule="evenodd" clip-rule="evenodd" d="M99.9111 378.412L100.068 383.483L101.056 381.437C101.292 380.659 101.52 379.758 101.747 378.928C104.134 370.37 105.891 361.855 107.071 352.903C108.373 342.99 106.905 340.962 109.825 340.822C114.598 340.594 113.479 340.787 118.505 338.811C119.275 338.514 121.014 337.648 121.617 338.321C122.929 340.708 114.659 362.546 122.535 367.537C123.278 364.923 125.682 360.159 126.906 357.589C128.48 354.284 130.377 351.181 132.807 348.934C137.659 344.441 147.992 342.771 154.846 346.723C154.085 344.922 150.046 342.203 148.289 341.145C145.693 339.572 142.537 338.243 138.918 339.327C130.22 341.932 131.312 351.067 126.775 350.176C125.167 346.355 127.309 340.096 128.838 336.739C130.7 332.674 133.183 330.052 136.12 327.647C131.522 328.968 114.379 337.316 110.192 334.536C110.323 332.22 116.337 325.348 117.701 322.481C116.058 323.338 115.804 324.474 113.514 326.712L101.406 338.715C101.581 345.778 102.097 352.291 101.904 359.599C101.817 362.956 101.563 366.322 101.493 369.801C101.467 371.401 101.432 373.106 101.266 374.758C100.864 378.98 100.523 378.089 99.9111 378.412Z" fill="#F2A881"/>
<path fill-rule="evenodd" clip-rule="evenodd" d="M193.94 455.141C199.78 459.198 200.269 457.493 203.049 455.57C208.871 451.531 217.299 449.459 224.415 450.517C230.508 451.417 229.59 452.213 232.868 447.58C236.601 442.291 238.926 433.793 238.952 425.209C233.742 427.333 236.015 431.136 228.803 437.334C221.163 443.899 205.296 447.536 195.321 447.029C185.32 446.513 182.741 442.806 178.432 443.06L193.94 455.141Z" fill="#910000"/>
<path fill-rule="evenodd" clip-rule="evenodd" d="M246.147 425.13L247.677 425.935C248.053 426.057 248.822 426.232 249.172 426.319C246.741 427.744 243.245 426.372 240.858 425.629C240.605 435.83 237.457 444.826 232.807 450.386C231.635 451.793 230.543 453.078 228.934 454.302C223.794 458.219 217.762 460.159 211.258 460.334C201.239 460.614 194.447 457.065 187.943 452.335C171.508 440.368 182.016 444.616 166.927 441.827C182.532 440.63 188.8 442.955 207.586 438.453C213.426 437.054 219.213 435.323 224.406 432.858C233.541 428.522 232.912 427.22 238.244 424.011C237.082 422.202 236.068 421.983 234.992 419.055C237.012 420.558 242.86 425.279 246.147 425.13ZM246.147 425.13C242.126 422.709 241.225 423.356 236.741 419.168C236.015 418.486 234.739 416.983 234.17 417.044C233.392 419.055 233.628 421.529 234.057 423.618C232.483 425.865 222.981 430.472 219.528 431.975C201.633 439.773 180.066 441.32 160.747 441.102C160.825 441.181 160.956 441.172 161 441.32L163.763 442.632C168.448 444.022 169.567 443.873 174.052 444.677C175.993 445.027 175.529 445.141 176.578 446.478C177.4 447.518 177.82 447.763 178.694 448.646C202.813 473.019 243.682 463.77 243.332 428.103C246.322 428.382 250.063 428.819 251.2 425.69C249.093 425.716 247.808 425.235 246.147 425.13Z" fill="#F2A881"/>
<path fill-rule="evenodd" clip-rule="evenodd" d="M136.479 405.513L137.589 405.819C135.876 402.462 134.967 401.5 134.241 396.579C133.647 392.549 133.83 388.099 134.504 384.017C135.78 376.219 139.084 369.898 143.49 366.926C153.544 360.133 159.925 374.549 160.555 385.013C160.869 390.171 159.549 393.86 159.593 397.488C159.794 398.965 166.036 387.312 160.852 370.746C158.605 363.578 152.731 352.991 143.551 357.563C137.441 360.605 133.026 368.893 131.286 378.019C129.25 388.755 130.29 400.084 136.479 405.513Z" fill="#FDF9F5"/>
<path fill-rule="evenodd" clip-rule="evenodd" d="M238.725 391.403C227.868 370.361 236.933 348.471 248.927 354.328C258.176 358.848 265.878 378.159 259.286 391.088C258.386 392.863 256.664 394.078 256.41 395.293C256.41 396.027 256.585 395.573 257.485 395.013C258.648 394.559 259.076 393.623 259.951 392.644C260.702 391.814 261.874 390.669 262.32 390.144C263.491 384.908 265.065 383.972 264.287 375.449C263.168 363.21 255.772 345.665 243.83 346.032C232.326 346.382 224.563 374.076 236.679 390.092C238.778 392.863 238.305 391.84 238.725 391.403Z" fill="#FDF9F5"/>
<path fill-rule="evenodd" clip-rule="evenodd" d="M83.59 400.784C84.5254 405.128 90.6273 411.72 94.1154 413.949C94.9546 414.491 95.7414 414.788 96.5894 415.348L97.7608 416.117C98.8361 416.423 98.2766 416.432 99.2207 415.951C97.6297 414.858 98.6875 416.239 99.142 415.313C99.3431 414.902 99.2557 415.094 99.6229 414.797C103.12 412.017 102.857 412.874 100.995 403.913C100.663 402.357 100.619 402.366 100.007 401.684C99.6228 407.209 91.3005 409.263 88.7128 404.237C94.2902 405.906 97.1663 404.997 98.4951 399.175C100.016 392.496 97.1314 389.987 94.4301 386.927C91.1868 383.265 87.1043 382.653 84.1845 386.962C80.7839 391.972 83.9834 399.245 83.59 400.784Z" fill="#F2A881"/>
<path fill-rule="evenodd" clip-rule="evenodd" d="M250.842 413.722L251.602 411.126L251.349 410.584C251.095 408.293 252.372 404.762 253.36 403.074C252.888 402.637 253.447 403.057 252.704 402.611C252.704 402.611 252.136 402.366 252.031 402.314L246.733 402.305C243.455 403.774 235.683 396.841 234.538 395.346C231.95 391.989 229.284 387.33 228.008 381.656C226.67 375.747 226.933 368.194 228.296 362.459C233.314 341.373 249.129 338.847 259.689 354.714C265.791 363.884 268.046 373.553 266.569 387.365C267.915 387.015 269.349 386.045 270.809 386.561C271.683 386.202 272.898 386.167 273.353 385.031L269.375 385.188C270.555 369.759 266.578 358.245 259.479 350.43C253.674 344.04 245.737 339.45 236.951 344.153C234.084 345.692 232.798 347.318 230.893 349.337C217.028 363.989 224.415 404.718 250.553 405.435C249.959 408.634 249.408 412.568 250.755 415.418L250.842 413.722Z" fill="#F2A881"/>
<path fill-rule="evenodd" clip-rule="evenodd" d="M210.148 459.284L202.289 458.602C205.829 453.453 221.547 449.082 228.2 452.675C222.64 456.732 217.797 459.284 210.148 459.284ZM183.939 442.972C194.98 441.407 196.877 442.858 210.629 439.353C221.914 436.468 223.444 434.361 232.213 430.322C224.694 445.489 193.005 449.598 183.939 442.972ZM178.432 443.059C182.742 442.806 185.32 446.512 195.321 447.028C205.296 447.535 221.163 443.898 228.803 437.333C236.015 431.135 233.742 427.332 238.953 425.208C238.926 433.793 236.601 442.29 232.868 447.579C229.59 452.212 230.508 451.417 224.415 450.516C217.299 449.458 208.871 451.53 203.049 455.569C200.269 457.492 199.78 459.197 193.94 455.141L178.432 443.059ZM246.147 425.129C242.86 425.278 237.012 420.557 234.992 419.054C236.068 421.982 237.082 422.201 238.244 424.01C232.912 427.219 233.541 428.521 224.406 432.857C219.213 435.323 213.426 437.053 207.586 438.452C188.8 442.954 182.532 440.629 166.927 441.827C182.016 444.615 171.508 440.367 187.943 452.334C194.447 457.064 201.24 460.613 211.258 460.333C217.762 460.159 223.794 458.218 228.934 454.301C230.543 453.078 231.636 451.792 232.807 450.385C237.458 444.825 240.605 435.83 240.858 425.628C243.245 426.371 246.742 427.743 249.172 426.318C248.822 426.231 248.053 426.056 247.677 425.934L246.147 425.129Z" fill="#A35624"/>
<path fill-rule="evenodd" clip-rule="evenodd" d="M153.054 423.425C152.722 424.719 152.958 423.853 152.267 424.719L149.19 427.438C148.211 428.102 147.695 428.233 146.506 428.583C145.65 428.836 145.999 428.679 145.116 429.099C145.038 429.134 144.95 429.195 144.871 429.23C142.485 430.366 139.906 429.745 137.773 429.169C132.257 427.674 133.822 428.085 129.931 424.352C129.896 424.308 129.809 424.229 129.774 424.194L128.961 422.935C127.466 419.972 127.999 422.227 127.02 418.512C124.887 410.487 127.064 406.999 127.143 405.548L124.555 404.743C122.544 407.008 119.843 406.09 119.214 410.198C118.602 414.246 119.966 420.671 121.863 424.229C124.031 428.294 122.623 426.065 125.115 429.247L129.311 433.225C131.313 434.309 134.486 435.917 136.706 436.512C139.469 437.246 145.09 437.578 147.695 435.638C150.781 433.347 151.874 434.772 153.369 433.338C154.505 432.254 154.435 427.901 154.068 425.882L153.054 423.425Z" fill="#F8C8B1"/>
<path fill-rule="evenodd" clip-rule="evenodd" d="M124.555 404.743L127.143 405.547L127.825 405.329L127.457 404.419L130.779 404.236C123.497 386.682 130.867 362.537 141.156 356.557C145.929 353.777 152.258 354.817 156.044 358.008C166.324 366.698 171.526 390.966 160.389 405.783C154.759 413.284 152.232 411.737 148.237 414.176C149.216 415.968 152.119 418.748 152.538 421.056L152.94 421.886C153.316 422.393 153.01 422.105 153.404 422.542C153.456 422.603 153.544 422.699 153.605 422.769L154.357 423.416C153.893 419.298 152.905 418.922 151.647 416.23C153.937 414.56 159.217 414.324 163.378 406.657C166.158 401.543 167.505 395.879 168.02 388.946C169.096 374.426 165.083 360.954 157.32 355.359C145.58 346.906 135.194 356.645 130.57 364.914C123.821 376.996 124.896 388.71 128.367 402.671C125.805 403.012 123.777 403.405 121.731 404.586L124.555 404.743Z" fill="#F2A881"/>
<path fill-rule="evenodd" clip-rule="evenodd" d="M154.592 387.881C155.204 388.737 155.44 388.667 155.012 391.561C153.342 402.856 144.959 403.101 142.091 398.1C138.009 390.958 141.803 377.452 148.727 378.483C148.534 370.257 153.299 367.477 156.839 373.946C158.902 377.723 160.86 388.064 154.592 387.881ZM159.558 385.258C160.275 393.904 156.594 401.597 152.197 404.901C145.658 409.814 138.866 405.443 136.374 399.088C130.858 384.987 141.646 359.277 152.704 367.678C146.305 367.355 146.926 373.762 145.676 375.1C145.352 375.441 137.93 378.404 137.921 391.185C137.913 397.182 139.39 398.948 142.616 403.581C143.307 404.569 144.277 404.936 145.448 405.137C156.201 406.938 157.145 390.879 157.792 389.743C158.439 388.606 159.785 387.094 159.558 385.258ZM137.589 405.819L144.303 410.05C148.63 410.925 152.005 408.748 154.225 406.353C155.475 405.006 156.227 404.193 157.241 402.296C158.046 400.784 158.5 398.572 159.593 397.488C159.549 393.86 160.869 390.171 160.555 385.013C159.925 374.549 153.543 360.134 143.49 366.926C139.084 369.898 135.78 376.219 134.503 384.017C133.83 388.099 133.647 392.549 134.241 396.579C134.967 401.501 135.876 402.462 137.589 405.819Z" fill="#3D2616"/>
<path fill-rule="evenodd" clip-rule="evenodd" d="M194.36 389.217C194.333 390.074 194.613 394.637 194.744 395.739L194.928 396.683C196.606 395.415 199.211 391.892 200.304 388.903C204.491 377.442 196.947 364.259 190.705 360.605C187.637 358.813 183.248 358.769 181.806 361.837C178.694 368.455 190.67 370.606 194.36 389.217Z" fill="#FCE9DA"/>
<path fill-rule="evenodd" clip-rule="evenodd" d="M275.599 275.336C276.054 272.915 273.685 263.071 273.143 260.143C269.978 243.087 271.595 227.657 269.104 219.073C267.058 211.992 261.769 219.86 262.95 234.494C264.034 247.965 267.303 261.454 273.335 273.081C274.078 274.506 274.069 275.31 275.599 275.336Z" fill="#D99D57"/>
<path fill-rule="evenodd" clip-rule="evenodd" d="M252.835 373.124C252.94 373.212 253.071 373.29 253.176 373.343C253.272 373.395 253.385 373.491 253.508 373.544L255.466 373.946C259.05 383.265 251.252 393.572 244.626 386.613C242.475 384.349 240.919 380.223 241.007 375.598C241.068 371.647 242.624 366.681 246.549 366.358C243.288 358.167 248.656 354.137 253.901 359.906C256.358 362.608 261.498 374.06 252.835 373.124ZM239.014 388.694C238.909 387.505 236.933 384.567 236.54 382.198C236.426 382.076 235.963 382.216 235.569 380.109C235.456 379.506 235.342 378.422 235.228 377.687C233.725 367.608 235.464 352.729 247.318 354.276L246.881 354.705C246.672 354.871 243.14 356.034 242.947 362.066C242.843 365.204 242.615 363.963 241.112 365.999C240.386 366.979 239.722 368.281 239.355 369.785C238.559 373.124 238.559 377.023 239.171 380.476C239.608 382.959 241.531 387.295 242.607 388.449C243.586 389.498 244.844 390.075 245.929 390.94C247.292 392.033 246.908 392.706 249.355 392.68C252.677 392.645 255.02 390.494 256.262 388.554C260.23 382.329 257.59 376.507 258.062 374.156C258.517 371.892 258.692 371.909 258.823 369.147C261.585 376.848 261.14 385.844 256.401 391.176C254.26 393.572 251.165 395.67 246.838 394.839C243.962 394.288 240.019 391.736 239.014 388.694ZM238.725 391.404C240.797 393.746 242.283 396.518 246.138 397.645C251.008 399.07 253.184 396.999 256.41 395.294C256.664 394.079 258.386 392.864 259.286 391.089C265.878 378.16 258.176 358.848 248.927 354.329C236.933 348.472 227.868 370.362 238.725 391.404Z" fill="#3D2616"/>
<path fill-rule="evenodd" clip-rule="evenodd" d="M246.733 402.304L252.031 402.313C254.129 402.173 254.26 400.818 255.143 399.227C255.921 397.828 257.014 396.429 257.486 395.013C256.585 395.573 256.411 396.027 256.411 395.293C253.185 396.998 251.008 399.069 246.139 397.644C242.283 396.517 240.797 393.745 238.725 391.403C238.306 391.84 238.778 392.863 236.68 390.091C224.563 374.076 232.326 346.381 243.831 346.032C255.772 345.665 263.168 363.21 264.287 375.449C265.065 383.972 263.492 384.907 262.32 390.144C265.581 388.264 265.808 388.378 266.245 383.718C267.425 371.034 261.359 353.41 251.192 347.317C234.66 337.412 225.84 363.14 228.646 380.082C230.185 389.401 238.717 401.928 246.733 402.304Z" fill="#E7DDD2"/>
<path fill-rule="evenodd" clip-rule="evenodd" d="M88.7389 323.828C87.0604 327.64 89.1847 342.702 91.0555 345.875C93.9054 345.368 108.644 330.131 111.276 327.106C115.07 322.727 127.247 311.72 129.494 305.557L120.114 313.11C118.54 314.439 116.923 315.663 115.367 316.878C110.209 320.926 96.2482 334.895 92.3493 335.42C89.0361 327.299 91.5275 326.014 91.6762 317.709C90.2162 320.095 89.9977 323.54 88.6514 325.725L88.7389 323.828Z" fill="#A35624"/>
<path fill-rule="evenodd" clip-rule="evenodd" d="M195.269 283.658C198.652 282.154 203.932 275.073 206.424 271.716C212.937 262.957 218.636 250.788 220.385 238.742C221.206 233.059 221.565 221.607 219.038 217.114C216.905 232.596 216.442 239.109 210.55 254.136C208.382 259.67 206.057 264.732 203.434 269.636L195.269 283.658Z" fill="#D99D57"/>
<path fill-rule="evenodd" clip-rule="evenodd" d="M270.808 386.56C271.473 388.789 270.791 386.665 272.819 389.008L275.346 394.524C276.727 398.834 276.342 404.717 274.69 408.502C274.305 409.385 274.506 408.992 273.964 409.796C272.094 412.55 272.05 413.144 269.139 414.832C268.098 415.435 269.016 414.902 268.037 415.601C264.89 417.821 259.995 417.751 256.69 416.86C255.457 416.519 254.95 416.44 253.884 415.802C252.984 415.26 252.459 414.7 251.524 414.386L251.602 411.125L250.842 413.721L251.9 420.173C252.625 420.505 252.669 420.558 253.246 420.968C254.312 421.729 253.543 421.493 254.645 421.773C263.011 423.915 266.84 421.1 269.777 420.426C271.071 420.138 270.17 420.724 270.983 419.981L274.524 416.615C279.087 411.606 280.932 406.876 280.879 399.393C280.853 396.202 280.626 392.968 279.481 391.045C278.064 388.684 278.545 388.544 276.027 385.826L275.59 385.38C274.585 385.345 274.026 385.196 273.352 385.03C272.898 386.167 271.683 386.202 270.808 386.56Z" fill="#F8C4AB"/>
<path fill-rule="evenodd" clip-rule="evenodd" d="M136.479 405.513C130.29 400.084 129.249 388.754 131.286 378.019C133.026 368.892 137.441 360.605 143.551 357.563C152.73 352.991 158.605 363.577 160.852 370.746C166.036 387.312 159.794 398.965 159.593 397.487C158.5 398.571 158.045 400.783 157.241 402.296C156.227 404.193 155.475 405.006 154.225 406.352C152.005 408.747 148.63 410.924 144.303 410.05C146.742 414.019 148.272 413.433 151.043 412.261C170.057 404.263 168.938 371.174 155.842 359.049C140.527 344.861 123.296 375.799 130.386 400.416C131.767 405.233 131.986 404.586 136.479 405.513Z" fill="#E7DDD2"/>
<path fill-rule="evenodd" clip-rule="evenodd" d="M254.819 426.319C255.44 428.303 256.07 428.539 257.617 429.676C261.201 432.307 262.058 431.949 268.343 430.2L280.163 423.268L284.096 418.241C285.443 416.091 284.437 416.536 286.02 414.176C287.646 411.763 287.506 411.265 288.24 408.162C289.543 402.619 289.709 397.986 288.17 392.837C287.252 389.768 284.909 388.352 281.885 386.752C282.54 391.998 287.584 394.314 283.205 410.225L280.005 416.528C277.531 419.893 277.199 419.85 274.471 422.297C273.772 422.927 274.113 422.769 273.204 423.355L268.85 425.514C264.829 427.289 259.173 426.992 254.819 426.319Z" fill="#F8D0B7"/>
<path fill-rule="evenodd" clip-rule="evenodd" d="M251.899 420.173C252.616 422.883 253.718 424.448 254.819 426.319C259.173 426.992 264.829 427.289 268.85 425.515L273.203 423.355C274.113 422.77 273.772 422.927 274.471 422.298C277.199 419.85 277.531 419.893 280.005 416.528L283.204 410.225C287.584 394.314 282.54 391.998 281.884 386.753C280.984 386.779 277.688 385.52 275.59 385.38L276.027 385.826C278.545 388.545 278.064 388.685 279.48 391.045C280.625 392.968 280.853 396.203 280.879 399.394C280.931 406.877 279.087 411.606 274.524 416.615L270.983 419.981C270.17 420.724 271.07 420.138 269.777 420.427C266.839 421.1 263.01 423.915 254.644 421.773C253.543 421.493 254.312 421.729 253.246 420.969C252.669 420.558 252.625 420.505 251.899 420.173Z" fill="#F8C8B1"/>
<path fill-rule="evenodd" clip-rule="evenodd" d="M252.835 373.124C249.994 371.979 247.45 369.26 246.549 366.357C242.624 366.681 241.068 371.646 241.007 375.598C240.919 380.222 242.475 384.348 244.626 386.613C251.252 393.571 259.05 383.264 255.466 373.945L253.508 373.543C253.385 373.491 253.272 373.395 253.176 373.342C253.071 373.29 252.94 373.211 252.835 373.124Z" fill="#050106"/>
<path fill-rule="evenodd" clip-rule="evenodd" d="M328.401 387.801C330.001 387.513 327.938 388.107 330.307 385.738C333.943 382.119 334.389 374.977 335.176 371.218C332.851 357.187 325.516 360.29 323.523 365.859C320.489 374.33 325.778 378.517 328.55 378.342C330.7 378.202 330.927 377.031 332.545 376.026C330.98 381 326.355 382.329 322.107 376.096C322.072 385.703 324.039 385.86 328.401 387.801Z" fill="#F2A881"/>
<path fill-rule="evenodd" clip-rule="evenodd" d="M154.592 387.88C151.13 386.709 149.295 382.976 148.726 378.483C141.803 377.451 138.009 390.957 142.091 398.1C144.959 403.1 153.342 402.855 155.012 391.561C155.44 388.667 155.204 388.737 154.592 387.88Z" fill="#050106"/>
<path fill-rule="evenodd" clip-rule="evenodd" d="M159.558 385.258C159.785 387.093 158.439 388.606 157.792 389.742C157.145 390.879 156.201 406.938 145.448 405.137C144.277 404.936 143.306 404.569 142.616 403.581C139.39 398.948 137.913 397.182 137.921 391.185C137.93 378.404 145.352 375.44 145.676 375.099C146.926 373.762 146.305 367.354 152.704 367.677C141.645 359.276 130.858 384.987 136.374 399.087C138.865 405.443 145.658 409.814 152.197 404.901C156.594 401.596 160.275 393.903 159.558 385.258Z" fill="#744E32"/>
<path fill-rule="evenodd" clip-rule="evenodd" d="M153.054 423.426L152.94 421.887L152.538 421.056L150.553 419.308C149.207 419.308 149.574 419.649 148.648 420.672C148.595 420.733 148.517 420.812 148.464 420.873C148.403 420.925 148.315 421.004 148.263 421.056C146.418 422.971 147.625 422.342 146.375 422.997C144.233 424.142 141.584 423.924 139.416 423.889C136.61 423.836 137.318 423.644 135.954 422.123C135.194 421.266 133.174 420.357 132.344 418.416C129.162 410.977 134.215 408.381 129.45 408.022C129.608 408.153 130.193 409.797 129.669 405.968C126.46 405.959 129.022 406.116 127.973 405.129L127.824 405.33L127.142 405.548C127.064 406.999 124.887 410.487 127.02 418.513C127.999 422.228 127.466 419.972 128.961 422.936L129.774 424.195C129.809 424.23 129.896 424.308 129.931 424.352C133.821 428.085 132.256 427.674 137.773 429.169C139.906 429.746 142.485 430.367 144.871 429.23C144.95 429.195 145.037 429.134 145.116 429.099C145.999 428.679 145.649 428.837 146.506 428.583C147.695 428.234 148.21 428.102 149.19 427.438L152.267 424.719C152.957 423.854 152.721 424.719 153.054 423.426Z" fill="#F7BAA5"/>
<path fill-rule="evenodd" clip-rule="evenodd" d="M268.999 387.583C267.46 390.94 269.095 387.915 269.366 390.372C273.038 389.699 272.329 392.759 268.903 392.785C269.375 393.309 270.1 393.572 270.529 394.472C270.939 395.329 270.808 395.652 271.14 396.64C271.927 398.983 272.426 400.46 271.298 404.42C270.773 406.265 271.228 404.814 270.415 406.3C268.404 410.006 264.671 413.145 259.925 412.367C253.184 411.265 255.519 408.826 252.275 409.01L251.349 410.583L251.602 411.125L251.523 414.386C252.459 414.701 252.983 415.26 253.884 415.802C254.95 416.441 255.457 416.519 256.69 416.86C259.994 417.752 264.89 417.822 268.037 415.601C269.016 414.902 268.098 415.435 269.139 414.832C272.05 413.145 272.093 412.55 273.964 409.797C274.506 408.992 274.305 409.386 274.69 408.503C276.342 404.718 276.727 398.834 275.345 394.524L272.819 389.008C270.791 386.665 271.473 388.79 270.808 386.56L268.999 387.583Z" fill="#F7BAA5"/>
<path fill-rule="evenodd" clip-rule="evenodd" d="M236.54 382.198C235.779 378.01 235.456 371.734 237.169 370.125C237.991 371.55 237.493 374.732 237.72 377.154C238.096 381.228 239.092 384.698 241.313 387.801C242.939 390.074 244.18 390.415 244.958 391.665C242.773 391.648 242.056 391.053 240.622 389.865C239.608 389.017 240.272 389.384 239.014 388.693C240.019 391.735 243.962 394.288 246.838 394.839C251.165 395.669 254.26 393.571 256.401 391.176C261.14 385.843 261.585 376.848 258.823 369.146C258.692 371.909 258.517 371.891 258.062 374.155C257.59 376.507 260.23 382.329 256.262 388.553C255.02 390.494 252.677 392.645 249.355 392.68C246.908 392.706 247.292 392.033 245.929 390.94C244.845 390.074 243.586 389.497 242.607 388.448C241.531 387.294 239.608 382.958 239.171 380.476C238.559 377.023 238.559 373.124 239.355 369.784C239.722 368.281 240.386 366.978 241.112 365.999C242.615 363.962 242.843 365.203 242.948 362.065C243.14 356.033 246.672 354.87 246.881 354.704L247.319 354.276C235.464 352.729 233.725 367.607 235.228 377.687C235.342 378.421 235.456 379.505 235.569 380.109C235.963 382.215 236.426 382.075 236.54 382.198Z" fill="#613D27"/>
<path fill-rule="evenodd" clip-rule="evenodd" d="M183.939 442.972C193.005 449.599 224.694 445.49 232.212 430.323C223.444 434.361 221.914 436.468 210.628 439.353C196.877 442.859 194.98 441.407 183.939 442.972Z" fill="white"/>
<path fill-rule="evenodd" clip-rule="evenodd" d="M222.553 337.649C223.042 335.027 227.641 329.231 229.083 327.64C235.141 320.996 242.222 316.529 250.955 321.302C254.898 323.461 256.524 325.743 258.675 329.886L259.068 331.154C259.155 331.495 259.322 332.238 259.365 332.413C259.645 333.47 259.899 334.179 260.135 335.324C258.194 332.273 255.012 329.318 251.366 328.112C243.551 325.533 234.477 330.227 228.768 335.446L228.165 336.014C226.041 338.174 225.866 337.649 224.572 339.424C223.593 340.753 221.993 342.186 220.778 343.165C220.533 341.644 221.827 338.541 222.553 337.649ZM261.953 337.789C263.701 332.238 255.921 316.966 241.96 318.504C227.754 320.06 216.809 341.102 218.715 344.337C220.664 347.659 226.058 340.534 229.791 337.037C234.87 332.273 243.061 326.722 250.466 329.239C258.036 331.818 256.874 338.786 261.953 337.789Z" fill="#824D14"/>
<path fill-rule="evenodd" clip-rule="evenodd" d="M49.3998 326.922C49.9156 327.892 49.6008 327.525 50.781 328.111C53.0889 324.011 53.7358 319.028 55.1957 313.73C55.8776 311.256 58.2642 304.044 59.6541 301.894C60.7207 300.241 59.252 301.177 61.1403 300.757C59.829 296.124 62.8012 287.915 63.0198 283.868C62.7051 284.541 60.8867 286.7 60.2311 287.74C55.3618 295.591 52.1972 303.966 50.5887 313.573C49.391 320.715 50.0554 324.081 49.8806 325.515C49.6795 327.123 50.0642 325.952 49.3998 326.922Z" fill="#9A4B1C"/>
<path fill-rule="evenodd" clip-rule="evenodd" d="M260.082 395.669C260.161 395.617 260.257 395.529 260.292 395.486L260.703 395.118C261.577 394.27 264.707 390.966 266.158 392.697C266.805 394.471 265.957 395.381 265.318 396.928C266.525 396.552 265.598 396.43 266.324 396.937C266.577 402.776 267.102 404.839 263.037 406.509C258.814 408.249 257.626 405.696 254.942 403.773C253.901 404.603 252.782 407.383 252.275 409.009C255.519 408.826 253.185 411.265 259.925 412.366C264.672 413.144 268.404 410.006 270.415 406.299C271.228 404.813 270.773 406.264 271.298 404.42C272.426 400.46 271.927 398.982 271.141 396.639C270.808 395.652 270.94 395.328 270.529 394.471C270.1 393.571 269.375 393.309 268.903 392.784C268.352 391.001 268.929 391.709 269.366 390.371C269.095 387.915 267.46 390.94 268.999 387.583C266.035 388.763 261.385 393.344 260.082 395.669Z" fill="#F5B699"/>
<path fill-rule="evenodd" clip-rule="evenodd" d="M144.303 410.05L137.589 405.819L136.479 405.513C131.986 404.586 131.767 405.233 130.386 400.416C123.296 375.799 140.526 344.861 155.842 359.049C168.938 371.174 170.057 404.263 151.043 412.262C148.272 413.433 146.742 414.019 144.303 410.05ZM127.824 405.329L127.973 405.128C130.36 405.443 135.989 407.183 137.851 408.564L138.638 409.351C140.151 409.569 143.936 412.515 145.335 413.8L147.319 415.968C147.861 416.161 147.459 415.951 148.088 416.502C148.158 416.563 148.656 417.061 148.858 417.253C149.985 418.285 149.907 417.874 150.554 419.308L152.538 421.056C152.118 418.748 149.216 415.968 148.237 414.176C152.232 411.737 154.758 413.284 160.388 405.784C171.526 390.966 166.324 366.698 156.043 358.009C152.258 354.818 145.929 353.778 141.156 356.558C130.867 362.537 123.497 386.683 130.779 404.237L127.457 404.42L127.824 405.329Z" fill="#9C5624"/>
<path fill-rule="evenodd" clip-rule="evenodd" d="M130.657 337.561C129.179 339.152 128.602 346.976 127.982 347.771C129.459 345.691 129.109 345.035 130.805 343.033L132.449 341.128C136.164 337.963 141.182 337.01 145.877 338.374C154.225 340.804 158.421 348.995 162.819 349.73C163.011 346.652 161.193 343.287 160.187 340.909C159.435 341.827 160.432 341.294 159.077 341.442C157.512 341.617 154.356 338.662 153.211 337.762C139.469 327 131.863 338.024 130.657 337.561Z" fill="#A35624"/>
<path fill-rule="evenodd" clip-rule="evenodd" d="M222.552 337.648C221.827 338.54 220.533 341.643 220.778 343.164C221.993 342.185 223.593 340.752 224.572 339.423C225.866 337.648 226.04 338.173 228.165 336.014L228.768 335.445C234.476 330.226 243.551 325.532 251.366 328.111C255.011 329.317 258.193 332.272 260.134 335.323C259.898 334.178 259.645 333.47 259.365 332.412C259.321 332.237 259.155 331.494 259.068 331.153L258.674 329.885C258.08 330.559 259.251 331.022 257.695 329.885C256.97 329.361 255.545 326.048 250.535 323.81C241.75 319.885 231.286 327.062 225.918 334.37C225.157 335.402 223.698 337.045 222.552 337.648Z" fill="#A35624"/>
<path fill-rule="evenodd" clip-rule="evenodd" d="M246.733 402.304C238.716 401.928 230.184 389.401 228.646 380.082C225.84 363.14 234.66 337.413 251.191 347.317C261.358 353.41 267.425 371.034 266.245 383.719C265.808 388.378 265.581 388.265 262.32 390.144C261.874 390.669 260.703 391.814 259.951 392.645C259.077 393.624 258.648 394.559 257.486 395.014C257.013 396.43 255.921 397.829 255.143 399.227C254.26 400.818 254.129 402.173 252.031 402.313C252.135 402.366 252.704 402.61 252.704 402.61C253.447 403.056 252.887 402.637 253.359 403.074C252.371 404.761 251.095 408.293 251.349 410.583L252.275 409.01C252.782 407.383 253.901 404.604 254.942 403.773C255.379 402.095 257.861 398.196 259.085 396.613L260.082 395.669C261.384 393.344 266.035 388.763 268.999 387.583L270.808 386.56C269.348 386.044 267.915 387.015 266.568 387.364C268.046 373.552 265.79 363.883 259.689 354.713C249.128 338.846 233.314 341.373 228.296 362.458C226.932 368.193 226.67 375.746 228.008 381.656C229.284 387.329 231.95 391.989 234.538 395.346C235.683 396.841 243.455 403.773 246.733 402.304Z" fill="#9C5624"/>
<path fill-rule="evenodd" clip-rule="evenodd" d="M130.657 337.561C131.863 338.024 139.469 327 153.211 337.762C154.357 338.662 157.512 341.617 159.077 341.442C160.432 341.294 159.436 341.827 160.187 340.909C157.915 336.127 152.223 329.728 146.716 327.709C142.721 326.249 139.102 327.035 136.234 329.326C134.46 330.751 131.619 334.597 130.657 337.561Z" fill="#C17B3D"/>
<path fill-rule="evenodd" clip-rule="evenodd" d="M246.55 366.357C247.45 369.259 249.994 371.978 252.835 373.123C261.498 374.059 256.358 362.607 253.902 359.906C248.656 354.136 243.289 358.166 246.55 366.357Z" fill="white"/>
<path fill-rule="evenodd" clip-rule="evenodd" d="M148.727 378.483C149.295 382.976 151.131 386.709 154.592 387.88C160.86 388.064 158.902 377.722 156.839 373.946C153.299 367.476 148.534 370.256 148.727 378.483Z" fill="white"/>
<path fill-rule="evenodd" clip-rule="evenodd" d="M150.554 419.308C149.907 417.874 149.985 418.285 148.858 417.254C148.657 417.061 148.158 416.563 148.088 416.502C147.459 415.951 147.861 416.161 147.319 415.969C145.903 417.018 147.127 416.213 146.183 417.525C144.111 420.401 139.722 420.41 137.327 418.39C136.138 417.376 134.058 413.914 135.378 412.699C134.993 412.192 135.264 412.524 134.792 411.982C134.635 411.807 134.04 411.143 134.031 411.126C133.253 409.945 133.402 410.557 133.638 408.949C135.474 408.066 136.942 408.914 138.638 409.351L137.852 408.564C135.99 407.183 130.36 405.443 127.973 405.129C129.022 406.116 126.461 405.959 129.669 405.968C130.194 409.797 129.608 408.153 129.451 408.022C134.215 408.381 129.162 410.977 132.344 418.416C133.175 420.357 135.194 421.266 135.955 422.123C137.318 423.644 136.61 423.836 139.416 423.889C141.584 423.924 144.233 424.142 146.375 422.997C147.625 422.342 146.419 422.971 148.263 421.056C148.316 421.004 148.403 420.925 148.464 420.873C148.517 420.812 148.596 420.733 148.648 420.672C149.575 419.649 149.207 419.308 150.554 419.308Z" fill="#F5B699"/>
<path fill-rule="evenodd" clip-rule="evenodd" d="M210.148 459.284C217.797 459.284 222.64 456.732 228.2 452.675C221.547 449.083 205.829 453.454 202.289 458.603L210.148 459.284Z" fill="#D55B52"/>
<path fill-rule="evenodd" clip-rule="evenodd" d="M222.552 337.648C223.698 337.045 225.158 335.402 225.918 334.37C231.286 327.062 241.75 319.885 250.536 323.81C255.545 326.048 256.97 329.361 257.695 329.885C259.251 331.022 258.08 330.559 258.674 329.885C256.524 325.742 254.898 323.46 250.955 321.301C242.222 316.528 235.141 320.995 229.083 327.639C227.64 329.23 223.042 335.026 222.552 337.648Z" fill="#C17B3D"/>
<path fill-rule="evenodd" clip-rule="evenodd" d="M83.5897 400.784C83.9831 399.245 80.7836 391.972 84.1842 386.963C87.104 382.653 91.1865 383.265 94.4298 386.928C97.1311 389.987 100.016 392.496 98.4948 399.175C97.166 404.997 94.2899 405.906 88.7125 404.237C91.3002 409.263 99.6225 407.209 100.007 401.684C100.838 399.595 99.0456 390.267 98.556 387.907C89.508 374.951 76.6311 383.238 83.5897 400.784Z" fill="#9A4B1C"/>
<path fill-rule="evenodd" clip-rule="evenodd" d="M207.385 416.082L208.679 414.989C209.807 413.608 211.398 411.423 209.798 409.989C207.551 408.442 202 412.367 197.944 412.603C195.671 412.734 193.398 412.288 191.588 411.353C190.688 410.889 190.181 410.522 189.412 409.674L187.584 407.419C187.882 412.279 190.985 415.147 194.858 416.327C200.671 418.093 204.509 415.846 206.013 415.706C207.167 415.592 205.575 415.523 206.843 415.794L207.385 416.082Z" fill="#F2A881"/>
<path fill-rule="evenodd" clip-rule="evenodd" d="M328.401 387.802C324.038 385.861 322.071 385.704 322.106 376.096C326.355 382.329 330.979 381.001 332.544 376.026C330.927 377.032 330.7 378.203 328.549 378.343C325.778 378.518 320.489 374.331 323.523 365.86C325.516 360.291 332.85 357.188 335.176 371.218C335.149 366.069 334.144 361.908 330.752 360.081C322.797 355.789 319.003 369.505 320.795 380.109C321.591 384.812 323.514 388.265 328.401 387.802Z" fill="#9A4B1C"/>
<path fill-rule="evenodd" clip-rule="evenodd" d="M192.856 399.612C191.781 399.734 191.816 399.717 190.811 400.547C189.867 401.317 189.84 401.317 189.613 402.269C189.097 403.974 188.45 404.516 188.844 406.597C192.533 408.555 203.88 403.249 204.553 399.804C201.974 396.841 195.697 399.42 192.856 399.612Z" fill="#FCE9DA"/>
<path fill-rule="evenodd" clip-rule="evenodd" d="M207.385 416.082L206.843 415.793C205.575 415.522 207.166 415.592 206.013 415.706C204.509 415.846 200.671 418.092 194.858 416.326C190.985 415.146 187.882 412.279 187.584 407.418C187.637 406.011 187.794 404.63 188.572 403.406C189.403 402.095 188.118 403.895 188.931 402.925C189.359 402.4 189.097 402.698 189.613 402.269C189.84 401.316 189.866 401.316 190.81 400.547C191.816 399.717 191.781 399.734 192.856 399.612C194.368 397.697 197.734 398.257 199.526 397.348L194.097 397.321C194.359 395.94 194.158 396.543 194.744 395.739C194.613 394.638 194.333 390.074 194.359 389.218C194.281 389.148 194.167 388.912 194.141 388.982C193.94 389.401 193.389 386.499 190.434 385.528C192.279 390.424 193.581 390.608 193.153 397.828C186.465 399.708 182.934 408.467 188.319 414.569C190.155 416.659 193.442 418.398 197.209 418.529C202.271 418.713 204.36 416.431 207.385 416.082Z" fill="#9C5624"/>
<path fill-rule="evenodd" clip-rule="evenodd" d="M254.942 403.773C257.625 405.696 258.814 408.249 263.037 406.509C267.102 404.84 266.577 402.777 266.324 396.937C265.598 396.43 266.525 396.552 265.318 396.928C264.121 397.26 263.255 399.105 261.35 399.542C258.246 400.25 259.627 397.374 260.082 395.669L259.085 396.614C257.862 398.196 255.379 402.095 254.942 403.773Z" fill="#F4AB96"/>
<path fill-rule="evenodd" clip-rule="evenodd" d="M135.377 412.698C134.057 413.914 136.138 417.375 137.327 418.389C139.722 420.409 144.111 420.4 146.182 417.524C147.126 416.213 145.903 417.017 147.319 415.968L145.334 413.8C143.936 412.515 140.15 409.569 138.638 409.35C139.32 410.032 141.514 411.483 140.378 412.716C139.11 414.447 136.942 412.865 135.377 412.698Z" fill="#F4AB96"/>
<path fill-rule="evenodd" clip-rule="evenodd" d="M236.54 382.198C236.933 384.567 238.909 387.504 239.014 388.693C240.273 389.384 239.608 389.017 240.622 389.865C242.056 391.054 242.773 391.648 244.958 391.666C244.18 390.416 242.939 390.075 241.313 387.802C239.092 384.698 238.096 381.228 237.72 377.154C237.493 374.732 237.991 371.55 237.169 370.125C235.456 371.734 235.779 378.011 236.54 382.198Z" fill="#AA7746"/>
<path fill-rule="evenodd" clip-rule="evenodd" d="M260.082 395.669C259.627 397.374 258.246 400.25 261.349 399.542C263.255 399.104 264.121 397.26 265.318 396.928C265.956 395.38 266.804 394.471 266.157 392.697C264.706 390.966 261.577 394.27 260.702 395.118L260.292 395.485C260.257 395.529 260.16 395.616 260.082 395.669Z" fill="white"/>
<path fill-rule="evenodd" clip-rule="evenodd" d="M135.378 412.699C136.942 412.865 139.11 414.447 140.378 412.717C141.514 411.484 139.32 410.033 138.638 409.351C136.942 408.914 135.474 408.066 133.638 408.949C133.402 410.557 133.253 409.945 134.031 411.125C134.04 411.143 134.635 411.807 134.792 411.982C135.264 412.524 134.993 412.192 135.378 412.699Z" fill="white"/>
<path fill-rule="evenodd" clip-rule="evenodd" d="M269.366 390.372C268.929 391.709 268.352 391.001 268.903 392.785C272.33 392.758 273.038 389.699 269.366 390.372Z" fill="#FDFBFA"/>
</svg>
