<?xml version="1.0" standalone="no"?>
<!DOCTYPE svg PUBLIC "-//W3C//DTD SVG 20010904//EN"
 "http://www.w3.org/TR/2001/REC-SVG-20010904/DTD/svg10.dtd">
<svg version="1.0" xmlns="http://www.w3.org/2000/svg"
 width="700.000000pt" height="700.000000pt" viewBox="0 0 700.000000 700.000000"
 preserveAspectRatio="xMidYMid meet">
<metadata>
Created by potrace 1.14, written by Peter Selinger 2001-2017
</metadata>
<g transform="translate(0.000000,700.000000) scale(0.100000,-0.100000)"
fill="#000000" stroke="none">
<path d="M3166 6823 c-1 -1 -40 -4 -86 -7 -47 -3 -96 -8 -110 -10 -14 -3 -47
-8 -75 -11 -170 -19 -453 -89 -660 -162 -95 -33 -114 -41 -195 -76 -233 -100
-366 -172 -568 -304 -236 -155 -447 -334 -622 -529 -45 -51 -56 -64 -121 -144
-55 -70 -149 -207 -149 -218 0 -6 -4 -12 -8 -14 -5 -1 -26 -32 -47 -68 -21
-36 -44 -72 -50 -80 -6 -8 -20 -35 -30 -60 -10 -25 -25 -52 -32 -61 -7 -8 -13
-20 -13 -25 0 -6 -20 -46 -44 -90 -91 -163 -154 -291 -179 -360 -34 -95 -93
-320 -107 -414 -7 -41 -14 -84 -16 -95 -8 -41 -5 -181 4 -205 15 -40 38 -55
65 -43 25 12 35 29 72 128 63 168 133 307 187 370 10 11 -3 -26 -57 -165 -64
-167 -94 -275 -110 -405 -4 -27 -9 -61 -11 -75 -13 -67 -12 -270 2 -334 16
-78 41 -135 61 -143 38 -15 81 65 112 208 21 98 38 155 46 148 2 -2 6 -47 9
-99 3 -52 8 -108 11 -125 3 -16 8 -46 11 -65 16 -96 62 -203 133 -310 33 -51
199 -226 266 -280 58 -47 150 -125 175 -147 14 -13 29 -23 34 -23 4 0 3 -7 -4
-15 -7 -8 -18 -15 -25 -15 -30 0 -137 -65 -170 -103 -49 -55 -94 -145 -111
-222 -41 -177 -30 -334 32 -491 59 -150 198 -342 309 -426 93 -70 213 -100
291 -71 77 28 72 30 96 -28 51 -127 120 -247 208 -364 19 -26 167 -174 201
-201 144 -117 350 -216 589 -283 88 -25 85 -24 215 -50 102 -20 131 -25 220
-36 28 -3 66 -9 85 -12 57 -8 459 -11 535 -3 39 5 101 11 140 15 38 4 72 8 75
10 4 2 24 6 46 9 75 9 119 17 149 26 17 5 41 11 55 14 90 15 308 84 438 138
72 29 289 136 357 176 53 30 110 66 115 72 3 3 25 18 50 34 117 76 281 226
382 351 27 33 53 66 59 73 5 7 36 52 68 100 110 165 220 394 256 532 9 36 18
66 20 68 1 2 32 -11 69 -27 55 -26 137 -48 156 -44 3 1 19 3 36 6 53 8 117 47
176 107 81 83 134 188 173 345 30 121 28 298 -5 395 -59 177 -178 267 -334
253 -29 -3 -46 0 -46 6 0 18 76 125 136 189 51 56 191 170 286 232 21 14 38
28 38 33 0 4 4 7 10 7 28 0 177 153 212 218 27 50 33 69 47 149 15 86 0 189
-46 312 -13 35 -22 68 -21 72 4 11 53 -64 99 -149 34 -65 62 -91 74 -72 12 19
6 145 -10 212 -18 78 -83 268 -97 286 -6 6 -7 12 -4 12 18 0 69 -68 117 -155
64 -116 81 -129 106 -83 14 27 18 57 18 158 0 112 -9 239 -20 295 -2 11 -7 41
-10 67 -35 296 -166 626 -367 926 -99 147 -309 367 -498 521 -36 29 -74 60
-85 69 -150 123 -489 292 -635 317 -19 3 -51 10 -70 15 -37 10 -150 22 -211
24 -44 0 -43 10 10 75 94 116 103 147 39 136 -16 -3 -43 -7 -60 -10 -40 -6
-186 -77 -219 -107 -13 -12 -47 -43 -75 -71 l-52 -49 -43 73 c-54 94 -137 181
-202 214 -53 26 -111 33 -122 14 -4 -5 23 -68 59 -139 36 -71 66 -132 66 -134
0 -9 -34 7 -90 44 -115 76 -272 141 -450 186 -63 16 -163 36 -200 40 -25 3
-58 7 -75 10 -95 12 -450 26 -459 17z m-1276 -5179 c0 -8 -19 -13 -24 -6 -3 5
1 9 9 9 8 0 15 -2 15 -3z"/>
</g>
</svg>
