<?xml version="1.0" encoding="UTF-8" standalone="no"?>
<!DOCTYPE svg PUBLIC "-//W3C//DTD SVG 1.1//EN" "http://www.w3.org/Graphics/SVG/1.1/DTD/svg11.dtd">
<svg width="115px" height="100px" version="1.1" xmlns="http://www.w3.org/2000/svg" xmlns:xlink="http://www.w3.org/1999/xlink" xml:space="preserve" xmlns:serif="http://www.serif.com/" style="fill-rule:evenodd;clip-rule:evenodd;stroke-linejoin:round;stroke-miterlimit:2;">
    <g>
        <rect x="-339" y="-547" width="1000" height="1000" style="fill:#fff;fill-rule:nonzero;"/>
        <path d="M87.957,58.533C92.72,51.08 106.943,52.943 110.754,63.191C115.121,74.938 102.049,87.508 86.86,95.885C69.715,87.5 60.728,74.938 65.095,63.191C68.905,52.943 83.194,51.08 87.957,58.533Z" style="fill:#fe8b54;fill-rule:nonzero;"/>
        <path d="M75.122,49.708C74.622,49.708 74.112,49.734 73.594,49.789C69.141,50.258 63.572,52.989 61.297,59.249C56.961,71.17 66.348,85.026 85.236,94.683C104.28,84.952 113.783,71.096 109.476,59.249C107.204,53.003 101.56,50.269 97.035,49.792C92.436,49.309 88.502,50.924 86.509,54.113C86.234,54.552 85.754,54.818 85.236,54.818C84.719,54.818 84.238,54.552 83.964,54.113C82.205,51.298 78.966,49.708 75.122,49.708ZM85.236,97.863C85.007,97.863 84.776,97.811 84.565,97.705C63.775,87.31 53.535,71.813 58.478,58.224C61.226,50.665 67.926,47.369 73.279,46.806C78.059,46.307 82.455,47.831 85.238,50.856C88.038,47.825 92.5,46.296 97.349,46.809C102.775,47.38 109.551,50.679 112.295,58.224C117.208,71.735 106.851,87.232 85.907,97.705C85.696,97.811 85.466,97.863 85.236,97.863Z" style="fill:#1c2947;fill-rule:nonzero;"/>
        <path d="M50,23.204L50,88.327C50,88.327 49.316,93.913 43.571,95.827C40.357,96.899 31.306,95.984 27.5,89.399C17.856,88.327 13.66,83.104 12.407,76.838C10.776,75.207 4.101,69.63 2.856,64.756C1.232,58.393 5.644,52.274 9.901,48.017C5.042,41.361 8.706,32.686 17.478,28.927C16.225,21.408 21.215,17.069 27.043,16.491C30.802,7.72 37.824,8.606 41.391,9.796C47.13,11.709 50,23.204 50,23.204Z" style="fill:#8bd9f2;fill-rule:nonzero;"/>
        <path d="M49.5,89C48.672,89 48,88.328 48,87.5L48,13.5C48,12.672 48.672,12 49.5,12C50.328,12 51,12.672 51,13.5L51,87.5C51,88.328 50.328,89 49.5,89Z" style="fill:#1c2947;fill-rule:nonzero;"/>
        <path d="M38.905,97.863C33.201,97.863 27.978,93.272 26.234,90.446C21.589,90.643 17.19,87.756 14.498,84.857C11.806,81.961 10.369,78.676 10.497,75.828C4.743,72.901 1.344,67.367 1.344,60.815C1.344,55.967 3.611,51.402 7.626,48.052C4.865,45.238 3.206,41.362 3.206,37.546C3.206,32.178 6.095,27.245 10.639,24.722C11.019,15.937 16.789,10.964 22.796,10.294C24.901,4.562 30.135,0.779 36.12,0.779C44.464,0.779 51,6.806 51,14.5C51,15.328 50.328,16 49.5,16C48.672,16 48,15.328 48,14.5C48,8.488 42.781,3.779 36.12,3.779C31.137,3.779 26.806,7.14 25.345,12.141C25.162,12.766 24.597,13.202 23.944,13.219C17.865,13.38 13.619,18.49 13.619,25.648C13.619,26.23 13.283,26.759 12.757,27.007C8.777,28.874 6.206,33.011 6.206,37.546C6.206,41.026 8.05,44.726 10.903,46.97C11.278,47.264 11.49,47.719 11.476,48.195C11.461,48.672 11.221,49.112 10.828,49.383C8.406,51.054 4.344,54.762 4.344,60.815C4.344,66.516 7.474,71.279 12.717,73.559C13.374,73.845 13.737,74.555 13.585,75.255C13.125,77.358 14.316,80.256 16.695,82.815C19.696,86.045 23.708,87.842 26.908,87.378C27.335,87.318 27.773,87.445 28.103,87.73C28.374,87.965 28.55,88.287 28.603,88.637C29.121,89.807 33.684,94.863 38.905,94.863C43.055,94.863 48,93.586 48,87.5C48,86.672 48.672,86 49.5,86C50.328,86 51,86.672 51,87.5C51,93.989 46.479,97.863 38.905,97.863Z" style="fill:#1c2947;fill-rule:nonzero;"/>
        <path d="M94.032,43.476C93.858,43.476 93.683,43.445 93.51,43.382C92.733,43.094 92.338,42.23 92.626,41.453C93.108,40.153 93.354,38.839 93.354,37.546C93.354,33.011 90.782,28.874 86.802,27.007C86.275,26.759 85.939,26.23 85.939,25.648C85.939,18.49 81.693,13.38 75.614,13.219C74.962,13.202 74.396,12.766 74.214,12.14C72.753,7.14 68.424,3.779 63.439,3.779C57.457,3.779 51,7.878 51,14.5C51,15.328 50.328,16 49.5,16C48.672,16 48,15.328 48,14.5C48,6.935 54.926,0.779 63.439,0.779C69.426,0.779 74.658,4.561 76.763,10.294C82.77,10.964 88.54,15.937 88.92,24.722C93.465,27.245 96.354,32.178 96.354,37.546C96.354,39.196 96.046,40.862 95.438,42.498C95.214,43.103 94.641,43.476 94.032,43.476Z" style="fill:#1c2947;fill-rule:nonzero;"/>
        <path d="M38.5,28C35.368,28 32.054,26.629 29.636,24.332C29.035,23.761 29.011,22.812 29.581,22.211C30.151,21.608 31.102,21.586 31.702,22.156C33.576,23.938 36.118,25 38.5,25C43.527,25 48,18.01 48,12.5C48,11.672 48.672,11 49.5,11C50.328,11 51,11.672 51,12.5C51,19.521 45.424,28 38.5,28Z" style="fill:#1c2947;fill-rule:nonzero;"/>
        <path d="M27.118,90.363C26.353,90.363 25.698,89.779 25.627,89.001C25.332,85.815 26.492,82.659 28.81,80.342C29.396,79.756 30.345,79.756 30.931,80.342C31.517,80.928 31.517,81.877 30.931,82.463C29.246,84.147 28.401,86.431 28.613,88.726C28.69,89.55 28.083,90.28 27.258,90.356C27.211,90.361 27.165,90.363 27.118,90.363Z" style="fill:#1c2947;fill-rule:nonzero;"/>
        <path d="M49.5,79C48.672,79 48,78.328 48,77.5C48,74.215 44.145,71.399 40.988,71.399C39.027,71.399 37.2,72.371 36.101,73.999C35.637,74.685 34.705,74.865 34.018,74.402C33.331,73.938 33.15,73.006 33.614,72.319C35.273,69.865 38.03,68.399 40.988,68.399C45.618,68.399 51,72.375 51,77.5C51,78.328 50.328,79 49.5,79Z" style="fill:#1c2947;fill-rule:nonzero;"/>
        <path d="M57.417,38.935C51.784,38.935 48,35.947 48,31.5C48,30.672 48.672,30 49.5,30C50.328,30 51,30.672 51,31.5C51,35.721 56.346,35.935 57.417,35.935C59.378,35.935 61.205,34.962 62.306,33.334C62.77,32.647 63.702,32.468 64.389,32.931C65.075,33.395 65.256,34.327 64.792,35.014C63.133,37.469 60.376,38.935 57.417,38.935Z" style="fill:#1c2947;fill-rule:nonzero;"/>
        <path d="M24.017,50.036C23.729,50.036 23.437,49.953 23.18,49.78C19.742,47.467 14.607,47.337 10.693,49.466C9.968,49.863 9.057,49.594 8.659,48.865C8.263,48.138 8.532,47.227 9.26,46.831C14.188,44.146 20.455,44.331 24.855,47.292C25.542,47.754 25.725,48.687 25.262,49.374C24.973,49.804 24.499,50.036 24.017,50.036Z" style="fill:#1c2947;fill-rule:nonzero;"/>
        <path d="M16.27,77.254C14.828,77.254 13.32,76.969 11.753,76.397L11.614,76.347C10.834,76.068 10.428,75.21 10.707,74.43C10.985,73.648 11.841,73.241 12.624,73.522L12.78,73.579C14.043,74.039 17.396,75.262 20.863,72.663C21.525,72.168 22.466,72.301 22.963,72.964C23.46,73.626 23.325,74.566 22.662,75.063C20.716,76.522 18.577,77.254 16.27,77.254Z" style="fill:#1c2947;fill-rule:nonzero;"/>
        <path d="M35.473,59.611C34.912,59.611 34.375,59.297 34.118,58.757C33.833,58.159 31.416,52.773 34.287,47.718C36.937,43.052 42.71,40.834 48.322,42.336C49.123,42.549 49.6,43.371 49.386,44.171C49.172,44.972 48.349,45.452 47.551,45.234C43.315,44.105 38.84,45.775 36.896,49.2C34.776,52.933 36.609,57.013 36.825,57.466C37.183,58.213 36.865,59.108 36.117,59.465C35.909,59.564 35.689,59.611 35.473,59.611Z" style="fill:#1c2947;fill-rule:nonzero;"/>
        <path d="M21.502,35C21.425,35 21.348,34.994 21.27,34.982C20.451,34.854 19.891,34.088 20.018,33.27C20.021,33.248 20.345,30.467 18.439,28.561C17.172,27.292 15.073,26.198 12.991,26.917C12.206,27.186 11.354,26.773 11.083,25.991C10.812,25.208 11.227,24.354 12.009,24.083C14.849,23.096 18.126,24.003 20.561,26.439C23.603,29.482 22.988,33.688 22.982,33.73C22.867,34.471 22.229,35 21.502,35Z" style="fill:#1c2947;fill-rule:nonzero;"/>
        <path d="M66.228,22.862C65.399,22.862 64.728,22.19 64.728,21.362C64.728,20.534 65.399,19.862 66.228,19.862C70.295,19.862 74,15.877 74,11.5C74,10.672 74.672,10 75.5,10C76.328,10 77,10.672 77,11.5C77,17.553 71.966,22.862 66.228,22.862Z" style="fill:#1c2947;fill-rule:nonzero;"/>
    </g>
</svg>
