<?xml version="1.0" encoding="UTF-8" standalone="no"?>
<!DOCTYPE svg PUBLIC "-//W3C//DTD SVG 1.1//EN" "http://www.w3.org/Graphics/SVG/1.1/DTD/svg11.dtd">
<svg width="106px" height="118px" version="1.1" xmlns="http://www.w3.org/2000/svg" xmlns:xlink="http://www.w3.org/1999/xlink" xml:space="preserve" xmlns:serif="http://www.serif.com/" style="fill-rule:evenodd;clip-rule:evenodd;stroke-linejoin:round;stroke-miterlimit:2;">
    <g>
        <rect x="-551" y="-538" width="1000" height="1000" style="fill:#fff;fill-rule:nonzero;"/>
        <path d="M93.5,45C95.79,45 97.837,46.166 99.213,48L104,48L104,20L84.271,20C84.712,29.858 82.985,41.034 78.83,52.259C74.336,64.4 67.723,74.651 60.284,82L79,82L79,86.787C77.166,88.163 76,90.21 76,92.5C76,96.643 79.806,100 84.5,100C89.194,100 93,96.643 93,92.5C93,90.21 91.834,88.163 90,86.787L90,82L104,82L104,59L99.213,59C97.837,60.834 95.79,62 93.5,62C89.357,62 86,58.194 86,53.5C86,48.806 89.357,45 93.5,45Z" style="fill:#8bd9f2;fill-rule:nonzero;"/>
        <path d="M70.058,35L60.419,35C60.459,35.516 60.485,36.034 60.502,36.556C60.524,36.774 60.537,36.997 60.531,37.224C60.531,37.244 60.524,37.264 60.523,37.285C60.524,37.395 60.533,37.502 60.533,37.611C60.533,47.31 60.693,56.054 54.117,62.238C50.123,65.995 48,71.335 48,76.819L48,82L54.267,82C54.267,76.47 56.51,71.17 60.505,67.346C66.958,61.169 70.978,52.472 70.978,42.833C70.978,40.136 70.652,37.516 70.058,35Z" style="fill:#fe8b54;fill-rule:nonzero;"/>
        <path d="M23,95.23L23,102.464L48,96.677L48,90.427L23,95.23Z" style="fill:#8bd9f2;fill-rule:nonzero;"/>
        <path d="M40.5,82C39.672,82 39,81.328 39,80.5L39,61L33,61L33,80.5C33,81.328 32.328,82 31.5,82C30.672,82 30,81.328 30,80.5L30,59.5C30,58.672 30.672,58 31.5,58L40.5,58C41.328,58 42,58.672 42,59.5L42,80.5C42,81.328 41.328,82 40.5,82Z" style="fill:#1c2947;fill-rule:nonzero;"/>
        <path d="M42,58L46.9,58C49.161,58 51,56.161 51,53.9L51,53.101C51,51.863 50.395,50.704 49.339,49.92C48.114,49.011 46.512,48.762 44.937,49.236C43.208,49.76 42,51.453 42,53.354L42,58ZM46.9,61L40.5,61C39.672,61 39,60.328 39,59.5L39,53.354C39,50.142 41.084,47.269 44.068,46.365C46.562,45.613 49.132,46.031 51.127,47.511C52.953,48.867 54,50.904 54,53.101L54,53.9C54,57.815 50.815,61 46.9,61Z" style="fill:#1c2947;fill-rule:nonzero;"/>
        <path d="M25.503,49.001C24.987,49.001 24.461,49.078 23.937,49.236C22.208,49.76 21,51.453 21,53.354L21,53.9C21,56.161 22.839,58 25.1,58L30,58L30,53.101C30,51.863 29.395,50.704 28.339,49.92C27.521,49.313 26.536,49.001 25.503,49.001ZM31.5,61L25.1,61C21.185,61 18,57.815 18,53.9L18,53.354C18,50.142 20.084,47.269 23.068,46.365C25.561,45.613 28.132,46.031 30.127,47.511C31.953,48.867 33,50.904 33,53.101L33,59.5C33,60.328 32.328,61 31.5,61Z" style="fill:#1c2947;fill-rule:nonzero;"/>
        <path d="M22.4,96.082C20.962,96.082 19.51,95.607 18.497,94.77C17.533,93.97 17.016,92.905 17,91.691L17,81.5C17,80.672 17.672,80 18.5,80C19.328,80 20,80.672 20,81.5L20,91.673C20.003,91.872 20.052,92.161 20.411,92.459C20.992,92.941 22.098,93.188 22.969,93.033L50.353,88.313C50.85,88.186 52,87.789 52,84.571L52,81.5C52,80.672 52.672,80 53.5,80C54.328,80 55,80.672 55,81.5L55,84.571C55,89.267 52.837,90.788 51.022,91.237C50.988,91.246 50.952,91.253 50.917,91.26L23.484,95.989C23.129,96.052 22.766,96.082 22.4,96.082Z" style="fill:#1c2947;fill-rule:nonzero;"/>
        <path d="M24.025,103.376C23.253,103.376 22.509,103.189 21.871,102.827C20.878,102.265 20.222,101.333 20.022,100.204C20.008,100.118 20,100.031 20,99.944L20,95.5C20,94.672 20.672,94 21.5,94C22.328,94 23,94.672 23,95.5L23,99.783C23.056,99.975 23.169,100.114 23.351,100.218C23.611,100.366 23.978,100.412 24.355,100.347L45.349,96.632C47,96.08 47,96.017 47,94.381L47,90.5C47,89.672 47.672,89 48.5,89C49.328,89 50,89.672 50,90.5L50,94.381C50,96.715 49.735,98.333 46.193,99.513C46.123,99.536 46.053,99.554 45.98,99.566L24.877,103.302C24.592,103.352 24.307,103.376 24.025,103.376Z" style="fill:#1c2947;fill-rule:nonzero;"/>
        <path d="M26.349,110.766C25.179,110.766 24.152,110.432 23.404,109.804C22.764,109.266 22,108.242 22,106.421L22,102.5C22,101.672 22.672,101 23.5,101C24.328,101 25,101.672 25,102.5L25,106.421C25,106.955 25.112,107.32 25.334,107.506C25.629,107.754 26.257,107.834 26.939,107.718L43.397,104.032C44.523,103.828 45,102.765 45,101.797L45,99.5C45,98.672 45.672,98 46.5,98C47.328,98 48,98.672 48,99.5L48,101.797C48,104.418 46.352,106.546 43.992,106.973L27.527,110.659C27.122,110.73 26.728,110.766 26.349,110.766Z" style="fill:#1c2947;fill-rule:nonzero;"/>
        <path d="M35.988,115.623C35.815,115.623 35.642,115.616 35.468,115.601C32.401,115.334 30,112.605 30,109.391L30,108.5C30,107.672 30.672,107 31.5,107C32.328,107 33,107.672 33,108.5L33,109.391C33,111.063 34.198,112.479 35.728,112.612C36.585,112.684 37.398,112.411 38.026,111.836C38.654,111.26 39,110.475 39,109.624L39,106.5C39,105.672 39.672,105 40.5,105C41.328,105 42,105.672 42,106.5L42,109.624C42,111.301 41.291,112.913 40.054,114.047C38.946,115.063 37.487,115.623 35.988,115.623Z" style="fill:#1c2947;fill-rule:nonzero;"/>
        <path d="M20.191,80L51.763,80C52.138,74.615 54.514,69.493 58.412,65.762C64.867,59.584 68.422,51.263 68.422,42.333C68.422,40.223 68.211,38.098 67.794,36L37.5,36C36.672,36 36,35.328 36,34.5L36,9.965C35.158,9.944 34.211,9.931 33.672,9.968C17.676,11.072 4.755,23.966 3.617,39.96C2.931,49.63 6.528,59.015 13.487,65.708C17.417,69.488 19.813,74.629 20.191,80ZM53.211,83L18.744,83C17.916,83 17.244,82.328 17.244,81.5C17.244,76.406 15.117,71.438 11.407,67.87C3.805,60.558 -0.125,50.308 0.625,39.747C1.868,22.271 15.986,8.182 33.466,6.976C34.281,6.919 35.601,6.953 36.661,6.98L37.522,7C38.342,7.013 39,7.681 39,8.5L39,33L69.003,33C69.698,33 70.303,33.479 70.463,34.155C71.1,36.852 71.422,39.603 71.422,42.333C71.422,52.089 67.538,61.18 60.486,67.93C56.816,71.442 54.711,76.389 54.711,81.5C54.711,82.328 54.039,83 53.211,83Z" style="fill:#1c2947;fill-rule:nonzero;"/>
        <path d="M84,101C78.486,101 74,96.963 74,92C74,89.566 75.084,87.264 77,85.575L77,83L60.5,83C59.672,83 59,82.328 59,81.5C59,80.672 59.672,80 60.5,80L78.5,80C79.328,80 80,80.672 80,81.5L80,86.287C80,86.759 79.777,87.204 79.4,87.487C77.875,88.632 77,90.276 77,92C77,95.309 80.141,98 84,98C87.859,98 91,95.309 91,92C91,90.276 90.125,88.632 88.6,87.487C88.223,87.204 88,86.759 88,86.287L88,81.5C88,80.672 88.672,80 89.5,80L102,80L102,60L99.425,60C97.736,61.916 95.434,63 93,63C88.037,63 84,58.514 84,53C84,47.486 88.037,43 93,43C95.434,43 97.736,44.084 99.425,46L102,46L102,21L82.5,21C81.672,21 81,20.328 81,19.5L81,14.713C81,14.241 81.223,13.796 81.6,13.513C83.125,12.368 84,10.724 84,9C84,5.691 80.859,3 77,3C73.141,3 70,5.691 70,9C70,10.724 70.875,12.368 72.4,13.513C72.777,13.796 73,14.241 73,14.713L73,19.5C73,20.328 72.328,21 71.5,21L43.5,21C42.672,21 42,20.328 42,19.5C42,18.672 42.672,18 43.5,18L70,18L70,15.425C68.084,13.736 67,11.434 67,9C67,4.037 71.486,0 77,0C82.514,0 87,4.037 87,9C87,11.434 85.916,13.736 84,15.425L84,18L103.5,18C104.328,18 105,18.672 105,19.5L105,47.5C105,48.328 104.328,49 103.5,49L98.713,49C98.241,49 97.796,48.777 97.513,48.4C96.368,46.875 94.724,46 93,46C89.691,46 87,49.141 87,53C87,56.859 89.691,60 93,60C94.724,60 96.368,59.125 97.513,57.6C97.796,57.223 98.241,57 98.713,57L103.5,57C104.328,57 105,57.672 105,58.5L105,81.5C105,82.328 104.328,83 103.5,83L91,83L91,85.575C92.916,87.264 94,89.566 94,92C94,96.963 89.514,101 84,101Z" style="fill:#1c2947;fill-rule:nonzero;"/>
    </g>
</svg>
