<?xml version="1.0" encoding="UTF-8" standalone="no"?>
<!DOCTYPE svg PUBLIC "-//W3C//DTD SVG 1.1//EN" "http://www.w3.org/Graphics/SVG/1.1/DTD/svg11.dtd">
<svg width="127px" height="115px" version="1.1" xmlns="http://www.w3.org/2000/svg" xmlns:xlink="http://www.w3.org/1999/xlink" xml:space="preserve" xmlns:serif="http://www.serif.com/" style="fill-rule:evenodd;clip-rule:evenodd;stroke-linejoin:round;stroke-miterlimit:2;">
    <g>
        <rect x="-541" y="-314" width="1000" height="1000" style="fill:#fff;fill-rule:nonzero;"/>
        <path d="M51.054,84.582L51.408,84.569C52.506,84.531 53.303,85.178 53.798,86.509L53.82,87.145C53.586,88.676 52.746,89.467 51.3,89.517C49.729,89.234 48.923,88.464 48.879,87.204C48.83,85.808 49.555,84.934 51.054,84.582ZM50.491,59.661C52.897,59.577 55.109,60.556 57.128,62.595C58.547,64.269 59.292,66.115 59.362,68.135C59.45,70.666 58.388,72.962 56.175,75.024C54.193,76.204 53.239,77.848 53.312,79.955C53.17,81.245 52.519,81.911 51.359,81.951C50.116,81.72 49.478,81.155 49.447,80.258L49.428,79.696C49.318,76.542 50.855,73.904 54.04,71.784C55.039,70.726 55.514,69.485 55.465,68.064C55.402,66.281 54.405,64.887 52.473,63.88C51.616,63.648 50.932,63.541 50.421,63.559C48.562,63.623 47.144,64.658 46.166,66.665L45.746,69.151C45.211,69.895 44.631,70.276 44.008,70.298C42.714,70.068 42.05,69.455 42.015,68.457C41.92,65.727 43.178,63.305 45.788,61.191C47.39,60.225 48.957,59.715 50.491,59.661Z" style="fill:#252d32;fill-rule:nonzero;"/>
        <path d="M71,26C66,11 52.319,2.766 37.191,2.279C18.33,1.674 2.653,13.229 2.176,28.089C1.917,36.119 6.155,43.466 13.077,48.623C12.166,55.465 9.39,61.471 5.117,65.478C5.117,65.478 7.98,65.052 11.929,63.47L20.625,60.417C32.063,49.212 43.88,45.563 56,48C57.536,37.504 63.001,30.596 71,26Z" style="fill:#fe8b54;fill-rule:nonzero;"/>
        <path d="M56,46C60,31 73.751,22.259 89.831,22.259C108.702,22.259 124,34.312 124,49.179C124,57.213 119.527,64.42 112.444,69.353C113.136,76.22 115.717,82.313 119.858,86.454C119.858,86.454 108.469,84.383 100.079,74.866C97.397,75.529 90,77 86,76C86,62 75,51 56,46Z" style="fill:#8bd9f2;fill-rule:nonzero;"/>
        <path d="M50.893,48.489C32.571,48.489 17.665,60.091 17.665,74.352C17.665,81.688 21.712,88.713 28.768,93.624C29.214,93.936 29.457,94.464 29.402,95.006C28.852,100.467 27.168,105.435 24.56,109.428C28.548,107.938 34.497,104.975 39.352,99.468C39.722,99.048 40.298,98.873 40.838,99.004C44.08,99.806 47.464,100.213 50.893,100.213C69.216,100.213 84.122,88.611 84.122,74.352C84.122,60.091 69.216,48.489 50.893,48.489ZM20.374,113.737C19.823,113.737 19.308,113.434 19.045,112.934C18.741,112.353 18.85,111.641 19.313,111.177C23.051,107.439 25.522,101.919 26.32,95.563C18.901,90.107 14.665,82.422 14.665,74.352C14.665,58.437 30.917,45.489 50.893,45.489C70.87,45.489 87.122,58.437 87.122,74.352C87.122,90.266 70.87,103.213 50.893,103.213C47.529,103.213 44.204,102.847 40.995,102.124C32.302,111.502 21.125,113.625 20.643,113.713C20.553,113.729 20.463,113.737 20.374,113.737Z" style="fill:#1c2947;fill-rule:nonzero;"/>
        <path d="M119.858,87.954C119.769,87.954 119.68,87.946 119.59,87.93C119.115,87.844 108.119,85.754 99.561,76.529C97.01,77.104 94.374,77.45 91.715,77.562C90.905,77.592 90.188,76.953 90.153,76.125C90.119,75.298 90.762,74.599 91.59,74.563C94.355,74.448 97.091,74.06 99.719,73.41C100.262,73.275 100.834,73.454 101.204,73.874C105.949,79.257 111.759,82.168 115.68,83.642C113.134,79.72 111.49,74.852 110.952,69.503C110.897,68.961 111.141,68.433 111.587,68.122C118.522,63.292 122.5,56.388 122.5,49.179C122.5,35.162 107.845,23.759 89.831,23.759C74.665,23.759 61.602,31.77 58.062,43.24C57.817,44.031 56.98,44.472 56.186,44.231C55.395,43.987 54.951,43.147 55.195,42.355C59.119,29.64 73.361,20.759 89.831,20.759C109.499,20.759 125.5,33.508 125.5,49.179C125.5,57.121 121.333,64.687 114.034,70.06C114.82,76.302 117.248,81.723 120.919,85.394C121.383,85.857 121.491,86.569 121.187,87.15C120.925,87.65 120.409,87.954 119.858,87.954Z" style="fill:#1c2947;fill-rule:nonzero;"/>
        <path d="M5.117,66.978C4.58,66.978 4.07,66.688 3.803,66.2C3.473,65.6 3.592,64.852 4.091,64.384C7.879,60.831 10.48,55.491 11.466,49.278C4.342,43.675 0.421,35.979 0.677,28.041C1.179,12.378 17.585,0.161 37.239,0.78C52.623,1.274 65.967,9.512 70.444,21.276C70.738,22.051 70.35,22.917 69.575,23.212C68.807,23.506 67.936,23.117 67.64,22.343C63.588,11.695 51.332,4.234 37.143,3.778C19.129,3.195 4.126,14.128 3.675,28.137C3.442,35.343 7.196,42.371 13.974,47.42C14.41,47.745 14.636,48.281 14.564,48.821C13.863,54.086 12.098,58.848 9.478,62.664C10.948,62.205 12.548,61.666 13.942,61.107C14.713,60.799 15.586,61.174 15.893,61.942C16.2,62.712 15.826,63.585 15.058,63.893C11.064,65.491 5.716,66.872 5.49,66.931C5.366,66.962 5.241,66.978 5.117,66.978Z" style="fill:#1c2947;fill-rule:nonzero;"/>
        <path d="M90.028,57.269L90.336,57.223C91.287,57.08 92.044,57.563 92.607,58.672L92.689,59.223C92.639,60.578 91.986,61.35 90.733,61.537C89.339,61.448 88.56,60.857 88.396,59.767C88.216,58.556 88.76,57.724 90.028,57.269ZM87.06,35.643C89.146,35.33 91.168,35.961 93.127,37.535C94.528,38.85 95.359,40.383 95.621,42.133C95.949,44.326 95.254,46.43 93.533,48.443C91.927,49.667 91.261,51.192 91.533,53.019C91.538,54.155 91.038,54.799 90.033,54.949C88.928,54.872 88.317,54.444 88.2,53.666L88.128,53.18C87.719,50.446 88.794,47.999 91.353,45.837C92.118,44.817 92.408,43.691 92.224,42.459C91.992,40.914 90.986,39.8 89.205,39.116C88.435,38.999 87.83,38.974 87.387,39.04C85.777,39.281 84.646,40.323 83.994,42.166L83.877,44.371C83.484,45.07 83.018,45.461 82.477,45.542C81.329,45.471 80.69,45.003 80.56,44.139C80.207,41.772 81.06,39.54 83.121,37.441C84.419,36.441 85.731,35.842 87.06,35.643Z" style="fill:#252d32;fill-rule:nonzero;"/>
        <path d="M34.017,38.134L34.322,38.195C35.265,38.384 35.813,39.096 35.967,40.329L35.857,40.876C35.35,42.134 34.475,42.638 33.231,42.389C31.95,41.832 31.418,41.012 31.635,39.93C31.875,38.73 32.669,38.132 34.017,38.134ZM38.562,16.784C40.63,17.198 42.318,18.478 43.627,20.622C44.498,22.334 44.761,24.059 44.413,25.794C43.977,27.968 42.609,29.711 40.309,31.021C38.382,31.628 37.237,32.836 36.875,34.646C36.493,35.718 35.805,36.153 34.809,35.954C33.795,35.506 33.365,34.896 33.519,34.125L33.616,33.644C34.159,30.933 36.001,28.995 39.142,27.83C40.207,27.13 40.861,26.169 41.106,24.948C41.413,23.416 40.845,22.026 39.4,20.779C38.717,20.408 38.155,20.179 37.717,20.091C36.12,19.771 34.703,20.368 33.464,21.881L32.605,23.915C31.999,24.439 31.428,24.648 30.893,24.541C29.836,24.084 29.393,23.428 29.565,22.57C30.035,20.225 31.596,18.414 34.246,17.14C35.806,16.639 37.245,16.521 38.562,16.784Z" style="fill:#fff;fill-rule:nonzero;"/>
    </g>
</svg>
