<svg width="100%" height="100%" viewBox="0 0 767 407" version="1.1" xmlns="http://www.w3.org/2000/svg" xmlns:xlink="http://www.w3.org/1999/xlink" xml:space="preserve" xmlns:serif="http://www.serif.com/" style="fill-rule:evenodd;clip-rule:evenodd;stroke-linejoin:round;stroke-miterlimit:2;"><g id="moretext"><path d="M606.433,342.113c2.099,0.126 3.715,0.732 6.368,0.704c-1.438,3.942 -6.148,3.392 -9.906,3.037c0.436,44.902 -51.007,56.545 -81.368,25.862c-1.102,-1.113 -1.633,-1.425 -2.663,-2.733c-1.319,-1.678 -0.741,-1.824 -3.185,-2.264c-5.643,-1.015 -7.056,-0.825 -12.948,-2.579l-3.475,-1.644c-0.06,-0.196 -0.221,-0.181 -0.326,-0.28c24.324,0.28 51.471,-1.67 73.998,-11.487c4.348,-1.895 16.303,-7.689 18.292,-10.524c-0.544,-2.623 -0.841,-5.742 0.135,-8.268c0.716,-0.077 2.326,1.808 3.243,2.665c5.643,5.274 6.776,4.461 11.835,7.511Zm-117.323,-4.087l0.138,1.939l1.273,3.095c0.469,2.543 0.556,8.023 -0.874,9.389c-1.882,1.798 -3.264,0.009 -7.143,2.89c-3.286,2.442 -10.353,2.022 -13.836,1.098c-2.798,-0.743 -6.788,-2.771 -9.312,-4.136l-5.28,-5.01c-3.131,-4.002 -1.365,-1.2 -4.094,-6.313c-2.39,-4.478 -4.105,-12.566 -3.33,-17.659c0.788,-5.175 4.19,-4.018 6.72,-6.872l-3.554,-0.2c2.576,-1.483 5.124,-1.981 8.356,-2.406c-4.377,-17.571 -5.723,-32.323 2.767,-47.525c5.82,-10.42 18.902,-22.676 33.674,-12.032c9.778,7.046 14.827,23.998 13.469,42.277c-0.648,8.732 -2.341,15.855 -5.837,22.292c-5.242,9.652 -11.887,9.955 -14.775,12.051c1.594,3.394 2.834,3.863 3.418,9.055l-0.95,-0.824c-0.075,-0.079 -0.184,-0.206 -0.25,-0.28c-0.498,-0.55 -0.115,-0.192 -0.58,-0.83Zm151.568,-46.387c0.853,0.206 1.561,0.392 2.821,0.437c2.646,0.174 6.796,1.764 7.921,1.73c3.815,2.01 6.758,3.793 7.913,7.652c1.942,6.489 1.729,12.32 0.091,19.294c-0.919,3.911 -0.751,4.534 -2.793,7.572c-1.998,2.972 -0.728,2.412 -2.421,5.115l-4.951,6.333l-14.883,8.718c-7.91,2.203 -8.987,2.654 -13.502,-0.653c-1.948,-1.428 -2.736,-1.735 -3.522,-4.226c-1.391,-2.356 -2.771,-4.332 -3.672,-7.737l-1.334,-8.126l-0.111,2.14c-1.689,-3.587 -1.001,-8.546 -0.257,-12.565c-32.9,-0.907 -42.194,-52.175 -24.748,-70.626c2.401,-2.539 4.022,-4.586 7.631,-6.518c11.059,-5.921 21.055,-0.144 28.36,7.897c8.935,9.836 13.936,24.33 12.451,43.758l5.006,-0.195Zm-98.953,13.478c-0.736,1.012 -0.476,0.251 -0.815,1.985l6.835,0.036c-2.255,1.145 -6.489,0.441 -8.394,2.853c3.573,-0.238 11.482,-3.495 14.723,0.245c-0.841,4.335 -15.124,11.014 -19.777,8.55c-0.492,-2.627 0.32,-3.307 0.97,-5.452c-0.645,0.536 -0.312,0.166 -0.861,0.824c-1.019,1.224 0.604,-1.043 -0.446,0.606c-0.98,1.54 -1.178,3.284 -1.248,5.054l2.304,2.835c0.965,1.07 1.603,1.532 2.745,2.121c2.272,1.173 5.13,1.731 7.994,1.565c5.109,-0.295 12.092,-5.231 14.922,-3.284c2.012,1.807 0.013,4.557 -1.406,6.291l-1.633,1.374c-3.805,0.447 -6.43,3.315 -12.803,3.089c-4.747,-0.169 -8.884,-2.364 -11.199,-4.989c-6.773,-7.678 -2.332,-18.71 6.089,-21.072c0.537,-9.088 -1.101,-9.325 -3.417,-15.488c3.714,1.226 4.414,4.879 4.659,4.349c0.041,-0.09 0.177,0.207 0.276,0.298c-4.637,-23.435 -19.715,-26.139 -15.797,-34.473c1.817,-3.863 7.338,-3.808 11.199,-1.546c7.86,4.604 17.352,21.194 12.083,35.624c-1.372,3.756 -4.653,8.195 -6.771,9.792l-0.232,-1.187Zm84.603,-72.958c-6.392,1.255 -4.928,-7.508 -14.457,-10.754c-9.324,-3.175 -19.628,3.812 -26.027,9.813c-4.694,4.404 -11.485,13.371 -13.945,9.185c-2.392,-4.068 11.386,-30.551 29.266,-32.515c17.575,-1.931 27.366,17.293 25.163,24.271Zm-125.807,17.091c-4.21,-1.168 -6.507,-5.223 -9.021,-5.842c-8.623,-4.97 -21.628,-2.872 -27.743,2.791c-3.057,2.83 -5.438,6.734 -7.419,10.89c-1.545,3.242 -4.567,9.236 -5.502,12.527c-9.922,-6.29 0.493,-33.779 -1.158,-36.776c-0.759,-0.853 -2.953,0.236 -3.918,0.615c-6.333,2.488 -4.923,2.24 -10.934,2.525c-3.676,0.175 -1.826,2.733 -3.468,15.212c-1.482,11.267 -3.689,21.992 -6.694,32.762c-0.292,1.048 -0.58,2.181 -0.872,3.152l-1.24,2.581c1.227,17.118 3.242,32.067 8.338,47.138c9.971,29.485 24.368,44.948 50.965,55.646c39.378,15.839 92.221,12.287 130.282,-2.916c12.436,-4.968 24.173,-11.727 33.666,-18.997c7.267,-5.565 22.354,-19.699 25.635,-27.2c1.475,-6.027 3.696,-11.663 5.143,-18.212c4.626,-20.931 5.448,-40.83 0.253,-61.615c-2.901,-11.608 -7.664,-22.988 -12.58,-32.526c-2.669,-5.179 -5.011,-10.006 -7.883,-14.516c-1.796,-2.822 -7.26,-11.548 -10.961,-10.968l2.843,12.222c-11.606,-2.468 -35.903,-31.432 -43.732,-42.455c-2.083,-2.932 -3.549,-5.574 -5.471,-8.918c-1.219,-2.119 -3.679,-8.124 -4.853,-9.441c-1.589,0.796 -2.684,3.612 -3.797,5.455c-8.183,13.545 -16.379,26.648 -27.861,36.787c-5.538,4.889 -36.24,29.849 -47.533,22.188c1.131,-2.66 3.913,-5.479 5.718,-7.583c1.19,-1.388 1.95,-2.428 3.118,-3.787c1.428,-1.66 2.384,-1.603 2.259,-4.052c-3.322,0.568 -12.447,12.666 -26.596,15.326c0.536,4.975 15.291,19.411 14.621,40.017c-1.52,-0.989 -1.795,-2.044 -3.053,-3.545c-0.973,-1.162 -1.958,-2.269 -3.062,-3.316c-6.865,-6.514 -4.815,-3.463 -7.49,-5.169" style="fill:#fad5bd;"/><path d="M670.719,56.923c-5.683,-5.364 -7.089,-7.024 -14.616,-10.638l-12.94,-5.809c-3.766,-1.898 -2.82,-1.285 -3.225,-2.596c3.254,-2.285 16.981,-0.435 21.431,0.443c28.904,5.703 54.65,27.04 71.095,52.44c5.493,8.485 15.561,25.411 12.402,36.662c-2.143,-0.488 -1.635,-0.871 -3.034,-2.634l-15.632,-18.813c-3.848,-4.217 -14.632,-15.054 -21.017,-17.777c5.675,9.102 11.27,18.927 16.037,30.547c2.851,6.949 11.823,29.822 6.814,37.417c-1.487,-0.534 -1.236,-0.596 -2.1,-2.37l-4.046,-8.973c-1.338,-3.157 -3.091,-9.633 -4.642,-12.182c0.162,4.602 1.59,10.466 1.905,15.839c0.607,10.319 0.068,41.563 -5.67,48.175c-1.365,-0.46 -1.09,-0.314 -2.072,-1.952c-4.408,-7.357 -5.701,-22.417 -9.461,-33.438c-0.715,-2.094 -3.938,-9.643 -4.062,-10.449c0.447,5.365 1.627,11.067 2.1,16.802c0.496,6.019 0.658,12.015 0.812,18.066c0.159,6.213 0.64,12.339 0.446,18.625c-0.228,7.375 -0.844,9.767 -3.363,15.109c-2.061,-0.882 -2.968,-3.101 -4.667,-6.077c-8.881,-15.554 -16.679,-32.353 -24.458,-48.833c-5.645,-11.958 -15.868,-30.382 -19.907,-43.059c-1.09,-3.423 -3.71,-14.018 -5.075,-15.967c0.059,7.357 -4.6,13.274 1.094,39.543c1.616,7.458 8.979,31.57 9.252,35.255c-2.299,-0.572 -1.74,-0.915 -3.285,-3.137c-12.186,-17.519 -22.848,-37.453 -27.152,-59.806c-2.151,-11.167 -2.477,-32.83 3.109,-41.195c3.688,-5.524 9.364,-5.937 15.886,-3.123c7.656,3.305 10.226,8.619 12.522,10.029c-2.39,-8.108 -8.902,-17.528 -14.457,-22.843c-1.343,-1.285 -5.924,-3.81 -6.301,-5.045c5.824,-2.841 26.026,6.123 33.035,11.032c11.357,7.956 14.408,15.949 21.271,23.851c-1.522,-11.806 -12.849,-28.229 -18.029,-33.119Zm-274.175,24.012c1.012,-6.154 12.979,-18.639 17.862,-22.788c11.608,-9.864 25.985,-19.175 40.206,-25.706c23.217,-10.662 55.169,-19.744 83.206,-19.744c15.483,-0 34.58,1.846 48.868,6.156c9.775,2.948 31.431,11.947 26.077,27.711c-2.022,-0.394 -3.013,-2.372 -4.566,-4.003c-2.88,-3.023 -10.624,-10.044 -14.388,-11.297c4.95,3.925 11.055,7.773 11.31,17.198c-2.223,-0.579 -3.237,-2.641 -4.628,-4.094c-11.305,-11.8 -28.021,-14.836 -43.569,-14.836c-10.534,0 -38.838,5.661 -44.316,12.087c4.522,-0.657 8.982,-2.414 14.156,-2.996c30.21,-3.392 64.31,14.496 64.31,55.104c0,6.684 -0.52,24.408 -6.13,25.168c-0.711,-4.193 1,-17.964 -1.302,-25.042c-2.703,23.35 -11.52,42.41 -21.689,56.605c-5.196,7.254 -11.784,14.34 -18.275,20.037c-2.773,2.433 -17.47,15.92 -22.635,13.659c0.341,-4.232 22.298,-30.802 26.439,-44.794c-10.209,14.242 -22.881,27.401 -36.617,38.153c-9.094,7.119 -37.383,26.411 -48.629,25.309c0.23,-2.785 3.939,-7.589 5.374,-9.717c6.071,-9.009 11.578,-15.972 17.604,-25.441c4.294,-6.748 17.449,-31.063 20.007,-38.328c-2.86,1.899 -7.333,7.91 -10.28,10.876c-8.015,8.066 -23.143,23.851 -31.356,30.866c-4.403,3.76 -12.059,11.96 -15.929,15.392c-1.768,1.568 -3.698,3.297 -5.353,4.931c-3.093,3.051 -19.236,17.985 -22.903,18.675c-1.542,-8.736 5.769,-27.727 8.809,-35.332c10.079,-25.214 18.104,-36.091 32.343,-55.096l10.062,-11.576c1.801,-2.036 3.67,-3.293 5.473,-5.299c1.851,-2.059 3.969,-3.339 5.439,-5.499c-10.4,4.47 -33.948,26.455 -42.385,35.84c-15.319,17.041 -33.173,43.197 -37.507,68.452c-1.92,11.188 1.301,11.125 -3.486,23.46c-3.428,-0.542 -7.242,-5.024 -9.052,-7.714c-7.64,-11.357 -10.004,-27.256 -10.004,-41.942c0,-21.716 4.773,-38.304 13.717,-53.326c5.441,-9.14 7.857,-11.391 13.678,-18.42c1.491,-1.801 2.237,-2.48 3.758,-4.107c1.469,-1.572 2.108,-2.644 3.729,-4.137c1.404,-1.294 2.5,-2.648 3.939,-3.888c1.082,-0.931 3.281,-3.028 3.935,-3.925c-15.052,6.206 -36.72,28.089 -47.649,43.283c-1.895,2.635 -4.023,6.479 -5.908,6.693c-0.072,-8.874 8.191,-22.035 11.525,-27.33c4.941,-7.849 11.404,-15.483 17.078,-21.375c14.514,-15.072 24.748,-21.289 43.437,-32.139c-9.331,0.936 -25.395,11.636 -33.41,17.435c-2.232,1.615 -8.088,6.6 -10.375,6.801Zm-37.778,137.55c0.839,-1.222 0.351,0.25 0.605,-1.776c0.225,-1.798 -0.616,-6.032 0.89,-15.025c2.028,-12.1 6.011,-22.638 12.145,-32.517c0.816,-1.316 3.108,-4.031 3.506,-4.88c-0.279,5.099 -4.015,15.429 -2.366,21.264l-0.153,1.797c-1.607,14.172 6.542,31.961 12.508,39.19c3.916,4.746 7.604,8.685 12.368,13.152l11.81,11.661c0.06,0.023 0.203,0.057 0.262,0.068c2.636,0.484 -1.243,-2.484 -2.779,-7.533c-1.037,-3.409 -1.698,-7.599 -1.286,-11.431c0.48,-2.877 -0.764,-10.097 0.492,-20.062c0.744,-5.894 2.154,-12.115 3.879,-17.347c3.119,-9.458 9.039,-23.198 14.404,-27.359c-3.904,7.905 -6.488,10.168 -10.539,20.791c-2.408,6.318 -6.36,18.555 -6.229,26.113l-0.106,2.389c1.7,-2.756 1.967,-7.094 3.805,-10.09c-0.189,10.449 -3.326,12.067 0.855,22.295c4.904,-0.665 22.477,-18.254 28.974,-23.349c1.95,-1.53 3.994,-3.066 5.973,-4.739l11.81,-9.502c1.055,-0.667 3.495,-4.896 4.565,-6.327l-3.953,9.317c-1.367,5.623 -8.703,19.021 -8.744,19.724c9.414,3.9 48.591,-17.529 59.717,-25.64c2.454,-1.79 4.644,-3.835 7.309,-4.822c-0.764,2.364 -1.451,4.381 -2.4,6.713c-0.798,1.959 -2.598,5.02 -2.173,6.736c6.061,1.693 22.419,-10.675 26.631,-13.722c7.838,-5.669 10.201,-8.452 16.596,-14.169c10.899,-9.743 27.479,-34.316 35.204,-49.315c0.99,-1.922 2.628,-5.846 3.715,-7.143c2.031,5.886 0.991,14.661 10.384,35.914c1.457,3.296 13.567,26.821 17.719,28.065c0.455,-2.122 -2.886,-10.586 -3.68,-13.626c-4.02,-15.389 -5.722,-35.219 -4.539,-51.269c1.294,16.796 9.24,38.859 17.028,52.88c4.028,7.253 9.828,14.836 14.729,19.85c4.141,4.236 8.39,8.484 13.281,12.144c1.429,1.069 3.376,3.061 5.449,3.252c0.228,-4.564 -3.698,-15.159 -5.004,-19.744c-1.624,-5.706 -3.824,-14.303 -4.387,-20.601c5.481,3.579 17.865,27.932 21.394,35.799c8.984,20.029 9.457,22.528 14.362,43.536c5.054,-0.604 8.456,-9.653 10.42,-15.24c2.082,-5.924 4.686,-18.404 5.628,-20.285c0.14,4.512 -1.815,14.839 -1.247,17.513c5.149,-0.037 10.871,-12.718 12.555,-17.722c1.328,-3.945 2.365,-8.082 3.091,-12.573c0.635,-3.926 0.468,-11.049 1.773,-14.081c0.267,7.368 -0.987,14.238 -0.454,20.984c8.535,0.023 13.388,-16.222 15.307,-26.217c2.812,-14.647 2.765,-24.097 1.219,-39.11c2.243,1.544 7.291,9.98 10.134,10.508c3.837,-8.231 -1.148,-29.944 -3.888,-37.618c-2.867,-8.029 -5.949,-14.914 -9.652,-22.394c-1.341,-2.71 -2.754,-4.721 -3.88,-7.357c-5.074,-9.441 -27.907,-28.541 -37.238,-34.896c-16.944,-11.54 -29.745,-15.981 -53.028,-18.314c2.143,-4.483 4.34,-6.666 7.229,-10.031c1.207,-1.406 0.565,-0.152 1.322,-1.943c-7.963,0.596 -15.302,4.496 -20.804,9.777c-2.016,1.935 -3.246,4 -4.968,5.757c-1.789,-1.41 -9.096,-19.473 -19.895,-19.99c2.058,6.281 7.487,12.344 8.166,20.012c-5.437,-2.485 -10.795,-9.726 -30.313,-15.219c-58.603,-16.491 -127.34,5.538 -172.77,44.736c-4.24,3.657 -8.081,7.433 -11.857,11.145c-8.258,8.121 -26.541,32.444 -29.655,41.687l6.219,-7.233c1.817,-2.271 4.211,-5.592 6.577,-6.895c-1.131,2.019 -1.771,2.747 -3.136,4.51c-7.897,10.2 -16.588,19.883 -21.714,32.765c-3.139,7.89 -5.847,14.098 -7.683,23.575c-1.154,5.958 -4.977,24.139 -0.719,27.5c2.416,-0.798 3.297,-6.58 4.342,-9.069c3.195,-7.612 9.711,-22.046 15.266,-25.932c1.041,2.516 -3.62,12.191 -4.777,15.339c-2.028,5.516 -3.717,10.529 -5.153,16.511c-1.41,5.873 -2.298,12.857 -2.723,19.265c-0.677,10.198 0.624,11.725 2.275,19.873" style="fill:#b56a32;"/><path d="M542.385,164.02l10.288,-17.647c3.295,-6.174 6.228,-12.548 8.956,-19.511c7.414,-18.918 7.998,-27.116 10.687,-46.607c3.173,5.653 2.728,20.068 1.688,27.232c-2.2,15.157 -9.376,30.477 -17.57,41.504c-3.137,4.222 -9.789,13.139 -14.049,15.029Zm-36.06,-101.491c3.965,-0.42 30.845,-11.461 36.896,-6.862c-0.136,3.445 -2.321,6.757 -3.595,9.103c0.249,-0.121 15.242,-12.62 12.236,4.698c-1.319,7.599 -4.813,14.143 -6.55,21.266c3.831,-3.034 6.979,-8.046 10.442,-11.728c2.668,-2.836 6.214,-9.537 11.936,-10.024c4.584,12.779 -15.044,44.709 -22.874,56.27c-3.673,5.422 -10.948,14.514 -15.535,18.95c-1.045,1.011 -1.626,1.584 -2.632,2.762l-14.767,14.113c-4.284,4.012 -7.819,6.972 -12.98,9.901c-17.196,9.76 -3.784,-10.002 0.21,-16.305c8.171,-12.897 18.038,-30.857 26.48,-43.505c1.591,-2.384 4.698,-6.35 5.568,-8.701c-4.733,2.257 -13.066,13.41 -19.278,12.245c-0.425,-4.449 11.046,-15.589 13.272,-18.44c-4.111,1.563 -20.748,13.911 -25.385,17.261c-8.471,6.119 -16.65,12.859 -23.881,19.512c-6.488,5.97 -21.421,20.516 -26.67,27.782l-11.791,15.336c-1.14,1.371 -1.41,2.196 -3.616,2.373c-1.881,-6.016 2.286,-11.83 4.617,-16.241c5.476,-10.362 10.238,-18.979 16.917,-28.267l26.105,-29.946c5.507,-5.638 17.657,-15.302 24.302,-20.6c2.144,-1.71 4.621,-3.034 6.518,-4.672c-16.388,0.569 -58.987,29.376 -71.506,40.603c-2.688,2.412 -4.866,4.359 -7.454,6.719c-1.352,1.233 -2.144,2.226 -3.472,3.384l-10.349,11.26c-8.526,10.11 -17.521,21.702 -22.471,35.015c-1.185,3.187 -2.801,9.057 -6.109,8.071c-2.46,-1.488 -1.478,-12.895 -1.181,-15.145c1.647,-12.484 7.794,-29.057 12.581,-39.758c3.863,-8.633 8.404,-13.996 13.309,-20.89c3.66,-5.146 11.785,-13.031 16.442,-17.426c10.672,-10.073 24.735,-19.388 40.245,-26.689c7.529,-3.543 15.143,-7.161 23.303,-9.804c6.757,-2.189 19.608,-7.574 26.395,-5.326c-0.195,5.054 -11.918,11.551 -15.678,13.705Zm-109.781,18.406c2.287,-0.201 8.143,-5.186 10.375,-6.801c8.015,-5.799 24.078,-16.499 33.41,-17.435c-18.689,10.85 -28.924,17.067 -43.437,32.139c-5.674,5.892 -12.137,13.526 -17.078,21.375c-3.334,5.295 -11.597,18.456 -11.525,27.33c1.885,-0.214 4.013,-4.058 5.908,-6.693c10.928,-15.194 32.597,-37.077 47.649,-43.283c-0.654,0.897 -2.854,2.994 -3.935,3.925c-1.439,1.24 -2.535,2.594 -3.939,3.888c-1.621,1.493 -2.26,2.565 -3.729,4.137c-1.521,1.627 -2.267,2.306 -3.758,4.107c-5.821,7.029 -8.237,9.28 -13.678,18.42c-8.944,15.022 -13.717,31.61 -13.717,53.326c-0,14.686 2.364,30.585 10.004,41.942c1.81,2.69 5.624,7.172 9.052,7.714c4.787,-12.335 1.566,-12.272 3.486,-23.46c4.334,-25.255 22.188,-51.411 37.507,-68.452c8.437,-9.385 31.985,-31.37 42.385,-35.84c-1.47,2.16 -3.588,3.44 -5.439,5.499c-1.803,2.006 -3.672,3.263 -5.473,5.299l-10.063,11.576c-14.239,19.005 -22.263,29.882 -32.343,55.096c-3.039,7.605 -10.35,26.596 -8.808,35.332c3.667,-0.69 19.809,-15.624 22.903,-18.675c1.655,-1.634 3.585,-3.363 5.353,-4.931c3.87,-3.432 11.526,-11.632 15.929,-15.392c8.213,-7.015 23.341,-22.8 31.356,-30.866c2.947,-2.966 7.42,-8.977 10.28,-10.876c-2.558,7.265 -15.713,31.58 -20.008,38.328c-6.025,9.469 -11.532,16.432 -17.603,25.441c-1.435,2.128 -5.144,6.932 -5.374,9.717c11.245,1.102 39.535,-18.19 48.629,-25.309c13.736,-10.752 26.408,-23.911 36.617,-38.153c-4.141,13.992 -26.098,40.562 -26.439,44.794c5.165,2.261 19.862,-11.226 22.634,-13.659c6.492,-5.697 13.08,-12.783 18.276,-20.037c10.169,-14.195 18.986,-33.255 21.689,-56.605c2.301,7.078 0.591,20.849 1.302,25.042c5.61,-0.76 6.13,-18.484 6.13,-25.168c0,-40.608 -34.1,-58.496 -64.31,-55.104c-5.174,0.582 -9.634,2.339 -14.156,2.996c5.477,-6.426 33.782,-12.087 44.315,-12.087c15.548,0 32.265,3.036 43.57,14.836c1.391,1.453 2.405,3.515 4.628,4.094c-0.255,-9.425 -6.36,-13.273 -11.31,-17.198c3.764,1.253 11.508,8.274 14.388,11.297c1.553,1.631 2.544,3.609 4.566,4.003c5.354,-15.764 -16.302,-24.763 -26.077,-27.711c-14.288,-4.31 -33.385,-6.156 -48.868,-6.156c-28.037,-0 -59.989,9.082 -83.206,19.744c-14.221,6.531 -28.598,15.842 -40.206,25.706c-4.883,4.149 -16.85,16.634 -17.862,22.788" style="fill:#c17c3e;"/><path d="M506.325,62.529c3.76,-2.154 15.483,-8.651 15.678,-13.705c-6.787,-2.248 -19.638,3.137 -26.395,5.326c-8.16,2.643 -15.774,6.261 -23.303,9.804c-15.51,7.301 -29.573,16.616 -40.245,26.689c-4.657,4.395 -12.782,12.28 -16.442,17.426c-4.905,6.894 -9.446,12.257 -13.309,20.89c-4.787,10.701 -10.934,27.274 -12.581,39.758c-0.297,2.25 -1.279,13.657 1.181,15.145c3.308,0.986 4.924,-4.884 6.109,-8.071c4.95,-13.313 13.945,-24.905 22.471,-35.015l10.349,-11.26c1.328,-1.158 2.12,-2.151 3.472,-3.384c2.588,-2.36 4.766,-4.307 7.455,-6.719c12.518,-11.227 55.117,-40.034 71.505,-40.603c-1.897,1.638 -4.374,2.962 -6.518,4.673c-6.645,5.297 -18.795,14.961 -24.302,20.599l-26.105,29.946c-6.679,9.288 -11.441,17.905 -16.917,28.267c-2.331,4.411 -6.498,10.225 -4.617,16.241c2.206,-0.177 2.476,-1.002 3.616,-2.373l11.791,-15.336c5.249,-7.266 20.182,-21.812 26.67,-27.782c7.231,-6.653 15.41,-13.393 23.881,-19.512c4.637,-3.35 21.274,-15.698 25.385,-17.261c-2.226,2.851 -13.697,13.991 -13.272,18.44c6.212,1.165 14.545,-9.988 19.278,-12.245c-0.87,2.351 -3.977,6.317 -5.568,8.701c-8.442,12.648 -18.308,30.608 -26.48,43.505c-3.994,6.303 -17.406,26.065 -0.21,16.305c5.161,-2.929 8.696,-5.889 12.98,-9.901l14.767,-14.113c1.006,-1.178 1.587,-1.751 2.632,-2.762c4.587,-4.436 11.862,-13.528 15.535,-18.95c7.83,-11.561 27.458,-43.491 22.874,-56.27c-5.722,0.487 -9.268,7.188 -11.936,10.024c-3.463,3.682 -6.611,8.694 -10.442,11.728c1.737,-7.123 5.231,-13.667 6.55,-21.266c3.006,-17.318 -11.987,-4.819 -12.236,-4.698c1.274,-2.346 3.459,-5.658 3.595,-9.103c-6.051,-4.599 -32.931,6.442 -36.896,6.862" style="fill:#d99d57;"/><path d="M643.506,153.55c-1.919,-0.042 -1.908,-1.046 -2.841,-2.842c-7.6,-14.642 -11.708,-31.616 -13.079,-48.58c-1.488,-18.413 5.173,-28.317 7.753,-19.409c3.132,10.811 1.094,30.226 5.08,51.704c0.684,3.687 3.67,16.079 3.087,19.127Zm67.179,10.981c-4.342,-2.137 -9.423,-37.645 -14.672,-39.597c-0.196,3.12 0.302,5.987 0.839,8.883c0.717,3.869 2.055,7.312 0.681,8.518c-4.318,2.552 -11.559,-11.931 -14.388,-14.583c1.316,10.025 6.109,21.772 8.348,32.237c0.315,1.471 5.155,30.902 4.84,33.475c-0.298,2.436 -0.014,1.119 -0.756,1.923c-2.854,2.285 -7.065,-7.377 -8.452,-9.909c-10.143,-18.513 -25.858,-49.417 -33.469,-68.825l-9.959,-25.675c-0.168,-0.82 -0.304,-1.559 -0.206,-2.41c0.619,-5.413 4.311,0.076 4.709,0.562c1.514,1.847 2.107,1.988 3.55,4.334c1.894,3.082 3.452,7.909 5.806,10.21c-0.107,-3.577 -0.272,-4.312 1.404,-6.231c7.721,-1.716 12.18,7.823 18.494,9.001c1.152,-2.077 2.52,-19.913 14.262,-3.564c1.202,1.674 3.297,5.089 4.486,5.955l-2.179,-25.068c-0.379,-1.446 -2.863,-6.151 0.164,-5.337c1.444,0.389 5.432,8.371 6.542,10.853c6.858,15.33 18.647,69.709 9.956,75.248Zm-70.747,-126.651c0.405,1.311 -0.541,0.698 3.225,2.596l12.94,5.809c7.527,3.614 8.933,5.274 14.616,10.638c5.18,4.89 16.507,21.313 18.029,33.119c-6.863,-7.902 -9.914,-15.895 -21.271,-23.851c-7.009,-4.909 -27.211,-13.873 -33.035,-11.032c0.377,1.235 4.957,3.76 6.301,5.045c5.555,5.315 12.067,14.735 14.457,22.843c-2.296,-1.41 -4.866,-6.724 -12.522,-10.029c-6.522,-2.814 -12.198,-2.401 -15.886,3.123c-5.586,8.365 -5.26,30.028 -3.109,41.195c4.304,22.353 14.966,42.287 27.152,59.806c1.545,2.222 0.986,2.565 3.285,3.137c-0.273,-3.685 -7.636,-27.797 -9.252,-35.255c-5.694,-26.269 -1.035,-32.186 -1.094,-39.543c1.365,1.949 3.985,12.544 5.075,15.967c4.039,12.677 14.262,31.101 19.907,43.059c7.779,16.48 15.577,33.279 24.458,48.833c1.699,2.976 2.606,5.195 4.667,6.077c2.519,-5.342 3.135,-7.734 3.363,-15.109c0.194,-6.286 -0.287,-12.412 -0.446,-18.625c-0.154,-6.051 -0.316,-12.047 -0.812,-18.066c-0.473,-5.735 -1.653,-11.437 -2.1,-16.802c0.124,0.806 3.347,8.355 4.062,10.449c3.76,11.021 5.053,26.081 9.461,33.438c0.982,1.638 0.707,1.492 2.072,1.952c5.738,-6.612 6.277,-37.856 5.67,-48.175c-0.315,-5.373 -1.743,-11.237 -1.905,-15.839c1.551,2.549 3.304,9.025 4.642,12.182l4.046,8.973c0.864,1.774 0.613,1.836 2.1,2.37c5.009,-7.595 -3.963,-30.468 -6.814,-37.417c-4.767,-11.62 -10.362,-21.445 -16.037,-30.547c6.385,2.723 17.169,13.56 21.017,17.777l15.632,18.813c1.399,1.763 0.891,2.146 3.034,2.634c3.159,-11.251 -6.909,-28.177 -12.402,-36.662c-16.445,-25.4 -42.191,-46.737 -71.095,-52.44c-4.45,-0.878 -18.177,-2.728 -21.431,-0.443" style="fill:#c17c3e;"/><path d="M460.206,194.585c-1.067,1.005 -0.634,0.712 -1.553,2.015l-21.306,30.265c7.466,1.346 34.006,-11.021 41.605,-15.035c9.876,-5.218 24.636,-13.014 32.893,-21.31l2.351,-1.927c-4.855,9.322 -23.545,23.945 -24.466,26.69c10.393,0.926 37.499,-18.26 47.636,-26.46c2.054,-1.661 3.71,-3.371 6.077,-4.844c-0.552,10.393 -11.946,22.198 -13.348,25.869c8.172,-0.435 29.74,-27.122 35.658,-34.496c4.205,-5.239 10.642,-14.989 14.429,-21.202c4.393,-7.209 8.374,-16.095 12.669,-23.085c2.956,5.751 1.663,17.822 19.514,41.731l10.097,10.497c2.525,2.154 4.742,4.367 7.119,6.59c2.281,2.132 4.501,4.56 8.153,4.831c0.703,-4.69 -4.618,-14.373 -6.34,-18.23c-2.185,-4.895 -4.819,-14.042 -6.368,-19.273c4.453,2.806 6.934,9.6 11.703,16.459c11.243,16.171 13.41,15.49 22.687,25.994c3.375,3.822 14.683,14.821 19.006,15.823c0.062,-5.824 -12.946,-31.452 -14.268,-38.445c2.258,3.012 3.877,5.478 5.522,9.691c1.461,3.743 3.021,7.303 4.456,11.074c1.516,3.987 5.876,13.43 6.077,16.996c0.212,3.774 -2.254,2.498 -4.658,1.825l5.578,11.665c3.636,7.65 7.435,16.135 9.542,24.541c0.994,3.963 1.792,10.55 3.641,13.551c1.773,-10.151 10.819,-28.855 15.552,-35.098c1.975,-2.605 0.438,-0.231 2.935,-1.9c1.151,-0.769 1.622,-1.48 2.784,-2.597c14.023,-13.472 38.012,-18.673 30.41,-47.171c-1.61,-6.032 -4.069,-9.271 -4.479,-16.199c8.277,5.087 8.899,12.615 12.079,15.508c0.526,-7.767 -3.173,-19.623 -6.911,-26.414c-1.687,-3.067 -2.75,-3.596 -3.525,-8.076c1.734,0.764 8.857,7.627 10.046,9.11c3.632,4.533 5.25,10.624 7.842,12.224c3.416,-19.414 -5.567,-54.665 -15.394,-72.577l-8.312,-13.512c-1.055,-1.484 -2.179,-3.221 -3.536,-4.128c1.126,2.636 2.538,4.647 3.88,7.357c3.703,7.48 6.785,14.365 9.652,22.394c2.74,7.674 7.725,29.387 3.888,37.618c-2.843,-0.528 -7.891,-8.964 -10.134,-10.508c1.546,15.013 1.593,24.463 -1.219,39.11c-1.919,9.995 -6.772,26.24 -15.307,26.217c-0.534,-6.746 0.721,-13.616 0.454,-20.984c-1.305,3.032 -1.138,10.155 -1.773,14.081c-0.726,4.491 -1.763,8.628 -3.091,12.573c-1.684,5.004 -7.406,17.685 -12.555,17.722c-0.568,-2.674 1.387,-13.001 1.247,-17.513c-0.942,1.881 -3.546,14.361 -5.628,20.285c-1.964,5.587 -5.366,14.636 -10.42,15.24c-4.905,-21.008 -5.378,-23.507 -14.362,-43.536c-3.529,-7.867 -15.913,-32.22 -21.394,-35.799c0.563,6.298 2.763,14.895 4.387,20.601c1.306,4.585 5.232,15.18 5.004,19.744c-2.073,-0.191 -4.02,-2.183 -5.449,-3.252c-4.891,-3.66 -9.141,-7.908 -13.281,-12.144c-4.901,-5.014 -10.701,-12.597 -14.729,-19.85c-7.788,-14.021 -15.734,-36.084 -17.029,-52.88c-1.182,16.05 0.52,35.88 4.54,51.269c0.794,3.04 4.135,11.504 3.68,13.626c-4.152,-1.244 -16.263,-24.769 -17.719,-28.065c-9.393,-21.253 -8.353,-30.028 -10.384,-35.914c-1.087,1.297 -2.725,5.221 -3.715,7.143c-7.725,14.999 -24.305,39.572 -35.204,49.315c-6.395,5.717 -8.758,8.5 -16.596,14.169c-4.212,3.047 -20.57,15.415 -26.631,13.722c-0.425,-1.716 1.375,-4.777 2.173,-6.736c0.949,-2.332 1.636,-4.349 2.4,-6.713c-2.665,0.987 -4.856,3.032 -7.309,4.821c-11.126,8.112 -50.303,29.541 -59.717,25.641c0.041,-0.703 7.377,-14.101 8.744,-19.724" style="fill:#a35624;"/><path d="M500.521,249.25c2.675,1.705 0.625,-1.346 7.49,5.168c1.104,1.047 2.089,2.154 3.062,3.316c1.258,1.501 1.533,2.556 3.053,3.545c0.67,-20.606 -14.085,-35.042 -14.621,-40.017c14.149,-2.66 23.274,-14.758 26.596,-15.326c0.125,2.449 -0.831,2.392 -2.259,4.052c-1.168,1.359 -1.928,2.399 -3.118,3.787c-1.805,2.104 -4.587,4.923 -5.718,7.583c11.293,7.661 41.995,-17.298 47.533,-22.188c11.482,-10.139 19.678,-23.241 27.861,-36.787c1.113,-1.843 2.208,-4.659 3.797,-5.455c1.174,1.317 3.634,7.322 4.853,9.442c1.922,3.343 3.388,5.985 5.471,8.917c7.829,11.023 32.126,39.987 43.732,42.455l-2.843,-12.222c3.701,-0.58 9.165,8.146 10.961,10.968c2.872,4.51 5.214,9.337 7.883,14.516c4.916,9.538 9.679,20.918 12.58,32.526c5.195,20.785 4.373,40.684 -0.253,61.615c-1.447,6.549 -3.668,12.185 -5.143,18.212l2.413,-3.151c0.747,-1.148 1.466,-2.443 2.233,-3.725c4.564,-7.63 8.233,-15.592 11.231,-24.706c6.1,-18.544 5.662,-22.325 5.569,-42.877c-0.514,-5.814 -7.271,-26.037 -9.921,-31.771c-1.746,-3.776 -8.176,-19.446 -9.822,-21.676l-5.371,-4.88c-13.84,-12.313 -28.261,-27.519 -38.025,-44.426c1.643,9.79 11.11,22.95 9.669,28.758c-1.058,4.267 -7.849,-0.237 -9.533,-1.747c-12.803,-11.472 -22.812,-21.22 -30.522,-37.985c-4.549,-9.893 -5.862,-18.692 -6.928,-20.966c-8.162,14.603 -8.8,18.333 -19.689,33.904c-7.414,10.602 -19.372,25.251 -28.519,33.488c-4.583,4.126 -9.476,10.11 -16.168,10.393c0.079,-3.734 5.099,-8.91 6.788,-11.501c1.687,-2.591 5.428,-9.112 6.214,-12.441c-1.576,0.907 -16.06,12.532 -24.422,17.571c-4.199,2.531 -23.915,14.602 -29.1,10.572c0.495,-3.887 10.443,-10.244 14.81,-15.91l-14.435,8.613c-3.82,2.229 -12.578,6.082 -15.297,8.336c11.986,-0.437 16.6,4.371 22.336,10.859c2.627,2.972 4.747,6.219 6.752,10.077c1.965,3.782 5.407,11.309 -1.18,11.084" style="fill:#f2a881;"/><path d="M461.057,231.872c1.209,-3.72 4.785,-8.571 7.016,-10.358c3.608,-2.89 8.165,-3.877 13.192,-2.033c6.932,2.542 14.096,10.59 16.965,16.613c1.269,2.989 3.552,7.231 3.308,11.101c-5.534,-0.92 -10.811,-11.238 -21.32,-14.293c-5.913,-1.719 -12.23,-0.522 -16.913,3.465l-2.064,2.402c-2.129,2.518 -1.696,3.338 -3.557,5.964c0.78,-1.005 1.516,-10.85 3.373,-12.861Zm272.746,-156.317c1.356,0.907 2.481,2.644 3.536,4.128l8.312,13.512c9.827,17.912 18.81,53.163 15.394,72.577c-2.592,-1.6 -4.21,-7.691 -7.842,-12.224c-1.189,-1.483 -8.312,-8.346 -10.046,-9.11c0.775,4.48 1.838,5.009 3.525,8.076c3.738,6.791 7.437,18.647 6.911,26.414c-3.18,-2.893 -3.802,-10.421 -12.079,-15.508c0.41,6.928 2.869,10.167 4.479,16.199c7.602,28.498 -16.387,33.699 -30.41,47.171c-1.162,1.117 -1.633,1.828 -2.784,2.597c-2.497,1.669 -0.96,-0.705 -2.935,1.9c-4.733,6.243 -13.779,24.947 -15.552,35.098c-1.849,-3.001 -2.647,-9.588 -3.641,-13.551c-2.107,-8.406 -5.906,-16.891 -9.542,-24.541l-5.578,-11.665c2.404,0.673 4.87,1.949 4.658,-1.825c-0.201,-3.566 -4.561,-13.009 -6.077,-16.996c-1.435,-3.771 -2.995,-7.331 -4.457,-11.074c-1.644,-4.213 -3.263,-6.679 -5.521,-9.691c1.322,6.993 14.33,32.621 14.268,38.445c-4.323,-1.002 -15.631,-12.001 -19.006,-15.823c-9.277,-10.504 -11.444,-9.823 -22.687,-25.994c-4.769,-6.859 -7.25,-13.653 -11.703,-16.459c1.549,5.231 4.183,14.378 6.368,19.273c1.722,3.857 7.043,13.54 6.34,18.23c-3.652,-0.271 -5.872,-2.699 -8.153,-4.831c-2.377,-2.223 -4.594,-4.436 -7.119,-6.59l-10.097,-10.497c-17.851,-23.909 -16.558,-35.98 -19.514,-41.731c-4.295,6.99 -8.276,15.876 -12.669,23.085c-3.787,6.213 -10.224,15.963 -14.429,21.202c-5.918,7.374 -27.486,34.061 -35.658,34.496c1.402,-3.671 12.796,-15.476 13.348,-25.869c-2.367,1.473 -4.023,3.183 -6.077,4.844c-10.137,8.2 -37.243,27.386 -47.636,26.46c0.921,-2.745 19.611,-17.368 24.466,-26.69l-2.351,1.927c-8.257,8.296 -23.017,16.092 -32.893,21.31c-7.599,4.014 -34.139,16.381 -41.605,15.035l21.306,-30.265c0.919,-1.303 0.486,-1.01 1.553,-2.015l3.953,-9.317c-1.07,1.431 -3.51,5.66 -4.565,6.327c-2.831,7.758 -18.164,21.61 -22.942,27.116c-3.309,3.813 -21.866,22.997 -25.444,23.637c-2.362,-4.003 -5.033,-22.965 -2.925,-27.757c-0.131,-7.558 3.821,-19.795 6.229,-26.113c4.051,-10.623 6.635,-12.886 10.539,-20.791c-5.365,4.161 -11.285,17.901 -14.404,27.359c-1.725,5.232 -3.135,11.453 -3.879,17.347c-1.256,9.965 -0.012,17.185 -0.492,20.062c0.408,0.674 0.007,-0.387 0.573,1.26c0.169,0.492 0.335,1.219 0.442,1.707c0.449,2.061 1.469,7.853 2.927,8.506c4.171,0.079 9.502,-6.561 12.084,-8.502c1.477,11.513 0.894,31.535 0.009,43.433c-0.083,-0.102 -0.205,-0.398 -0.242,-0.312l-3.335,-5.219c-7.954,-11.365 -20.707,-18.743 -32.462,-30.659c-5.279,-5.352 -10.361,-12.38 -13.282,-23.014c-2.031,-7.398 -4.206,-26.622 0.403,-32.307l0.153,-1.797c-2.377,0.53 -0.525,-0.648 -1.867,1.427c-1.75,2.706 -4.762,11.79 -5.619,14.899c-1.838,6.672 -2.648,12.944 -5.554,18.1c-1.491,-0.731 -1.085,-0.268 -1.74,-1.492c-1.651,-8.148 -2.952,-9.675 -2.275,-19.873c0.425,-6.408 1.313,-13.392 2.723,-19.265c1.436,-5.982 3.125,-10.995 5.153,-16.511c1.157,-3.148 5.818,-12.823 4.776,-15.339c-5.554,3.886 -12.07,18.32 -15.265,25.932c-1.045,2.489 -1.926,8.271 -4.342,9.069c-4.259,-3.361 -0.435,-21.542 0.719,-27.5c1.836,-9.477 4.544,-15.685 7.683,-23.575c5.126,-12.882 13.817,-22.565 21.714,-32.765c1.365,-1.763 2.005,-2.491 3.136,-4.51c-2.366,1.303 -4.76,4.624 -6.577,6.895l-6.219,7.233c3.114,-9.243 21.397,-33.566 29.655,-41.687c3.776,-3.712 7.617,-7.488 11.857,-11.145c45.43,-39.198 114.167,-61.227 172.77,-44.736c19.518,5.493 24.876,12.734 30.313,15.219c-0.679,-7.668 -6.108,-13.731 -8.166,-20.012c10.799,0.517 18.106,18.58 19.895,19.99c1.722,-1.757 2.952,-3.822 4.968,-5.757c5.502,-5.281 12.841,-9.181 20.804,-9.777c-0.757,1.791 -0.115,0.537 -1.322,1.943c-2.889,3.365 -5.086,5.548 -7.229,10.031c23.283,2.333 36.084,6.774 53.028,18.314c9.331,6.355 32.164,25.455 37.238,34.896Zm-326.01,188.654c1.015,0.815 1.807,1.94 2.386,2.742c2.207,1.088 9.577,9.874 10.139,13.667c0.882,0.967 0.743,1.999 2.031,2.683c0.769,-0.402 1.196,0.721 1.713,-4.596c0.202,-2.084 0.247,-4.23 0.284,-6.239c0.081,-4.386 0.405,-8.615 0.517,-12.85c0.24,-9.199 -0.407,-17.396 -0.63,-26.29l15.238,-15.11c2.888,-2.813 3.211,-4.247 5.279,-5.318c-1.725,3.602 -9.289,12.261 -9.46,15.178c5.276,3.495 26.85,-7.011 32.637,-8.674c-3.687,3.022 -6.822,6.323 -9.158,11.439c-1.933,4.233 -4.631,12.105 -2.596,16.918c5.702,1.116 4.333,-10.382 15.281,-13.657c4.56,-1.364 8.531,0.308 11.801,2.288c2.205,1.334 7.293,4.749 8.245,7.017c2.514,0.619 4.811,4.674 9.021,5.843c6.587,0.225 3.145,-7.302 1.18,-11.084c-2.005,-3.858 -4.125,-7.105 -6.752,-10.077c-5.736,-6.488 -10.35,-11.296 -22.336,-10.859c2.719,-2.254 11.477,-6.107 15.297,-8.336l14.435,-8.613c-4.367,5.666 -14.315,12.023 -14.81,15.91c5.185,4.03 24.901,-8.041 29.1,-10.572c8.362,-5.039 22.846,-16.664 24.422,-17.571c-0.786,3.329 -4.527,9.85 -6.214,12.441c-1.689,2.591 -6.709,7.767 -6.788,11.501c6.692,-0.283 11.585,-6.267 16.168,-10.393c9.147,-8.237 21.105,-22.886 28.519,-33.488c10.889,-15.571 11.527,-19.301 19.689,-33.904c1.066,2.274 2.379,11.073 6.928,20.966c7.71,16.765 17.719,26.513 30.522,37.985c1.684,1.51 8.475,6.014 9.533,1.747c1.441,-5.808 -8.026,-18.968 -9.669,-28.758c9.764,16.907 24.185,32.113 38.025,44.426l5.371,4.88c1.646,2.23 8.076,17.9 9.822,21.676c2.65,5.734 9.407,25.957 9.921,31.771c1.483,1.946 0.198,1.862 1.953,1.589c0.63,-0.481 0.682,-1.359 0.901,-2.639c1.72,-10.059 3.494,-12.667 7.492,-21.514c0.318,-1.311 0.022,-0.402 0.427,-1.702c0.051,-0.163 0.211,-0.658 0.272,-0.82l0.571,-1.266c1.178,-1.132 5.747,-9.434 13.954,-16.186c11.521,-9.479 27.324,-16.302 30.31,-31.495c2.162,-11.002 -1.773,-17.835 -4.505,-26.291c1.755,1.235 3.822,5.112 5.263,7.641c2.258,3.962 3.19,7.099 5.597,7.465c3.028,-8.22 -3.506,-24.601 -6.554,-31.891c2.893,2.39 4.052,3.819 6.15,7.83c1.688,3.228 3.482,7.393 5.827,8.798c5.19,-2.586 2.371,-21.352 1.664,-27.981c-2.572,-24.098 -11.11,-44.581 -24.085,-63.192c-1.359,-1.949 -2.212,-2.614 -3.43,-4.835c-1.126,-0.31 -0.789,-0.409 -2.257,-2.272c-0.741,-0.939 -1.243,-1.563 -1.987,-2.462c-1.414,-1.707 -2.746,-2.975 -4.31,-4.524c-2.974,-2.944 -5.804,-5.758 -8.94,-8.683c-19.335,-18.029 -43.328,-33.081 -71.273,-32.901c1.915,-5 7.928,-8.849 8.376,-12.703c-7.492,-0.997 -16.855,4.068 -22.309,8.962c-2.231,2.003 -3.267,3.609 -5.177,5.172c-2.286,-2.62 -3.455,-7.23 -8.775,-12.555c-2.338,-2.341 -8.585,-8.119 -13.864,-5.906c-0.019,2.962 6.802,13.424 8.172,17.854c-2.364,-1.24 -4.938,-3.339 -7.633,-4.919c-20.638,-12.094 -47.701,-14.992 -70.856,-13.948c-59.93,3.848 -109.891,33.604 -139.515,66.48c-7.921,8.791 -14.993,18.893 -22.107,30.773c-3.142,5.247 -5.91,12.714 -8.919,17.491c-3.409,5.41 -6.419,11.172 -9.072,17.841c-3.955,9.94 -10.831,36.707 -7.838,45.36c1.645,4.756 5.157,3.099 6.714,-1.137c1.339,-3.639 2.36,-6.4 3.732,-9.815c2.545,-6.335 5.866,-13.095 9.405,-17.306c-2.506,9.767 -6.981,14.639 -9.991,32.206c-1.021,5.953 -1.937,13.66 -1.764,19.924c0.166,6.027 1.354,14.277 4.856,16.839c6.754,-2.491 5.889,-17.571 9.34,-22.603c0.775,9.553 0.409,14.487 3.166,23.409c4.944,16.002 17.028,25.618 28.712,35.342c1.84,1.532 5.564,4.999 7.216,5.881" style="fill:#824d14;"/><path d="M696.013,124.934c5.249,1.952 10.33,37.46 14.672,39.597c8.691,-5.539 -3.098,-59.918 -9.956,-75.248c-1.11,-2.482 -5.098,-10.464 -6.542,-10.853c-3.027,-0.814 -0.543,3.891 -0.164,5.337l2.179,25.068c-1.189,-0.866 -3.284,-4.281 -4.486,-5.955c-11.742,-16.349 -13.11,1.487 -14.262,3.564c-6.314,-1.178 -10.773,-10.717 -18.494,-9.001c-1.676,1.919 -1.511,2.654 -1.404,6.231c-2.354,-2.301 -3.912,-7.128 -5.806,-10.21c-1.443,-2.346 -2.035,-2.487 -3.55,-4.334c-0.398,-0.486 -4.09,-5.975 -4.709,-0.562c-0.098,0.851 0.038,1.59 0.206,2.41l9.959,25.675c7.611,19.408 23.326,50.312 33.469,68.825c1.387,2.532 5.598,12.194 8.452,9.909c0.742,-0.804 0.458,0.513 0.756,-1.923c0.315,-2.573 -4.525,-32.004 -4.84,-33.475c-2.239,-10.465 -7.032,-22.212 -8.348,-32.237c2.829,2.652 10.07,17.135 14.388,14.583c1.374,-1.206 0.036,-4.649 -0.681,-8.518c-0.537,-2.896 -1.035,-5.763 -0.839,-8.883" style="fill:#d99d57;"/><path d="M421.48,330.558c-1.192,0.604 -0.485,0.593 -1.834,0.208l-1.482,-0.968c-1.064,-0.71 -2.052,-1.083 -3.106,-1.758c-4.39,-2.81 -12.075,-11.103 -13.25,-16.582c-8.764,-22.082 7.446,-32.514 18.837,-16.205c0.707,-3.058 -0.255,-10.89 -0.327,-14.635c-0.562,-3.793 -7.933,-12.579 -10.139,-13.667c-17.217,-1.66 -31.581,29.863 -12.108,58.743c2.231,3.308 4.946,7.145 7.868,9.871c4.632,4.322 15.956,13.021 24.297,5.673l-4.001,-13.511c-1.5,1.096 -2.117,2.416 -4.755,2.831" style="fill:#fad5bd;"/><path d="M703.23,246.334c5.183,-1.556 8.843,-1.219 13.464,0.914c4.044,1.868 5.847,3.846 7.852,7.829c7.686,15.269 1.292,38.525 -9.696,48.926c-8.997,8.518 -17.15,2.817 -22.947,0.098c0.556,-4.912 2.333,-9.179 2.773,-15.097c0.469,-6.318 -0.232,-12.456 0.161,-18.517c-1.755,0.273 -0.47,0.357 -1.953,-1.589c0.093,20.552 0.531,24.333 -5.569,42.877c-2.998,9.114 -6.667,17.076 -11.231,24.706c-0.767,1.282 -1.486,2.577 -2.233,3.725l-2.413,3.151c-3.281,7.501 -18.368,21.635 -25.635,27.2c-9.493,7.27 -21.23,14.029 -33.666,18.997c-38.061,15.203 -90.904,18.755 -130.282,2.916c-26.597,-10.698 -40.994,-26.161 -50.965,-55.646c-5.096,-15.071 -7.111,-30.02 -8.338,-47.138l-0.203,-6.385c-1.288,-0.684 -1.149,-1.716 -2.031,-2.683c0.072,3.745 1.034,11.577 0.327,14.635c0.621,2.971 2.869,14.71 1.828,17.347c0.77,0.851 0.83,0.844 1.238,2.804c2.346,11.277 2.68,10.195 -1.719,13.704c-0.469,0.375 -0.354,0.13 -0.608,0.647c-0.571,1.166 -1.901,-0.574 0.096,0.803c2.638,-0.415 3.255,-1.735 4.755,-2.831l4.001,13.511c-8.341,7.348 -19.665,-1.351 -24.297,-5.673c-2.922,-2.726 -5.636,-6.563 -7.868,-9.871c-19.473,-28.88 -5.109,-60.403 12.108,-58.743c-0.579,-0.802 -1.371,-1.927 -2.386,-2.742c-0.815,0.881 0.177,0.189 -1.186,0.805l-4.812,1.851c-6.497,3.287 -9.716,7.324 -12.45,15.65c-7.121,21.683 2.519,41.249 16.133,55.119c4.923,5.016 11.715,8.93 19.032,8.127c3.15,-0.345 4.363,-1.633 6.605,-2.341c1.179,1.82 3.13,7.193 4.111,9.289c10.151,21.683 27.841,35.733 49.738,43.009c53.754,17.862 117.775,9.648 163.487,-24.8c9.425,-7.103 18.996,-17.659 25.569,-27.451c5.361,-7.984 14.933,-25.202 16.972,-37.58c7.056,3.207 13.903,8.579 24.354,0.226c8.936,-7.142 14.96,-23.6 14.231,-37.224c-0.138,-2.602 -0.438,-4.891 -1.006,-7.454c-2.544,-11.461 -10.102,-18.562 -20.225,-18.016c-0.232,0.012 -1.819,0.152 -1.88,0.144c-2.035,-0.239 -0.956,0.652 -1.966,-1.017l-0.571,1.266c-0.061,0.162 -0.221,0.657 -0.272,0.82c-0.405,1.3 -0.109,0.391 -0.427,1.702" style="fill:#b36f41;"/><path d="M709.983,295.126c-6.153,0.575 -8.581,-3.77 -9.58,-9.685c-2.255,-13.35 2.523,-30.617 12.535,-25.219c4.268,2.301 5.539,7.537 5.575,14.028c-1,4.73 -1.561,13.717 -6.131,18.278c-2.989,2.982 -0.392,2.228 -2.399,2.598Zm-6.753,-48.792c-3.998,8.847 -5.772,11.455 -7.492,21.514c-0.219,1.28 -0.271,2.158 -0.901,2.639c-0.393,6.061 0.308,12.199 -0.161,18.517c-0.44,5.918 -2.217,10.185 -2.773,15.097c5.797,2.719 13.95,8.42 22.947,-0.098c10.988,-10.401 17.382,-33.658 9.696,-48.926c-2.005,-3.983 -3.808,-5.961 -7.852,-7.829c-4.621,-2.133 -8.281,-2.47 -13.464,-0.914" style="fill:#fad5bd;"/><path d="M406.276,232.455c-0.412,3.832 0.249,8.022 1.286,11.431c1.536,5.049 5.415,8.018 2.779,7.533c-0.059,-0.011 -0.202,-0.045 -0.262,-0.068l-11.81,-11.661c-4.764,-4.467 -8.452,-8.406 -12.368,-13.152c-5.966,-7.229 -14.115,-25.018 -12.508,-39.19c-4.61,5.685 -2.434,24.909 -0.403,32.307c2.921,10.634 8.003,17.662 13.282,23.014c11.755,11.916 24.508,19.294 32.462,30.659l3.335,5.219c0.036,-0.086 0.159,0.21 0.242,0.312c0.885,-11.898 1.468,-31.92 -0.009,-43.433c-2.582,1.941 -7.913,8.581 -12.084,8.502c-1.458,-0.653 -2.478,-6.445 -2.927,-8.506c-0.107,-0.488 -0.273,-1.215 -0.442,-1.707c-0.566,-1.647 -0.165,-0.586 -0.573,-1.26" style="fill:#a35624;"/><path d="M422.349,283.301l0.203,6.385l1.24,-2.581c0.292,-0.971 0.58,-2.104 0.872,-3.151c3.005,-10.771 5.212,-21.496 6.694,-32.763c1.642,-12.478 -0.208,-15.037 3.468,-15.212c6.011,-0.285 4.601,-0.037 10.934,-2.525c0.965,-0.379 3.159,-1.467 3.918,-0.615c1.651,2.997 -8.764,30.486 1.158,36.776c0.935,-3.291 3.957,-9.285 5.502,-12.527c1.981,-4.156 4.362,-8.06 7.419,-10.89c6.115,-5.663 19.12,-7.761 27.743,-2.791c-0.952,-2.268 -6.04,-5.683 -8.245,-7.017c-3.27,-1.98 -7.241,-3.652 -11.801,-2.288c-10.948,3.275 -9.579,14.773 -15.281,13.657c-2.035,-4.813 0.663,-12.685 2.596,-16.918c2.335,-5.116 5.471,-8.417 9.158,-11.439c-5.787,1.663 -27.361,12.169 -32.637,8.674c0.171,-2.917 7.735,-11.576 9.46,-15.178c-2.068,1.071 -2.391,2.505 -5.279,5.318l-15.238,15.11c0.223,8.894 0.87,17.091 0.629,26.29c-0.111,4.235 -0.435,8.464 -0.516,12.85c-0.037,2.009 -0.082,4.155 -0.284,6.238c-0.517,5.318 -0.944,4.195 -1.713,4.597" style="fill:#f2a881;"/><path d="M540.712,379.891c7.351,5.107 7.97,2.96 11.474,0.534c7.327,-5.075 17.934,-7.687 26.896,-6.359c7.67,1.137 6.514,2.136 10.635,-3.694c4.706,-6.658 7.63,-17.358 7.665,-28.157c-6.558,2.668 -3.694,7.456 -12.775,15.261c-9.616,8.266 -29.601,12.845 -42.149,12.199c-12.591,-0.65 -15.833,-5.31 -21.268,-4.995l19.522,15.211Z" style="fill:#910000;"/><path d="M606.433,342.113l1.928,1.013c0.476,0.157 1.448,0.367 1.884,0.477c-3.057,1.797 -7.467,0.075 -10.472,-0.864c-0.31,12.844 -4.274,24.168 -10.129,31.168c-1.475,1.763 -2.854,3.389 -4.875,4.93c-6.467,4.927 -14.062,7.367 -22.255,7.595c-12.604,0.349 -21.158,-4.124 -29.341,-10.079c-20.696,-15.061 -7.464,-9.709 -26.464,-13.223c19.646,-1.512 27.534,1.418 51.19,-4.246c7.344,-1.758 14.633,-3.938 21.168,-7.043c11.499,-5.462 10.708,-7.1 17.426,-11.143c-1.464,-2.274 -2.746,-2.55 -4.095,-6.233c2.535,1.887 9.901,7.835 14.035,7.648m-0,-0c-5.059,-3.05 -6.192,-2.237 -11.835,-7.511c-0.917,-0.857 -2.527,-2.742 -3.243,-2.665c-0.976,2.526 -0.679,5.645 -0.135,8.268c-1.989,2.835 -13.943,8.629 -18.292,10.524c-22.527,9.817 -49.674,11.767 -73.998,11.487c0.105,0.099 0.266,0.084 0.326,0.28l3.475,1.644c5.892,1.754 7.305,1.564 12.948,2.579c2.444,0.44 1.866,0.586 3.185,2.264c1.03,1.308 1.561,1.62 2.663,2.733c30.361,30.683 81.804,19.04 81.368,-25.862c3.758,0.355 8.468,0.905 9.906,-3.037c-2.653,0.028 -4.269,-0.578 -6.368,-0.704" style="fill:#f2a881;"/><path d="M468.389,317.414l1.396,0.391c-2.16,-4.23 -3.303,-5.443 -4.217,-11.632c-0.75,-5.078 -0.52,-10.682 0.324,-15.817c1.614,-9.817 5.771,-17.767 11.312,-21.511c12.658,-8.55 20.69,9.597 21.488,22.766c0.395,6.497 -1.268,11.134 -1.213,15.702c0.249,1.864 8.112,-12.807 1.582,-33.656c-2.828,-9.029 -10.216,-22.354 -21.772,-16.603c-7.696,3.829 -13.257,14.265 -15.44,25.756c-2.567,13.507 -1.257,27.777 6.54,34.605" style="fill:#fdf9f5;"/><path d="M597.094,299.655c-13.667,-26.487 -2.258,-54.049 12.847,-46.669c11.635,5.685 21.337,29.993 13.039,46.278c-1.136,2.23 -3.304,3.761 -3.624,5.291c0.004,0.917 0.222,0.348 1.352,-0.36c1.464,-0.568 2.003,-1.743 3.109,-2.976c0.944,-1.051 2.421,-2.483 2.975,-3.145c1.479,-6.599 3.456,-7.777 2.478,-18.504c-1.404,-15.403 -10.721,-37.494 -25.748,-37.033c-14.484,0.445 -24.251,35.312 -9.004,55.466c2.642,3.491 2.043,2.208 2.576,1.652" style="fill:#fdf9f5;"/><path d="M401.808,311.458c1.175,5.479 8.86,13.772 13.25,16.582c1.054,0.675 2.042,1.048 3.106,1.758l1.482,0.968c1.349,0.385 0.642,0.396 1.834,-0.208c-1.997,-1.377 -0.667,0.363 -0.096,-0.803c0.254,-0.517 0.139,-0.272 0.608,-0.647c4.399,-3.509 4.065,-2.426 1.718,-13.704c-0.407,-1.96 -0.467,-1.953 -1.237,-2.804c-0.484,6.955 -10.964,9.534 -14.224,3.209c7.028,2.105 10.646,0.959 12.317,-6.371c1.916,-8.407 -1.717,-11.565 -5.116,-15.413c-4.08,-4.617 -9.22,-5.385 -12.895,0.035c-4.282,6.315 -0.251,15.463 -0.747,17.398" style="fill:#f2a881;"/><path d="M612.346,327.747l0.953,-3.265l-0.318,-0.685c-0.313,-2.882 1.292,-7.33 2.531,-9.45c-0.586,-0.549 0.118,-0.023 -0.822,-0.58c-0.016,-0.009 -0.716,-0.313 -0.847,-0.382l-6.67,-0.002c-4.129,1.845 -13.905,-6.885 -15.356,-8.769c-3.25,-4.22 -6.603,-10.087 -8.219,-17.234c-1.679,-7.429 -1.348,-16.945 0.369,-24.161c6.313,-26.547 26.222,-29.727 39.518,-9.75c7.683,11.545 10.515,23.717 8.659,41.105c1.695,-0.444 3.5,-1.66 5.337,-1.021c1.1,-0.446 2.635,-0.493 3.197,-1.915l-5.006,0.195c1.485,-19.428 -3.516,-33.922 -12.451,-43.758c-7.305,-8.041 -17.301,-13.818 -28.36,-7.897c-3.609,1.932 -5.23,3.979 -7.631,6.518c-17.446,18.451 -8.152,69.719 24.748,70.626c-0.744,4.019 -1.432,8.978 0.257,12.565l0.111,-2.14Z" style="fill:#f2a881;"/><path d="M561.115,385.108l-9.886,-0.858c4.451,-6.479 24.243,-11.981 32.618,-7.463c-7.004,5.108 -13.101,8.321 -22.732,8.321Zm-32.993,-20.536c13.908,-1.968 16.297,-0.146 33.6,-4.561c14.215,-3.627 16.137,-6.284 27.171,-11.36c-9.461,19.093 -49.357,24.26 -60.771,15.921Zm-6.932,0.108c5.435,-0.315 8.677,4.345 21.268,4.995c12.548,0.646 32.533,-3.933 42.149,-12.199c9.081,-7.805 6.217,-12.593 12.775,-15.261c-0.035,10.799 -2.959,21.499 -7.665,28.157c-4.121,5.83 -2.965,4.832 -10.635,3.694c-8.962,-1.328 -19.569,1.284 -26.896,6.359c-3.504,2.426 -4.123,4.573 -11.474,-0.534l-19.522,-15.211Zm85.243,-22.567c-4.134,0.187 -11.5,-5.761 -14.035,-7.648c1.349,3.683 2.631,3.959 4.095,6.233c-6.718,4.043 -5.927,5.681 -17.426,11.144c-6.535,3.104 -13.824,5.284 -21.168,7.042c-23.656,5.664 -31.544,2.734 -51.19,4.246c19,3.514 5.768,-1.838 26.464,13.223c8.183,5.955 16.737,10.428 29.341,10.079c8.193,-0.228 15.788,-2.668 22.255,-7.595c2.021,-1.541 3.4,-3.167 4.875,-4.93c5.855,-7 9.819,-18.324 10.129,-31.168c3.005,0.939 7.415,2.661 10.472,0.864c-0.436,-0.11 -1.408,-0.32 -1.884,-0.477l-1.928,-1.013Z" style="fill:#a35624;"/><path d="M489.248,339.965c-0.413,1.625 -0.12,0.538 -0.988,1.627l-3.875,3.426c-1.233,0.831 -1.883,0.995 -3.375,1.44c-1.081,0.323 -0.641,0.121 -1.76,0.648c-0.097,0.046 -0.209,0.124 -0.306,0.17c-3.004,1.425 -6.244,0.646 -8.929,-0.08c-6.946,-1.877 -4.975,-1.368 -9.869,-6.069c-0.051,-0.048 -0.159,-0.147 -0.205,-0.194l-1.025,-1.586c-1.883,-3.724 -1.206,-0.89 -2.444,-5.568c-2.676,-10.105 0.057,-14.492 0.153,-16.313l-3.253,-1.019c-2.53,2.854 -5.932,1.697 -6.72,6.872c-0.775,5.093 0.94,13.181 3.33,17.659c2.729,5.113 0.963,2.311 4.094,6.313l5.28,5.01c2.524,1.365 6.514,3.393 9.312,4.136c3.483,0.924 10.55,1.344 13.836,-1.098c3.879,-2.881 5.261,-1.092 7.143,-2.89c1.43,-1.366 1.343,-6.846 0.874,-9.389l-1.273,-3.095Z" style="fill:#f8c8b1;"/><path d="M453.372,316.447l3.253,1.019l0.864,-0.275l-0.466,-1.145l4.186,-0.241c-9.164,-22.089 0.108,-52.487 13.06,-60.018c6.012,-3.495 13.981,-2.191 18.741,1.832c12.94,10.938 19.486,41.487 5.471,60.144c-7.085,9.432 -10.267,7.491 -15.299,10.557c1.24,2.255 4.891,5.759 5.414,8.668l0.514,1.037c0.465,0.638 0.082,0.28 0.58,0.83c0.066,0.074 0.175,0.201 0.25,0.28l0.95,0.824c-0.584,-5.192 -1.824,-5.661 -3.418,-9.055c2.888,-2.096 9.533,-2.399 14.775,-12.051c3.496,-6.437 5.189,-13.56 5.838,-22.292c1.357,-18.279 -3.691,-35.231 -13.47,-42.277c-14.772,-10.644 -27.854,1.612 -33.673,12.032c-8.49,15.202 -7.145,29.954 -2.768,47.525c-3.232,0.425 -5.78,0.923 -8.356,2.406l3.554,0.2Z" style="fill:#f2a881;"/><path d="M491.186,295.216c0.766,1.088 1.066,0.994 0.527,4.641c-2.102,14.219 -12.652,14.523 -16.26,8.225c-5.148,-8.985 -0.363,-25.993 8.351,-24.688c-0.244,-10.357 5.756,-13.858 10.209,-5.711c2.596,4.75 5.061,17.764 -2.827,17.532Zm6.252,-3.291c0.898,10.875 -3.729,20.562 -9.263,24.721c-8.235,6.189 -16.792,0.682 -19.919,-7.313c-6.947,-17.759 6.634,-50.116 20.555,-39.539c-8.058,-0.41 -7.279,7.66 -8.852,9.337c-0.408,0.435 -9.754,4.166 -9.764,20.254c-0.004,7.546 1.851,9.768 5.913,15.606c0.866,1.244 2.096,1.703 3.564,1.95c13.532,2.275 14.722,-17.946 15.54,-19.378c0.816,-1.43 2.51,-3.336 2.226,-5.638Zm-27.653,25.881l8.452,5.325c5.44,1.104 9.689,-1.643 12.488,-4.656c1.572,-1.692 2.517,-2.723 3.793,-5.107c1.018,-1.901 1.585,-4.689 2.961,-6.054c-0.055,-4.568 1.608,-9.205 1.213,-15.702c-0.798,-13.169 -8.83,-31.316 -21.488,-22.766c-5.541,3.744 -9.698,11.694 -11.312,21.511c-0.844,5.135 -1.074,10.739 -0.324,15.817c0.914,6.189 2.057,7.402 4.217,11.632" style="fill:#3d2616;"/><path d="M541.243,296.906c-0.029,1.073 0.323,6.819 0.482,8.21l0.232,1.187c2.118,-1.597 5.399,-6.036 6.771,-9.792c5.269,-14.43 -4.223,-31.02 -12.083,-35.624c-3.861,-2.262 -9.382,-2.317 -11.199,1.546c-3.918,8.334 11.16,11.038 15.797,34.473" style="fill:#fce9da;"/><path d="M643.506,153.55c0.583,-3.048 -2.403,-15.44 -3.087,-19.127c-3.986,-21.478 -1.948,-40.893 -5.08,-51.704c-2.58,-8.908 -9.241,0.996 -7.753,19.409c1.371,16.964 5.479,33.938 13.079,48.58c0.933,1.796 0.922,2.8 2.841,2.842" style="fill:#d99d57;"/><path d="M614.86,276.648c0.129,0.112 0.295,0.209 0.421,0.276c0.123,0.065 0.269,0.18 0.42,0.251l2.466,0.506c4.507,11.729 -5.309,24.706 -13.647,15.941c-2.711,-2.849 -4.66,-8.043 -4.559,-13.862c0.085,-4.972 2.039,-11.222 6.986,-11.629c-4.112,-10.317 2.651,-15.393 9.249,-8.128c3.095,3.408 9.567,17.815 -1.336,16.645Zm-17.399,19.601c-0.131,-1.501 -2.62,-5.197 -3.122,-8.179c-0.143,-0.156 -0.718,0.023 -1.223,-2.637c-0.143,-0.757 -0.282,-2.124 -0.419,-3.044c-1.895,-12.687 0.289,-31.422 15.217,-29.465l-0.552,0.531c-0.264,0.209 -4.708,1.673 -4.959,9.268c-0.13,3.954 -0.411,2.386 -2.308,4.952c-0.912,1.233 -1.752,2.875 -2.204,4.761c-1.009,4.208 -1.007,9.121 -0.237,13.466c0.553,3.123 2.973,8.577 4.326,10.03c1.233,1.323 2.814,2.046 4.185,3.143c1.713,1.371 1.225,2.216 4.31,2.186c4.186,-0.041 7.136,-2.754 8.692,-5.191c5.002,-7.835 1.672,-15.163 2.269,-18.132c0.571,-2.845 0.79,-2.827 0.957,-6.303c3.472,9.696 2.919,21.023 -3.051,27.732c-2.688,3.021 -6.585,5.656 -12.036,4.612c-3.619,-0.692 -8.583,-3.909 -9.845,-7.73Zm-0.367,3.406c2.607,2.955 4.478,6.442 9.333,7.859c6.128,1.788 8.866,-0.819 12.929,-2.959c0.32,-1.53 2.488,-3.061 3.624,-5.291c8.298,-16.285 -1.404,-40.593 -13.039,-46.278c-15.105,-7.38 -26.514,20.182 -12.847,46.669" style="fill:#3d2616;"/><path d="M607.173,313.383l6.67,0.002c2.644,-0.168 2.81,-1.879 3.92,-3.883c0.974,-1.76 2.357,-3.522 2.945,-5.307c-1.13,0.708 -1.348,1.277 -1.352,0.36c-4.063,2.14 -6.801,4.747 -12.929,2.959c-4.855,-1.417 -6.726,-4.904 -9.333,-7.859c-0.533,0.556 0.066,1.839 -2.576,-1.652c-15.247,-20.154 -5.48,-55.021 9.004,-55.466c15.027,-0.461 24.344,21.63 25.748,37.033c0.978,10.727 -0.999,11.905 -2.478,18.504c4.105,-2.368 4.397,-2.224 4.942,-8.091c1.483,-15.972 -6.149,-38.158 -18.95,-45.828c-20.809,-12.468 -31.914,19.924 -28.381,41.253c1.943,11.731 12.684,27.501 22.77,27.975" style="fill:#e7ddd2;"/><path d="M408.283,214.591c-2.108,4.792 0.563,23.754 2.925,27.757c3.578,-0.64 22.135,-19.824 25.443,-23.637c4.778,-5.506 20.112,-19.358 22.943,-27.116l-11.81,9.502c-1.979,1.673 -4.023,3.209 -5.973,4.739c-6.497,5.095 -24.07,22.684 -28.975,23.349c-4.18,-10.228 -1.043,-11.846 -0.854,-22.295c-1.838,2.996 -2.105,7.334 -3.805,10.09l0.106,-2.389Z" style="fill:#a35624;"/><path d="M542.385,164.02c4.26,-1.89 10.912,-10.807 14.049,-15.029c8.194,-11.027 15.37,-26.347 17.57,-41.504c1.04,-7.164 1.485,-21.579 -1.688,-27.232c-2.689,19.491 -3.273,27.689 -10.687,46.607c-2.728,6.963 -5.661,13.337 -8.956,19.511l-10.288,17.647Z" style="fill:#d99d57;"/><path d="M637.481,293.553c0.841,2.813 -0.021,0.138 2.531,3.09l3.177,6.942c1.739,5.419 1.254,12.835 -0.824,17.594c-0.488,1.117 -0.224,0.615 -0.917,1.633c-2.354,3.461 -2.409,4.217 -6.064,6.331c-1.316,0.762 -0.159,0.093 -1.396,0.97c-3.953,2.799 -10.117,2.714 -14.281,1.584c-1.551,-0.421 -2.192,-0.52 -3.531,-1.329c-1.128,-0.681 -1.795,-1.38 -2.97,-1.783l0.093,-4.103l-0.953,3.265l1.334,8.126c0.911,0.415 0.966,0.484 1.697,1.003c1.342,0.954 0.37,0.655 1.757,1.01c10.533,2.694 15.35,-0.853 19.052,-1.695c1.62,-0.368 0.493,0.376 1.519,-0.557l4.457,-4.244c5.745,-6.298 8.06,-12.255 7.992,-21.673c-0.029,-4.016 -0.31,-8.094 -1.76,-10.514c-1.782,-2.972 -1.17,-3.142 -4.346,-6.573l-0.549,-0.555c-1.26,-0.044 -1.968,-0.231 -2.821,-0.437c-0.562,1.422 -2.097,1.469 -3.197,1.915" style="fill:#f8c4ab;"/><path d="M468.389,317.414c-7.797,-6.827 -9.107,-21.097 -6.54,-34.604c2.183,-11.491 7.744,-21.927 15.44,-25.756c11.556,-5.751 18.944,7.574 21.772,16.603c6.53,20.849 -1.333,35.52 -1.582,33.656c-1.376,1.365 -1.943,4.153 -2.961,6.054c-1.276,2.384 -2.221,3.415 -3.793,5.107c-2.799,3.013 -7.048,5.76 -12.488,4.656c3.07,4.996 4.991,4.253 8.485,2.783c23.934,-10.067 22.517,-51.725 6.036,-66.986c-19.283,-17.856 -40.966,21.084 -32.047,52.077c1.745,6.063 2.021,5.249 7.678,6.41" style="fill:#e7ddd2;"/><path d="M617.352,343.61c0.786,2.491 1.574,2.798 3.523,4.226c4.514,3.307 5.591,2.856 13.501,0.653l14.883,-8.718l4.951,-6.333c1.693,-2.703 0.423,-2.143 2.421,-5.115c2.042,-3.038 1.874,-3.661 2.793,-7.572c1.638,-6.974 1.851,-12.805 -0.091,-19.294c-1.155,-3.859 -4.098,-5.642 -7.913,-7.652c0.824,6.604 7.173,9.511 1.669,29.543l-4.034,7.934c-3.11,4.238 -3.527,4.181 -6.96,7.267c-0.879,0.79 -0.452,0.592 -1.598,1.331l-5.478,2.71c-5.064,2.24 -12.183,1.864 -17.667,1.02" style="fill:#f8d0b7;"/><path d="M613.68,335.873c0.901,3.405 2.281,5.381 3.672,7.737c5.484,0.844 12.603,1.22 17.667,-1.02l5.478,-2.71c1.146,-0.739 0.719,-0.541 1.598,-1.331c3.433,-3.086 3.85,-3.029 6.96,-7.267l4.034,-7.934c5.504,-20.032 -0.845,-22.939 -1.669,-29.543c-1.125,0.034 -5.275,-1.556 -7.921,-1.73l0.549,0.555c3.176,3.431 2.564,3.601 4.346,6.573c1.45,2.42 1.731,6.498 1.76,10.514c0.068,9.418 -2.247,15.375 -7.992,21.673l-4.457,4.244c-1.026,0.933 0.101,0.189 -1.519,0.557c-3.702,0.842 -8.519,4.389 -19.052,1.695c-1.387,-0.355 -0.415,-0.056 -1.757,-1.01c-0.731,-0.519 -0.786,-0.588 -1.697,-1.003" style="fill:#f8c8b1;"/><path d="M614.86,276.648c-3.579,-1.444 -6.783,-4.867 -7.913,-8.517c-4.947,0.406 -6.901,6.657 -6.986,11.629c-0.101,5.819 1.848,11.013 4.559,13.862c8.338,8.765 18.154,-4.212 13.647,-15.941l-2.466,-0.506c-0.151,-0.071 -0.297,-0.187 -0.42,-0.251c-0.126,-0.067 -0.292,-0.164 -0.421,-0.276" style="fill:#050106;"/><path d="M709.983,295.126c2.007,-0.37 -0.59,0.384 2.399,-2.598c4.57,-4.561 5.131,-13.548 6.131,-18.278c-2.928,-17.666 -12.163,-13.765 -14.674,-6.754c-3.821,10.666 2.84,15.933 6.323,15.716c2.71,-0.168 3.002,-1.648 5.038,-2.917c-1.978,6.265 -7.794,7.939 -13.141,0.09c-0.052,12.099 2.428,12.29 7.924,14.741" style="fill:#f2a881;"/><path d="M491.186,295.216c-4.355,-1.473 -6.672,-6.17 -7.382,-11.822c-8.714,-1.305 -13.498,15.703 -8.351,24.688c3.608,6.298 14.158,5.994 16.26,-8.225c0.539,-3.647 0.239,-3.553 -0.527,-4.641" style="fill:#050106;"/><path d="M497.438,291.925c0.284,2.301 -1.41,4.208 -2.226,5.637c-0.818,1.432 -2.008,21.653 -15.54,19.378c-1.468,-0.247 -2.698,-0.706 -3.564,-1.95c-4.062,-5.838 -5.917,-8.06 -5.913,-15.606c0.01,-16.088 9.356,-19.819 9.764,-20.254c1.573,-1.677 0.794,-9.747 8.852,-9.337c-13.921,-10.577 -27.501,21.78 -20.555,39.539c3.127,7.995 11.684,13.502 19.919,7.313c5.534,-4.159 10.161,-13.846 9.263,-24.72" style="fill:#744e32;"/><path d="M489.248,339.965l-0.138,-1.939l-0.514,-1.038l-2.491,-2.201c-1.695,-0.005 -1.235,0.424 -2.4,1.711c-0.067,0.074 -0.169,0.177 -0.237,0.249c-0.07,0.074 -0.182,0.165 -0.252,0.239c-2.322,2.404 -0.805,1.612 -2.372,2.443c-2.705,1.434 -6.03,1.165 -8.758,1.117c-3.543,-0.061 -2.642,-0.302 -4.362,-2.22c-0.963,-1.075 -3.498,-2.22 -4.547,-4.671c-4.001,-9.357 2.355,-12.623 -3.639,-13.083c0.191,0.166 0.938,2.235 0.277,-2.586c-4.046,-0.01 -0.821,0.19 -2.138,-1.056l-0.188,0.261l-0.864,0.275c-0.096,1.821 -2.829,6.208 -0.153,16.313c1.238,4.679 0.561,1.844 2.444,5.569l1.025,1.585c0.046,0.047 0.154,0.146 0.205,0.194c4.894,4.701 2.923,4.192 9.869,6.069c2.685,0.726 5.925,1.505 8.929,0.08c0.097,-0.046 0.209,-0.124 0.306,-0.17c1.119,-0.527 0.679,-0.325 1.76,-0.647c1.492,-0.446 2.142,-0.61 3.375,-1.441l3.875,-3.426c0.868,-1.089 0.575,-0.002 0.988,-1.627" style="fill:#f7baa5;"/><path d="M635.199,294.849c-1.935,4.218 0.125,0.413 0.47,3.505c4.618,-0.841 3.725,3.011 -0.587,3.039c0.59,0.666 1.504,0.987 2.048,2.128c0.514,1.079 0.345,1.482 0.763,2.726c0.992,2.95 1.626,4.809 0.205,9.796c-0.659,2.315 -0.093,0.491 -1.11,2.366c-2.534,4.669 -7.237,8.61 -13.204,7.635c-8.484,-1.385 -5.548,-4.453 -9.628,-4.221l-1.175,1.974l0.318,0.685l-0.093,4.103c1.175,0.403 1.842,1.102 2.97,1.783c1.339,0.809 1.98,0.908 3.531,1.329c4.164,1.13 10.328,1.215 14.281,-1.584c1.237,-0.877 0.08,-0.208 1.396,-0.97c3.655,-2.114 3.71,-2.87 6.064,-6.331c0.693,-1.018 0.429,-0.516 0.917,-1.633c2.078,-4.759 2.563,-12.175 0.824,-17.594l-3.177,-6.942c-2.552,-2.952 -1.69,-0.277 -2.531,-3.09l-2.282,1.296Z" style="fill:#f7baa5;"/><path d="M594.339,288.07c-0.949,-5.27 -1.358,-13.178 0.79,-15.196c1.035,1.785 0.416,5.792 0.696,8.845c0.472,5.124 1.73,9.491 4.531,13.407c2.044,2.858 3.61,3.284 4.58,4.86c-2.75,-0.026 -3.649,-0.77 -5.45,-2.267c-1.286,-1.069 -0.441,-0.604 -2.025,-1.47c1.262,3.821 6.226,7.038 9.845,7.73c5.451,1.044 9.348,-1.591 12.036,-4.612c5.97,-6.709 6.523,-18.036 3.051,-27.732c-0.167,3.476 -0.386,3.458 -0.957,6.303c-0.597,2.969 2.733,10.297 -2.269,18.132c-1.556,2.437 -4.506,5.15 -8.692,5.191c-3.085,0.03 -2.597,-0.815 -4.31,-2.186c-1.371,-1.097 -2.952,-1.82 -4.185,-3.143c-1.353,-1.453 -3.773,-6.907 -4.326,-10.03c-0.77,-4.345 -0.772,-9.258 0.237,-13.466c0.452,-1.886 1.292,-3.528 2.204,-4.761c1.897,-2.566 2.178,-0.998 2.308,-4.952c0.251,-7.595 4.695,-9.059 4.959,-9.268l0.552,-0.531c-14.928,-1.957 -17.112,16.778 -15.217,29.465c0.137,0.92 0.276,2.287 0.419,3.044c0.505,2.66 1.08,2.481 1.223,2.637" style="fill:#613d27;"/><path d="M528.122,364.572c11.414,8.339 51.31,3.172 60.771,-15.921c-11.034,5.076 -12.956,7.733 -27.171,11.36c-17.303,4.415 -19.692,2.593 -33.6,4.561" style="fill:#fefefd;"/><path d="M576.737,231.984c0.619,-3.295 6.398,-10.593 8.222,-12.597c7.619,-8.366 16.532,-13.984 27.525,-7.978c4.967,2.714 7.017,5.591 9.728,10.803l0.488,1.603c0.109,0.423 0.316,1.362 0.375,1.582c0.356,1.325 0.676,2.217 0.969,3.664c-2.445,-3.841 -6.451,-7.561 -11.042,-9.077c-9.838,-3.248 -21.259,2.664 -28.446,9.232l-0.759,0.717c-2.676,2.717 -2.892,2.053 -4.523,4.286c-1.224,1.676 -3.241,3.483 -4.776,4.71c-0.307,-1.916 1.327,-5.815 2.239,-6.945Zm49.591,0.175c2.203,-6.979 -7.588,-26.203 -25.163,-24.272c-17.88,1.964 -31.658,28.447 -29.266,32.516c2.46,4.185 9.251,-4.782 13.945,-9.186c6.399,-6.001 16.703,-12.988 26.027,-9.813c9.529,3.246 8.065,12.009 14.457,10.755" style="fill:#824d14;"/><path d="M358.766,218.485c0.655,1.224 0.249,0.761 1.74,1.492c2.906,-5.156 3.716,-11.428 5.554,-18.1c0.857,-3.109 3.869,-12.193 5.619,-14.899c1.342,-2.075 -0.51,-0.897 1.867,-1.427c-1.65,-5.835 2.087,-16.165 2.366,-21.264c-0.398,0.849 -2.69,3.564 -3.506,4.88c-6.134,9.879 -10.117,20.417 -12.145,32.517c-1.506,8.993 -0.665,13.227 -0.89,15.025c-0.255,2.026 0.234,0.554 -0.605,1.776" style="fill:#9a4b1c;"/><path d="M623.983,305.021c0.094,-0.064 0.211,-0.176 0.262,-0.223l0.51,-0.463c1.103,-1.074 5.041,-5.232 6.87,-3.049c0.811,2.235 -0.251,3.378 -1.055,5.329c1.514,-0.482 0.346,-0.637 1.264,0.003c0.323,7.352 0.979,9.948 -4.139,12.056c-5.313,2.19 -6.806,-1.024 -10.191,-3.443c-1.302,1.036 -2.714,4.546 -3.348,6.592c4.08,-0.232 1.144,2.836 9.628,4.221c5.967,0.975 10.67,-2.966 13.204,-7.635c1.017,-1.875 0.451,-0.051 1.11,-2.366c1.421,-4.987 0.787,-6.846 -0.205,-9.796c-0.418,-1.244 -0.249,-1.647 -0.763,-2.726c-0.544,-1.141 -1.458,-1.462 -2.048,-2.128c-0.698,-2.241 0.031,-1.35 0.587,-3.039c-0.345,-3.092 -2.405,0.713 -0.47,-3.505c-3.729,1.479 -9.579,7.253 -11.216,10.172" style="fill:#f5b699;"/><path d="M478.237,323.13l-8.452,-5.325l-1.396,-0.391c-5.657,-1.161 -5.933,-0.347 -7.678,-6.409c-8.919,-30.994 12.764,-69.934 32.047,-52.078c16.481,15.261 17.898,56.919 -6.036,66.986c-3.494,1.47 -5.415,2.213 -8.485,-2.783Zm-20.748,-5.939l0.188,-0.261c3.004,0.4 10.09,2.586 12.433,4.331l0.995,0.989c1.895,0.271 6.66,3.977 8.43,5.594l2.497,2.736c0.683,0.245 0.172,-0.022 0.967,0.671c0.085,0.075 0.716,0.705 0.97,0.94c1.411,1.308 1.317,0.786 2.136,2.596l2.491,2.201c-0.523,-2.909 -4.174,-6.413 -5.414,-8.668c5.032,-3.066 8.214,-1.125 15.299,-10.557c14.015,-18.657 7.469,-49.206 -5.471,-60.144c-4.76,-4.023 -12.729,-5.327 -18.741,-1.832c-12.952,7.531 -22.224,37.93 -13.06,60.018l-4.186,0.241l0.466,1.145Z" style="fill:#9c5624;"/><path d="M461.057,231.872c-1.857,2.011 -2.593,11.856 -3.373,12.861c1.861,-2.626 1.428,-3.446 3.557,-5.964l2.064,-2.402c4.683,-3.987 11,-5.184 16.913,-3.465c10.509,3.055 15.786,13.373 21.32,14.293c0.244,-3.87 -2.039,-8.112 -3.308,-11.101c-0.944,1.156 0.311,0.485 -1.398,0.673c-1.973,0.217 -5.943,-3.501 -7.39,-4.635c-17.292,-13.553 -26.865,0.332 -28.385,-0.26" style="fill:#a35624;"/><path d="M576.737,231.984c-0.912,1.13 -2.546,5.029 -2.239,6.945c1.535,-1.227 3.552,-3.034 4.776,-4.71c1.631,-2.233 1.847,-1.569 4.523,-4.286l0.759,-0.717c7.187,-6.568 18.608,-12.48 28.446,-9.232c4.591,1.516 8.597,5.236 11.042,9.077c-0.293,-1.447 -0.613,-2.339 -0.969,-3.664c-0.059,-0.22 -0.266,-1.159 -0.375,-1.582l-0.488,-1.603c-0.751,0.848 0.717,1.433 -1.243,0.006c-0.908,-0.662 -2.704,-4.833 -9.011,-7.65c-11.059,-4.939 -24.233,4.095 -30.989,13.293c-0.952,1.297 -2.792,3.364 -4.232,4.123" style="fill:#a35624;"/><path d="M607.173,313.383c-10.086,-0.474 -20.827,-16.244 -22.77,-27.975c-3.533,-21.329 7.572,-53.721 28.381,-41.253c12.801,7.67 20.433,29.856 18.95,45.828c-0.545,5.867 -0.837,5.723 -4.942,8.091c-0.554,0.662 -2.031,2.094 -2.975,3.145c-1.106,1.233 -1.645,2.408 -3.109,2.976c-0.588,1.785 -1.971,3.547 -2.945,5.307c-1.11,2.004 -1.276,3.715 -3.92,3.883c0.131,0.069 0.831,0.373 0.847,0.382c0.94,0.557 0.236,0.031 0.822,0.58c-1.239,2.12 -2.844,6.568 -2.531,9.45l1.175,-1.974c0.634,-2.046 2.046,-5.556 3.348,-6.592c0.551,-2.117 3.683,-7.027 5.222,-9.012l1.257,-1.198c1.637,-2.919 7.487,-8.693 11.216,-10.172l2.282,-1.296c-1.837,-0.639 -3.642,0.577 -5.337,1.021c1.856,-17.388 -0.976,-29.56 -8.659,-41.105c-13.296,-19.977 -33.205,-16.797 -39.518,9.75c-1.717,7.216 -2.048,16.732 -0.369,24.161c1.616,7.147 4.969,13.014 8.219,17.234c1.451,1.884 11.227,10.614 15.356,8.769" style="fill:#9c5624;"/><path d="M461.057,231.872c1.52,0.592 11.093,-13.293 28.385,0.26c1.447,1.134 5.417,4.852 7.39,4.635c1.709,-0.188 0.454,0.483 1.398,-0.673c-2.869,-6.023 -10.033,-14.071 -16.965,-16.613c-5.027,-1.844 -9.584,-0.857 -13.192,2.033c-2.231,1.787 -5.807,6.638 -7.016,10.358" style="fill:#c17b3d;"/><path d="M606.947,268.131c1.13,3.65 4.334,7.073 7.913,8.517c10.903,1.17 4.431,-13.237 1.336,-16.645c-6.598,-7.265 -13.361,-2.189 -9.249,8.128" style="fill:#fefefd;"/><path d="M483.804,283.394c0.71,5.652 3.027,10.35 7.382,11.822c7.888,0.231 5.423,-12.783 2.827,-17.533c-4.453,-8.147 -10.453,-4.645 -10.209,5.711" style="fill:#fefefd;"/><path d="M486.105,334.787c-0.819,-1.81 -0.725,-1.288 -2.136,-2.596c-0.254,-0.235 -0.885,-0.865 -0.97,-0.94c-0.795,-0.693 -0.284,-0.426 -0.967,-0.671c-1.783,1.319 -0.242,0.305 -1.435,1.96c-2.608,3.619 -8.126,3.628 -11.143,1.083c-1.503,-1.268 -4.121,-5.635 -2.457,-7.161c-0.481,-0.637 -0.147,-0.224 -0.741,-0.906c-0.191,-0.221 -0.942,-1.055 -0.955,-1.076c-0.974,-1.481 -0.796,-0.712 -0.492,-2.739c2.312,-1.113 4.158,-0.044 6.296,0.509l-0.995,-0.989c-2.343,-1.745 -9.429,-3.931 -12.433,-4.331c1.317,1.246 -1.908,1.046 2.138,1.056c0.661,4.821 -0.086,2.752 -0.277,2.586c5.994,0.46 -0.362,3.726 3.639,13.083c1.049,2.451 3.584,3.596 4.547,4.671c1.72,1.918 0.819,2.159 4.362,2.22c2.728,0.048 6.053,0.317 8.758,-1.117c1.567,-0.831 0.05,-0.039 2.372,-2.443c0.07,-0.074 0.182,-0.165 0.252,-0.239c0.068,-0.073 0.17,-0.175 0.237,-0.249c1.165,-1.287 0.705,-1.716 2.4,-1.711" style="fill:#f5b699;"/><path d="M561.115,385.108c9.631,0 15.728,-3.213 22.732,-8.321c-8.375,-4.518 -28.167,0.984 -32.618,7.463l9.886,0.858Z" style="fill:#d55b52;"/><path d="M576.737,231.984c1.44,-0.759 3.28,-2.826 4.232,-4.123c6.756,-9.198 19.93,-18.232 30.989,-13.293c6.307,2.817 8.103,6.988 9.011,7.65c1.96,1.427 0.492,0.842 1.243,-0.006c-2.711,-5.212 -4.761,-8.089 -9.728,-10.803c-10.993,-6.006 -19.906,-0.388 -27.525,7.978c-1.824,2.004 -7.603,9.302 -8.222,12.597" style="fill:#c17b3d;"/><path d="M401.808,311.458c0.496,-1.935 -3.535,-11.083 0.747,-17.398c3.675,-5.419 8.815,-4.652 12.895,-0.035c3.399,3.848 7.032,7.006 5.116,15.413c-1.671,7.33 -5.289,8.476 -12.317,6.371c3.26,6.325 13.74,3.746 14.224,-3.209c1.041,-2.637 -1.207,-14.375 -1.828,-17.347c-11.391,-16.309 -27.601,-5.877 -18.837,16.205" style="fill:#9a4b1c;"/><path d="M557.638,330.719l1.633,-1.373c1.419,-1.735 3.418,-4.485 1.406,-6.292c-2.83,-1.947 -9.813,2.989 -14.922,3.284c-2.864,0.166 -5.722,-0.392 -7.994,-1.565c-1.142,-0.589 -1.78,-1.051 -2.745,-2.121l-2.304,-2.835c0.375,6.12 4.287,9.728 9.159,11.208c7.32,2.224 12.148,-0.604 14.044,-0.782c1.455,-0.136 -0.549,-0.23 1.05,0.117l0.673,0.359Z" style="fill:#f2a881;"/><path d="M709.983,295.126c-5.496,-2.451 -7.976,-2.642 -7.924,-14.741c5.347,7.849 11.163,6.175 13.141,-0.09c-2.036,1.269 -2.328,2.748 -5.038,2.917c-3.483,0.217 -10.144,-5.05 -6.323,-15.716c2.511,-7.011 11.746,-10.912 14.674,6.754c-0.036,-6.491 -1.307,-11.727 -5.575,-14.029c-10.012,-5.397 -14.79,11.87 -12.535,25.22c0.999,5.915 3.427,10.26 9.58,9.685" style="fill:#9a4b1c;"/><path d="M539.351,309.99c-1.358,0.157 -1.309,0.129 -2.579,1.172c-1.187,0.974 -1.218,0.968 -1.505,2.171c-0.65,2.145 -1.462,2.825 -0.97,5.452c4.653,2.464 18.936,-4.215 19.777,-8.55c-3.241,-3.74 -11.15,-0.483 -14.723,-0.245" style="fill:#fce9da;"/><path d="M557.638,330.719l-0.673,-0.359c-1.599,-0.347 0.405,-0.253 -1.05,-0.117c-1.896,0.178 -6.724,3.006 -14.044,0.782c-4.872,-1.48 -8.784,-5.088 -9.159,-11.208c0.07,-1.77 0.268,-3.514 1.248,-5.054c1.05,-1.649 -0.573,0.618 0.446,-0.605c0.549,-0.659 0.216,-0.289 0.861,-0.825c0.287,-1.203 0.318,-1.197 1.505,-2.171c1.27,-1.043 1.221,-1.015 2.579,-1.172c1.905,-2.412 6.139,-1.708 8.394,-2.853l-6.835,-0.036c0.339,-1.734 0.079,-0.973 0.815,-1.985c-0.159,-1.391 -0.511,-7.137 -0.482,-8.21c-0.099,-0.091 -0.235,-0.388 -0.276,-0.298c-0.245,0.53 -0.945,-3.123 -4.659,-4.349c2.316,6.163 3.954,6.4 3.417,15.488c-8.421,2.362 -12.862,13.394 -6.089,21.072c2.315,2.625 6.452,4.82 11.199,4.989c6.373,0.226 8.998,-2.642 12.803,-3.089" style="fill:#9c5624;"/><path d="M617.504,315.231c3.385,2.419 4.878,5.633 10.191,3.443c5.118,-2.108 4.462,-4.704 4.139,-12.056c-0.918,-0.64 0.25,-0.485 -1.264,-0.003c-1.505,0.411 -2.602,2.738 -4.995,3.286c-3.907,0.893 -2.169,-2.731 -1.592,-4.88l-1.257,1.198c-1.539,1.985 -4.671,6.895 -5.222,9.012" style="fill:#f4ab96;"/><path d="M466.997,326.462c-1.664,1.526 0.954,5.893 2.457,7.161c3.017,2.545 8.535,2.536 11.143,-1.083c1.193,-1.655 -0.348,-0.641 1.435,-1.96l-2.497,-2.736c-1.77,-1.617 -6.535,-5.323 -8.43,-5.594c0.855,0.857 3.614,2.686 2.181,4.234c-1.595,2.176 -4.322,0.186 -6.289,-0.022" style="fill:#f4ab96;"/><path d="M594.339,288.07c0.502,2.982 2.991,6.678 3.122,8.179c1.584,0.866 0.739,0.401 2.025,1.47c1.801,1.497 2.7,2.241 5.45,2.267c-0.97,-1.576 -2.536,-2.002 -4.58,-4.86c-2.801,-3.916 -4.059,-8.283 -4.531,-13.407c-0.28,-3.053 0.339,-7.06 -0.696,-8.845c-2.148,2.018 -1.739,9.926 -0.79,15.196" style="fill:#aa7746;"/><path d="M623.983,305.021c-0.577,2.149 -2.315,5.773 1.592,4.88c2.393,-0.548 3.49,-2.875 4.995,-3.286c0.803,-1.951 1.866,-3.094 1.055,-5.329c-1.829,-2.183 -5.767,1.975 -6.87,3.049l-0.51,0.463c-0.051,0.047 -0.168,0.159 -0.262,0.223" style="fill:#fefefd;"/><path d="M466.997,326.462c1.967,0.208 4.694,2.198 6.289,0.022c1.433,-1.548 -1.327,-3.377 -2.181,-4.234c-2.138,-0.553 -3.984,-1.622 -6.296,-0.509c-0.304,2.027 -0.482,1.258 0.492,2.739c0.013,0.021 0.764,0.855 0.955,1.076c0.593,0.682 0.26,0.269 0.741,0.906" style="fill:#fefefd;"/><path d="M635.669,298.354c-0.556,1.689 -1.285,0.798 -0.587,3.039c4.312,-0.028 5.205,-3.88 0.587,-3.039" style="fill:#fdfbfa;"/><path d="M264.464,362.44c-0.438,0.318 -1.601,0.145 -1.927,0.438c-0.168,0.151 -0.071,0.171 -0.347,0.212c-1.585,0.23 -2.927,1.56 -3.838,2.806c-1.447,1.981 -2.112,5.242 -0.505,7.611c2.722,4.018 9.809,3.105 11.907,-2.291c1.546,-3.975 -0.486,-5.883 -1.868,-9.484c-0.083,-0.217 -0.242,-0.741 -0.33,-0.881c-0.135,-0.213 -0.189,-0.09 -0.29,-0.325c-0.055,-0.127 -0.103,-0.347 -0.155,-0.485c-1.241,-3.264 -3.114,-7.02 -4.524,-10.275c-0.213,-0.494 -2.933,-6.544 -3.002,-6.868c0.194,-0.089 1.853,-0.259 2.224,-0.312c4.065,-0.58 6.496,-0.955 9.51,2.531c0.557,0.644 1.557,2.883 2.115,3.2c0.216,-3.791 -3.031,-7.008 -5.62,-8.32c-1.195,-0.606 -2.009,-0.815 -3.434,-1.089c-2.471,-0.474 -4.701,-1.204 -6.943,-2.028c-0.864,-0.317 -0.716,-0.37 -1.095,-1.176c-0.285,-0.604 -0.502,-1.025 -1.024,-1.305c-0.98,-0.525 -2.621,0.061 -2.307,1.891c0.194,1.128 0.839,2.465 1.296,3.392c0.526,1.067 0.979,2.123 1.486,3.234c0.98,2.149 1.929,4.307 2.897,6.493l5.056,11.367c0.11,0.247 0.192,0.615 0.373,0.78c0.233,0.212 0.287,0.486 0.345,0.884" style="fill:#d9dada;"/><path d="M52.018,174.544l-10.272,2.475c-0.53,-4.802 0.142,-8.84 2.005,-12.109c1.864,-3.268 5.4,-6.086 10.598,-8.447c4.722,-2.144 8.474,-3.136 11.251,-2.954c2.764,0.188 4.981,1.006 6.631,2.48c1.65,1.473 3.424,4.731 5.322,9.809l4.935,13.684c1.447,3.872 2.685,6.661 3.709,8.352c1.024,1.692 2.391,3.377 4.102,5.055l-10.498,4.769c-0.556,-0.644 -1.328,-1.62 -2.289,-2.943c-0.427,-0.618 -0.725,-1.014 -0.882,-1.191c-1.069,2.775 -2.453,5.112 -4.146,7.026c-1.692,1.913 -3.694,3.403 -6.022,4.461c-4.104,1.864 -7.807,2.103 -11.097,0.711c-3.285,-1.379 -5.634,-3.961 -7.044,-7.733c-0.928,-2.482 -1.22,-4.954 -0.871,-7.402c0.354,-2.434 1.298,-4.621 2.866,-6.545c1.556,-1.917 4.021,-4.099 7.396,-6.544c4.558,-3.265 7.633,-5.79 9.208,-7.534l-0.44,-1.177c-0.848,-2.269 -1.954,-3.658 -3.323,-4.181c-1.377,-0.502 -3.461,-0.12 -6.253,1.148c-1.891,0.859 -3.204,1.937 -3.946,3.253c-0.761,1.307 -1.063,3.154 -0.94,5.537Zm17.733,2.993c-1.165,1.11 -3.091,2.681 -5.777,4.715c-2.674,2.027 -4.349,3.584 -5.006,4.646c-0.968,1.717 -1.154,3.394 -0.533,5.053c0.614,1.645 1.692,2.798 3.244,3.486c1.552,0.689 3.177,0.648 4.888,-0.129c1.904,-0.865 3.471,-2.39 4.693,-4.555c0.877,-1.641 1.249,-3.304 1.075,-5.016c-0.101,-1.116 -0.67,-3.08 -1.714,-5.874l-0.87,-2.326Z" style="fill:#00963f;"/><path d="M152.139,319.937l-9.733,-1.285c0.25,-2.126 -0.038,-3.884 -0.86,-5.285c-0.825,-1.388 -2.108,-2.381 -3.864,-2.969c-2.337,-0.783 -4.452,-0.517 -6.336,0.802c-1.883,1.318 -3.399,4.064 -4.553,8.249c-1.282,4.65 -1.479,8.167 -0.596,10.563c0.884,2.397 2.513,3.986 4.884,4.78c1.779,0.596 3.394,0.519 4.831,-0.221c1.448,-0.737 2.777,-2.392 4,-4.975l8.756,4.828c-2.247,4.354 -5.056,7.271 -8.428,8.75c-3.371,1.478 -7.337,1.454 -11.909,-0.078c-5.176,-1.734 -8.815,-4.93 -10.899,-9.568c-2.092,-4.654 -2.252,-10.172 -0.488,-16.569c1.784,-6.472 4.721,-10.98 8.804,-13.552c4.085,-2.571 8.764,-2.967 14.043,-1.198c4.309,1.444 7.456,3.623 9.446,6.528c1.977,2.9 2.942,6.628 2.902,11.2" style="fill:#e3000f;"/><path d="M216.792,372.671l-6.195,-2.496l1.358,-4.095c-1.561,1.179 -3.184,1.877 -4.857,2.116c-1.671,0.232 -3.228,0.061 -4.659,-0.515c-2.918,-1.176 -4.986,-3.472 -6.209,-6.9c-1.214,-3.425 -1.06,-7.447 0.476,-12.08c1.569,-4.732 3.771,-7.928 6.612,-9.577c2.842,-1.649 5.802,-1.848 8.891,-0.604c2.829,1.14 4.853,3.429 6.06,6.851l4.605,-13.891l6.682,2.692l-12.764,38.499Zm-13.048,-21.683c-0.989,2.984 -1.331,5.295 -1.034,6.928c0.439,2.371 1.622,3.945 3.557,4.724c1.536,0.619 3.086,0.421 4.64,-0.599c1.563,-1.016 2.816,-2.959 3.772,-5.845c1.067,-3.217 1.313,-5.739 0.734,-7.577c-0.579,-1.839 -1.678,-3.084 -3.312,-3.742c-1.585,-0.639 -3.142,-0.474 -4.678,0.492c-1.529,0.969 -2.758,2.841 -3.679,5.619Zm16.894,23.232l1.925,-5.807l13.437,-8.148c2.212,-1.334 3.816,-2.252 4.837,-2.775c-0.798,-0.261 -1.834,-0.637 -3.109,-1.13l-8.943,-3.543l2.032,-6.129l20.925,8.43l-1.729,5.216l-13.737,8.383l-4.755,2.696c1.889,0.639 3.062,1.05 3.509,1.231l10.349,4.169l-2.157,6.506l-22.584,-9.099Z" style="fill:#ffed00;"/><path d="M282.825,342.26l5.29,-0.786l0.4,3.278c1.588,-2.804 3.693,-4.404 6.317,-4.794c1.392,-0.206 2.641,-0.07 3.74,0.411c1.106,0.479 2.062,1.311 2.869,2.494c0.802,-1.422 1.721,-2.532 2.749,-3.329c1.028,-0.797 2.172,-1.288 3.431,-1.475c1.595,-0.237 2.989,-0.083 4.189,0.469c1.193,0.553 2.147,1.479 2.863,2.786c0.523,0.959 0.921,2.588 1.201,4.879l1.875,15.332l-5.752,0.854l-1.675,-13.705c-0.291,-2.383 -0.675,-3.888 -1.157,-4.516c-0.642,-0.823 -1.523,-1.155 -2.629,-0.991c-0.805,0.119 -1.534,0.502 -2.182,1.148c-0.64,0.653 -1.06,1.524 -1.248,2.612c-0.186,1.096 -0.138,2.769 0.138,5.029l1.407,11.514l-5.751,0.855l-1.606,-13.142c-0.285,-2.33 -0.575,-3.826 -0.86,-4.466c-0.285,-0.649 -0.662,-1.111 -1.137,-1.378c-0.467,-0.269 -1.075,-0.343 -1.809,-0.234c-0.889,0.132 -1.654,0.512 -2.297,1.142c-0.649,0.638 -1.06,1.469 -1.246,2.509c-0.186,1.041 -0.138,2.714 0.142,5.013l1.425,11.653l-5.751,0.854l-2.936,-24.016Zm42.932,1.161l-5.329,-0.245c0.301,-2.432 1.103,-4.318 2.4,-5.657c1.296,-1.339 3.362,-2.219 6.188,-2.638c2.568,-0.382 4.525,-0.335 5.867,0.149c1.334,0.485 2.326,1.201 2.963,2.159c0.637,0.957 1.127,2.808 1.465,5.569l0.821,7.417c0.257,2.105 0.539,3.65 0.843,4.625c0.304,0.976 0.778,1.997 1.422,3.064l-5.71,0.848c-0.197,-0.395 -0.461,-0.984 -0.779,-1.769c-0.137,-0.365 -0.237,-0.601 -0.293,-0.71c-0.849,1.209 -1.801,2.16 -2.856,2.858c-1.054,0.699 -2.211,1.145 -3.477,1.333c-2.232,0.332 -4.077,-0.077 -5.528,-1.228c-1.451,-1.143 -2.302,-2.744 -2.553,-4.796c-0.165,-1.349 -0.019,-2.604 0.439,-3.756c0.458,-1.143 1.177,-2.082 2.172,-2.803c0.987,-0.72 2.452,-1.44 4.394,-2.161c2.619,-0.954 4.423,-1.756 5.4,-2.388l-0.078,-0.64c-0.151,-1.234 -0.532,-2.073 -1.142,-2.524c-0.617,-0.442 -1.685,-0.551 -3.203,-0.325c-1.028,0.153 -1.799,0.495 -2.317,1.035c-0.525,0.533 -0.89,1.396 -1.109,2.583Zm8.352,3.989c-0.701,0.379 -1.83,0.877 -3.386,1.493c-1.549,0.615 -2.553,1.14 -3,1.568c-0.676,0.705 -0.963,1.502 -0.853,2.404c0.11,0.895 0.504,1.613 1.185,2.172c0.681,0.558 1.483,0.769 2.413,0.631c1.036,-0.154 1.983,-0.68 2.836,-1.568c0.622,-0.681 0.999,-1.444 1.114,-2.309c0.081,-0.562 0.032,-1.606 -0.154,-3.126l-0.155,-1.265Z" style="fill:#00963f;"/><path d="M23.103,186.028l8.175,3.827c-1.835,3.151 -4.135,5.31 -6.879,6.494c-2.753,1.169 -5.903,1.291 -9.436,0.357c-5.607,-1.481 -9.323,-4.601 -11.128,-9.354c-1.419,-3.805 -1.597,-8.177 -0.522,-13.124c1.282,-5.894 3.686,-10.151 7.199,-12.75c3.516,-2.611 7.412,-3.345 11.682,-2.217c4.788,1.264 8.19,4.012 10.207,8.241c2.007,4.227 2.169,9.935 0.475,17.122l-21.327,-5.635c-0.544,2.804 -0.332,5.155 0.646,7.057c0.968,1.898 2.437,3.108 4.385,3.623c1.337,0.353 2.543,0.248 3.619,-0.313c1.085,-0.559 2.05,-1.669 2.904,-3.328Zm2.569,-9.396c0.531,-2.746 0.351,-4.993 -0.554,-6.729c-0.902,-1.749 -2.219,-2.846 -3.96,-3.306c-1.855,-0.49 -3.553,-0.141 -5.091,1.035c-1.538,1.176 -2.573,3.065 -3.111,5.641l12.716,3.359Z" style="fill:#009ee3;"/><path d="M16.548,143.278l-8.715,-0.979l3.365,-36.393l8.078,0.908l-0.478,5.165c1.615,-2.286 3.014,-3.747 4.198,-4.381c1.183,-0.635 2.479,-0.867 3.889,-0.709c1.993,0.224 3.856,1.047 5.589,2.458l-3.479,8.088c-1.376,-1.217 -2.695,-1.897 -3.957,-2.039c-1.23,-0.138 -2.303,0.119 -3.219,0.76c-0.918,0.653 -1.709,1.91 -2.376,3.795c-0.667,1.886 -1.287,5.925 -1.858,12.107l-1.037,11.22Zm24.755,2.781l-8.715,-0.979l3.364,-36.393l8.079,0.908l-0.478,5.165c1.615,-2.286 3.014,-3.747 4.198,-4.381c1.183,-0.635 2.479,-0.867 3.889,-0.709c1.993,0.224 3.856,1.048 5.589,2.458l-3.479,8.088c-1.376,-1.217 -2.695,-1.897 -3.957,-2.039c-1.23,-0.138 -2.303,0.119 -3.219,0.76c-0.918,0.653 -1.709,1.91 -2.376,3.795c-0.667,1.886 -1.287,5.925 -1.858,12.108l-1.037,11.219Zm24.755,2.781l-8.715,-0.979l3.364,-36.393l8.079,0.908l-0.478,5.165c1.615,-2.286 3.014,-3.746 4.198,-4.381c1.183,-0.635 2.479,-0.867 3.889,-0.709c1.993,0.224 3.856,1.048 5.589,2.458l-3.479,8.088c-1.377,-1.218 -2.695,-1.897 -3.957,-2.039c-1.23,-0.138 -2.303,0.119 -3.219,0.761c-0.918,0.652 -1.709,1.909 -2.376,3.795c-0.667,1.885 -1.287,5.924 -1.858,12.106l-1.037,11.22Z" style="fill:#e3000f;"/><path d="M56.653,274.361l-7.603,4.795l-16.48,-31.751l7.048,-4.446l2.339,4.507c0.106,-2.895 0.472,-4.98 1.1,-6.256c0.627,-1.275 1.558,-2.295 2.788,-3.071c1.739,-1.097 3.689,-1.623 5.843,-1.588l1.441,8.809c-1.762,-0.107 -3.193,0.187 -4.294,0.881c-1.073,0.677 -1.81,1.575 -2.216,2.684c-0.402,1.119 -0.381,2.649 0.072,4.61c0.453,1.961 2.082,5.643 4.881,11.037l5.081,9.789Zm8.589,-34.57l-7.58,2.995c-0.832,-3.59 -0.682,-6.73 0.442,-9.414c1.123,-2.685 3.558,-5.209 7.295,-7.566c3.395,-2.141 6.157,-3.301 8.282,-3.464c2.116,-0.157 3.873,0.224 5.257,1.164c1.385,0.941 3.024,3.223 4.918,6.873l4.97,9.859c1.444,2.783 2.633,4.767 3.562,5.941c0.928,1.174 2.117,2.305 3.567,3.394l-7.548,4.76c-0.48,-0.428 -1.153,-1.086 -2.001,-1.986c-0.38,-0.424 -0.641,-0.691 -0.776,-0.809c-0.565,2.224 -1.407,4.149 -2.522,5.786c-1.115,1.636 -2.502,2.985 -4.176,4.041c-2.951,1.861 -5.742,2.444 -8.365,1.743c-2.617,-0.69 -4.633,-2.397 -6.04,-5.109c-0.927,-1.784 -1.369,-3.63 -1.322,-5.527c0.052,-1.887 0.573,-3.651 1.593,-5.282c1.01,-1.625 2.688,-3.549 5.033,-5.773c3.171,-2.974 5.28,-5.225 6.321,-6.72l-0.439,-0.846c-0.847,-1.632 -1.811,-2.567 -2.897,-2.816c-1.091,-0.232 -2.64,0.285 -4.647,1.551c-1.36,0.857 -2.261,1.818 -2.707,2.898c-0.461,1.076 -0.526,2.511 -0.22,4.307Zm13.736,0.351c-0.786,0.969 -2.108,2.372 -3.967,4.207c-1.85,1.83 -2.983,3.194 -3.387,4.072c-0.582,1.409 -0.574,2.703 0.045,3.896c0.614,1.182 1.536,1.941 2.776,2.296c1.24,0.355 2.47,0.147 3.701,-0.629c1.369,-0.863 2.423,-2.191 3.158,-3.968c0.519,-1.342 0.653,-2.645 0.368,-3.927c-0.176,-0.836 -0.783,-2.267 -1.826,-4.275l-0.868,-1.672Zm22.591,5.89l-22.735,-43.803l7.603,-4.795l12.061,23.237l3.102,-16.803l9.379,-5.916l-3.8,17.799l21.001,13.498l-8.213,5.18l-14.706,-9.741l-1.365,6.383l5.276,10.166l-7.603,4.795Z" style="fill:#2f2483;"/><path d="M62.502,296.999l5.447,-2.148c0.447,1.137 1.089,1.938 1.929,2.394c0.835,0.464 1.913,0.551 3.221,0.269c1.444,-0.31 2.477,-0.835 3.106,-1.575c0.416,-0.516 0.562,-1.121 0.441,-1.808c-0.082,-0.464 -0.287,-0.823 -0.605,-1.073c-0.33,-0.231 -1.002,-0.374 -2.008,-0.414c-4.703,-0.13 -7.734,-0.518 -9.101,-1.163c-1.897,-0.903 -3.04,-2.473 -3.436,-4.707c-0.358,-2.025 0.068,-3.877 1.268,-5.563c1.201,-1.685 3.317,-2.853 6.347,-3.504c2.888,-0.62 5.13,-0.559 6.716,0.178c1.589,0.745 2.831,2.076 3.72,4.002l-5.057,2.204c-0.385,-0.864 -0.943,-1.473 -1.659,-1.823c-0.716,-0.35 -1.66,-0.396 -2.833,-0.144c-1.478,0.318 -2.496,0.769 -3.059,1.363c-0.371,0.413 -0.507,0.877 -0.417,1.385c0.078,0.441 0.327,0.775 0.754,1.002c0.581,0.301 2.425,0.502 5.54,0.609c3.115,0.106 5.358,0.571 6.729,1.401c1.365,0.839 2.219,2.246 2.566,4.203c0.376,2.13 -0.106,4.142 -1.455,6.022c-1.342,1.879 -3.599,3.162 -6.772,3.844c-2.874,0.618 -5.266,0.464 -7.173,-0.452c-1.9,-0.918 -3.305,-2.416 -4.209,-4.502Zm23.495,1.746l-0.856,-4.842l6.133,-11.673c1.012,-1.916 1.765,-3.273 2.267,-4.094c-0.643,0.185 -1.492,0.398 -2.547,0.64l-7.435,1.644l-0.904,-5.111l17.449,-3.749l0.769,4.349l-6.25,11.97l-2.24,4.002c1.53,-0.421 2.484,-0.673 2.857,-0.753l8.63,-1.855l0.959,5.426l-18.832,4.046Zm19.465,-10.977l5.446,-2.148c0.448,1.138 1.089,1.939 1.929,2.394c0.835,0.464 1.913,0.551 3.222,0.27c1.444,-0.311 2.477,-0.835 3.106,-1.575c0.415,-0.516 0.561,-1.122 0.44,-1.809c-0.082,-0.463 -0.286,-0.823 -0.605,-1.073c-0.329,-0.231 -1.002,-0.374 -2.008,-0.413c-4.703,-0.13 -7.734,-0.519 -9.1,-1.163c-1.898,-0.904 -3.041,-2.473 -3.436,-4.707c-0.358,-2.026 0.067,-3.878 1.268,-5.563c1.201,-1.685 3.316,-2.854 6.346,-3.505c2.888,-0.62 5.13,-0.559 6.717,0.178c1.588,0.745 2.83,2.076 3.719,4.003l-5.057,2.203c-0.384,-0.863 -0.942,-1.473 -1.659,-1.823c-0.716,-0.35 -1.66,-0.395 -2.833,-0.143c-1.478,0.317 -2.496,0.769 -3.059,1.362c-0.37,0.414 -0.506,0.877 -0.417,1.386c0.078,0.44 0.328,0.775 0.754,1.001c0.582,0.302 2.425,0.503 5.54,0.609c3.115,0.107 5.358,0.571 6.729,1.401c1.366,0.839 2.22,2.246 2.566,4.204c0.376,2.129 -0.105,4.141 -1.455,6.021c-1.342,1.879 -3.599,3.163 -6.772,3.844c-2.874,0.618 -5.265,0.465 -7.172,-0.452c-1.901,-0.918 -3.306,-2.416 -4.209,-4.502Zm23.494,1.747l-0.856,-4.843l6.134,-11.673c1.012,-1.916 1.764,-3.272 2.266,-4.094c-0.642,0.185 -1.491,0.398 -2.547,0.641l-7.435,1.644l-0.904,-5.112l17.45,-3.749l0.769,4.349l-6.25,11.97l-2.241,4.003c1.53,-0.422 2.485,-0.674 2.858,-0.754l8.629,-1.854l0.96,5.425l-18.833,4.047Z" style="fill:#afca07;"/><path d="M149.942,371.676l3.516,-4.382c0.816,0.696 1.652,1.027 2.511,0.983c0.857,-0.034 1.758,-0.49 2.697,-1.354c1.036,-0.954 1.656,-1.879 1.865,-2.781c0.127,-0.617 0.001,-1.175 -0.372,-1.668c-0.252,-0.333 -0.56,-0.522 -0.917,-0.567c-0.358,-0.026 -0.955,0.188 -1.78,0.646c-3.832,2.189 -6.424,3.355 -7.781,3.503c-1.888,0.199 -3.437,-0.505 -4.651,-2.108c-1.101,-1.453 -1.502,-3.15 -1.213,-5.09c0.289,-1.94 1.521,-3.91 3.695,-5.911c2.072,-1.907 3.899,-2.951 5.47,-3.132c1.576,-0.176 3.108,0.288 4.596,1.403l-3.18,4.237c-0.656,-0.506 -1.349,-0.724 -2.066,-0.656c-0.716,0.067 -1.493,0.491 -2.335,1.266c-1.06,0.976 -1.697,1.835 -1.912,2.587c-0.131,0.513 -0.055,0.952 0.221,1.316c0.24,0.317 0.575,0.464 1.008,0.438c0.589,-0.041 2.151,-0.779 4.698,-2.212c2.546,-1.433 4.535,-2.154 5.97,-2.155c1.435,0.008 2.686,0.723 3.75,2.128c1.157,1.528 1.577,3.38 1.247,5.549c-0.325,2.165 -1.624,4.297 -3.9,6.392c-2.063,1.898 -4.047,2.941 -5.948,3.135c-1.896,0.188 -3.626,-0.331 -5.189,-1.567Zm16.232,-14.938l3.517,-4.383c0.815,0.696 1.652,1.027 2.511,0.984c0.857,-0.034 1.758,-0.49 2.697,-1.354c1.036,-0.954 1.656,-1.879 1.865,-2.781c0.126,-0.617 0.001,-1.175 -0.372,-1.669c-0.252,-0.332 -0.561,-0.521 -0.917,-0.566c-0.358,-0.026 -0.955,0.187 -1.78,0.646c-3.832,2.189 -6.424,3.355 -7.781,3.503c-1.888,0.199 -3.437,-0.505 -4.651,-2.108c-1.101,-1.454 -1.502,-3.15 -1.213,-5.09c0.289,-1.94 1.521,-3.911 3.695,-5.912c2.072,-1.907 3.899,-2.95 5.47,-3.132c1.576,-0.176 3.108,0.289 4.596,1.404l-3.18,4.236c-0.657,-0.506 -1.35,-0.723 -2.066,-0.656c-0.716,0.068 -1.493,0.492 -2.335,1.266c-1.06,0.976 -1.697,1.835 -1.912,2.588c-0.131,0.512 -0.055,0.952 0.221,1.316c0.24,0.316 0.574,0.464 1.008,0.437c0.588,-0.04 2.151,-0.778 4.698,-2.211c2.546,-1.434 4.535,-2.154 5.97,-2.156c1.435,0.009 2.686,0.724 3.749,2.128c1.158,1.529 1.578,3.38 1.248,5.55c-0.325,2.164 -1.624,4.297 -3.901,6.392c-2.062,1.898 -4.046,2.941 -5.947,3.134c-1.896,0.189 -3.626,-0.33 -5.19,-1.567Zm16.233,-14.938l3.516,-4.382c0.816,0.696 1.653,1.027 2.511,0.983c0.858,-0.034 1.759,-0.49 2.698,-1.354c1.036,-0.953 1.656,-1.879 1.864,-2.78c0.127,-0.617 0.002,-1.175 -0.372,-1.669c-0.251,-0.332 -0.56,-0.522 -0.916,-0.567c-0.358,-0.025 -0.955,0.188 -1.78,0.647c-3.832,2.188 -6.424,3.355 -7.781,3.502c-1.888,0.2 -3.437,-0.504 -4.651,-2.108c-1.101,-1.453 -1.502,-3.149 -1.213,-5.089c0.289,-1.94 1.52,-3.911 3.695,-5.912c2.072,-1.907 3.899,-2.951 5.47,-3.132c1.575,-0.176 3.107,0.288 4.596,1.403l-3.181,4.237c-0.656,-0.506 -1.349,-0.723 -2.065,-0.656c-0.717,0.068 -1.494,0.492 -2.335,1.266c-1.061,0.976 -1.698,1.835 -1.912,2.588c-0.132,0.512 -0.055,0.952 0.221,1.316c0.24,0.316 0.574,0.464 1.008,0.437c0.588,-0.041 2.151,-0.778 4.698,-2.212c2.546,-1.433 4.535,-2.153 5.97,-2.155c1.435,0.009 2.685,0.723 3.749,2.128c1.158,1.528 1.578,3.38 1.248,5.549c-0.326,2.165 -1.624,4.298 -3.901,6.393c-2.063,1.898 -4.046,2.941 -5.947,3.134c-1.896,0.188 -3.626,-0.33 -5.19,-1.567" style="fill:#ef7c00;"/></g></svg>