<?xml version="1.0" encoding="UTF-8" standalone="no"?>
<!DOCTYPE svg PUBLIC "-//W3C//DTD SVG 1.1//EN" "http://www.w3.org/Graphics/SVG/1.1/DTD/svg11.dtd">
<svg width="70px" height="37px" version="1.1" xmlns="http://www.w3.org/2000/svg" xmlns:xlink="http://www.w3.org/1999/xlink" xml:space="preserve" xmlns:serif="http://www.serif.com/" style="fill-rule:evenodd;clip-rule:evenodd;stroke-linejoin:round;stroke-miterlimit:2;">
    <g id="moretext">
        <g>
            <g>
                <path d="M55.24,30.865C55.43,30.877 55.577,30.932 55.818,30.929C55.688,31.287 55.26,31.237 54.918,31.205C54.958,35.285 50.283,36.343 47.524,33.555C47.424,33.454 47.376,33.426 47.282,33.307C47.162,33.154 47.215,33.141 46.993,33.101C46.48,33.009 46.352,33.026 45.816,32.867L45.5,32.717C45.495,32.7 45.48,32.701 45.471,32.692C47.681,32.717 50.148,32.54 52.195,31.648C52.59,31.476 53.677,30.949 53.857,30.692C53.808,30.453 53.781,30.17 53.87,29.94C53.935,29.933 54.081,30.105 54.164,30.183C54.677,30.662 54.78,30.588 55.24,30.865ZM44.578,30.494L44.591,30.67L44.707,30.951C44.749,31.182 44.757,31.68 44.627,31.804C44.456,31.968 44.331,31.805 43.978,32.067C43.68,32.289 43.037,32.251 42.721,32.167C42.467,32.099 42.104,31.915 41.875,31.791L41.395,31.336C41.11,30.972 41.271,31.227 41.023,30.762C40.806,30.355 40.65,29.62 40.72,29.157C40.792,28.687 41.101,28.792 41.331,28.533L41.008,28.515C41.242,28.38 41.474,28.335 41.767,28.296C41.37,26.699 41.247,25.359 42.019,23.977C42.548,23.031 43.736,21.917 45.079,22.884C45.967,23.524 46.426,25.065 46.303,26.726C46.244,27.519 46.09,28.167 45.772,28.752C45.296,29.629 44.692,29.656 44.43,29.847C44.574,30.155 44.687,30.198 44.74,30.669L44.654,30.595C44.647,30.587 44.637,30.576 44.631,30.569C44.586,30.519 44.621,30.552 44.578,30.494ZM58.352,26.278C58.429,26.297 58.493,26.314 58.608,26.318C58.848,26.334 59.225,26.478 59.328,26.475C59.674,26.658 59.942,26.82 60.047,27.171C60.223,27.76 60.204,28.29 60.055,28.924C59.971,29.279 59.987,29.336 59.801,29.612C59.62,29.882 59.735,29.831 59.581,30.077L59.131,30.652L57.779,31.445C57.06,31.645 56.962,31.686 56.552,31.385C56.375,31.255 56.303,31.228 56.232,31.001C56.106,30.787 55.98,30.608 55.898,30.298L55.777,29.56L55.767,29.754C55.613,29.428 55.676,28.978 55.744,28.612C52.754,28.53 51.909,23.871 53.495,22.195C53.713,21.964 53.86,21.778 54.188,21.602C55.193,21.064 56.101,21.589 56.765,22.32C57.577,23.214 58.032,24.531 57.897,26.296L58.352,26.278ZM49.36,27.503C49.293,27.595 49.316,27.526 49.286,27.684L49.907,27.687C49.702,27.791 49.317,27.727 49.144,27.946C49.469,27.924 50.187,27.629 50.482,27.968C50.405,28.362 49.107,28.969 48.685,28.745C48.64,28.507 48.714,28.445 48.773,28.25C48.714,28.299 48.744,28.265 48.695,28.325C48.602,28.436 48.749,28.23 48.654,28.38C48.565,28.52 48.547,28.678 48.541,28.839L48.75,29.097C48.838,29.194 48.896,29.236 48.999,29.289C49.206,29.396 49.466,29.447 49.726,29.432C50.19,29.405 50.825,28.956 51.082,29.133C51.265,29.297 51.083,29.547 50.954,29.705L50.806,29.83C50.46,29.87 50.221,30.131 49.642,30.11C49.211,30.095 48.835,29.896 48.625,29.657C48.009,28.959 48.413,27.957 49.178,27.742C49.227,26.916 49.078,26.895 48.867,26.335C49.205,26.446 49.268,26.778 49.291,26.73C49.294,26.722 49.307,26.749 49.316,26.757C48.894,24.628 47.524,24.382 47.88,23.625C48.045,23.274 48.547,23.279 48.898,23.484C49.612,23.902 50.475,25.41 49.996,26.721C49.871,27.063 49.573,27.466 49.381,27.611L49.36,27.503ZM57.048,20.874C56.467,20.988 56.6,20.191 55.734,19.896C54.887,19.608 53.95,20.243 53.369,20.788C52.942,21.188 52.325,22.003 52.102,21.623C51.884,21.253 53.136,18.846 54.761,18.668C56.358,18.492 57.248,20.239 57.048,20.874ZM45.615,22.427C45.233,22.32 45.024,21.952 44.796,21.896C44.012,21.444 42.83,21.635 42.275,22.149C41.997,22.406 41.78,22.761 41.6,23.139C41.46,23.433 41.185,23.978 41.1,24.277C40.199,23.706 41.145,21.208 40.995,20.935C40.926,20.858 40.727,20.957 40.639,20.991C40.064,21.217 40.192,21.195 39.646,21.221C39.312,21.237 39.48,21.469 39.331,22.603C39.196,23.627 38.995,24.601 38.722,25.58C38.696,25.675 38.67,25.778 38.643,25.867L38.53,26.101C38.642,27.657 38.825,29.015 39.288,30.385C40.194,33.064 41.502,34.469 43.919,35.441C47.498,36.88 52.299,36.558 55.758,35.176C56.888,34.725 57.955,34.111 58.817,33.45C59.478,32.944 60.849,31.66 61.147,30.978C61.281,30.43 61.483,29.918 61.614,29.323C62.034,27.421 62.109,25.613 61.637,23.724C61.373,22.669 60.941,21.635 60.494,20.769C60.251,20.298 60.039,19.859 59.778,19.45C59.614,19.193 59.118,18.4 58.782,18.453L59.04,19.564C57.985,19.339 55.777,16.707 55.066,15.706C54.877,15.439 54.743,15.199 54.569,14.895C54.458,14.703 54.234,14.157 54.128,14.037C53.983,14.11 53.884,14.366 53.783,14.533C53.039,15.764 52.294,16.955 51.251,17.876C50.748,18.32 47.958,20.588 46.932,19.892C47.034,19.65 47.287,19.394 47.451,19.203C47.559,19.077 47.628,18.982 47.735,18.859C47.864,18.708 47.951,18.713 47.94,18.491C47.638,18.542 46.809,19.642 45.523,19.883C45.572,20.335 46.913,21.647 46.852,23.52C46.714,23.43 46.689,23.334 46.574,23.198C46.486,23.092 46.396,22.991 46.296,22.896C45.672,22.304 45.858,22.582 45.615,22.427" style="fill:#fad5bd;"/>
                <path d="M61.081,4.95C60.565,4.462 60.437,4.311 59.753,3.983L58.577,3.455C58.235,3.283 58.321,3.338 58.284,3.219C58.58,3.012 59.827,3.18 60.232,3.26C62.858,3.778 65.198,5.717 66.692,8.025C67.191,8.796 68.106,10.334 67.819,11.356C67.624,11.312 67.671,11.277 67.544,11.117L66.123,9.407C65.773,9.024 64.793,8.039 64.213,7.792C64.729,8.619 65.237,9.512 65.67,10.568C65.93,11.199 66.745,13.278 66.29,13.968C66.154,13.919 66.177,13.914 66.099,13.753L65.731,12.937C65.61,12.65 65.45,12.062 65.309,11.83C65.324,12.248 65.454,12.781 65.482,13.27C65.538,14.207 65.489,17.046 64.967,17.647C64.843,17.605 64.868,17.619 64.779,17.47C64.378,16.801 64.261,15.433 63.919,14.431C63.854,14.241 63.561,13.555 63.55,13.482C63.591,13.969 63.698,14.487 63.741,15.009C63.786,15.556 63.801,16.1 63.815,16.65C63.829,17.215 63.873,17.772 63.855,18.343C63.835,19.013 63.779,19.23 63.55,19.716C63.362,19.636 63.28,19.434 63.126,19.163C62.318,17.75 61.61,16.224 60.903,14.726C60.39,13.639 59.461,11.965 59.094,10.813C58.995,10.502 58.757,9.539 58.633,9.362C58.638,10.031 58.215,10.568 58.732,12.956C58.879,13.633 59.548,15.824 59.573,16.159C59.364,16.107 59.415,16.076 59.275,15.874C58.167,14.282 57.198,12.471 56.807,10.44C56.612,9.425 56.582,7.456 57.09,6.696C57.425,6.194 57.941,6.157 58.533,6.412C59.229,6.713 59.462,7.196 59.671,7.324C59.454,6.587 58.862,5.731 58.357,5.248C58.235,5.131 57.819,4.902 57.785,4.789C58.314,4.531 60.15,5.346 60.787,5.792C61.819,6.515 62.096,7.241 62.72,7.959C62.581,6.886 61.552,5.394 61.081,4.95ZM36.167,7.132C36.259,6.573 37.346,5.438 37.79,5.061C38.845,4.165 40.151,3.319 41.444,2.725C43.553,1.756 46.457,0.931 49.005,0.931C50.412,0.931 52.147,1.099 53.445,1.49C54.334,1.758 56.301,2.576 55.815,4.008C55.631,3.973 55.541,3.793 55.4,3.645C55.138,3.37 54.435,2.732 54.093,2.618C54.542,2.975 55.097,3.324 55.12,4.181C54.918,4.128 54.826,3.941 54.7,3.809C53.672,2.737 52.153,2.461 50.741,2.461C49.783,2.461 47.211,2.975 46.714,3.559C47.124,3.499 47.53,3.34 48,3.287C50.745,2.979 53.844,4.604 53.844,8.294C53.844,8.902 53.797,10.512 53.287,10.581C53.222,10.2 53.378,8.949 53.168,8.306C52.923,10.427 52.122,12.159 51.198,13.449C50.725,14.109 50.127,14.752 49.537,15.27C49.285,15.491 47.949,16.717 47.48,16.511C47.511,16.127 49.506,13.712 49.883,12.441C48.955,13.735 47.803,14.931 46.555,15.908C45.729,16.555 43.158,18.308 42.136,18.208C42.157,17.955 42.494,17.518 42.625,17.325C43.176,16.506 43.677,15.873 44.224,15.013C44.614,14.4 45.81,12.19 46.042,11.53C45.782,11.703 45.376,12.249 45.108,12.518C44.38,13.251 43.005,14.686 42.259,15.323C41.859,15.665 41.163,16.41 40.811,16.722C40.651,16.864 40.475,17.021 40.325,17.17C40.044,17.447 38.577,18.804 38.244,18.867C38.104,18.073 38.768,16.347 39.044,15.656C39.96,13.365 40.689,12.377 41.983,10.65L42.897,9.598C43.061,9.413 43.231,9.298 43.395,9.116C43.563,8.929 43.756,8.813 43.889,8.616C42.944,9.023 40.804,11.02 40.038,11.873C38.645,13.422 37.023,15.799 36.629,18.094C36.455,19.11 36.747,19.104 36.313,20.225C36.001,20.176 35.654,19.769 35.49,19.524C34.796,18.492 34.581,17.048 34.581,15.713C34.581,13.74 35.015,12.232 35.827,10.867C36.322,10.037 36.541,9.832 37.07,9.193C37.206,9.03 37.274,8.968 37.412,8.82C37.545,8.677 37.603,8.58 37.751,8.444C37.878,8.327 37.978,8.204 38.109,8.091C38.207,8.006 38.407,7.816 38.466,7.734C37.098,8.298 35.129,10.287 34.136,11.668C33.964,11.907 33.771,12.256 33.599,12.276C33.593,11.469 34.344,10.273 34.647,9.792C35.096,9.079 35.683,8.385 36.199,7.85C37.517,6.48 38.447,5.915 40.146,4.929C39.298,5.014 37.838,5.987 37.11,6.514C36.907,6.66 36.375,7.113 36.167,7.132ZM32.734,19.631C32.81,19.52 32.766,19.654 32.789,19.47C32.809,19.306 32.733,18.921 32.87,18.104C33.054,17.005 33.416,16.047 33.973,15.149C34.048,15.03 34.256,14.783 34.292,14.706C34.267,15.169 33.927,16.108 34.077,16.638L34.063,16.802C33.917,18.089 34.658,19.706 35.2,20.363C35.556,20.794 35.891,21.152 36.324,21.558L37.397,22.618C37.402,22.62 37.415,22.623 37.421,22.624C37.66,22.668 37.308,22.398 37.168,21.939C37.074,21.629 37.014,21.249 37.051,20.9C37.095,20.639 36.982,19.983 37.096,19.077C37.164,18.542 37.292,17.977 37.448,17.501C37.732,16.642 38.27,15.393 38.757,15.015C38.403,15.733 38.168,15.939 37.8,16.904C37.581,17.478 37.222,18.59 37.234,19.277L37.224,19.494C37.378,19.244 37.403,18.85 37.57,18.577C37.553,19.527 37.268,19.674 37.647,20.603C38.093,20.543 39.69,18.945 40.28,18.482C40.458,18.343 40.643,18.203 40.823,18.051L41.896,17.187C41.992,17.127 42.214,16.743 42.311,16.613L41.952,17.459C41.828,17.97 41.161,19.188 41.157,19.252C42.013,19.606 45.573,17.659 46.584,16.922C46.807,16.759 47.006,16.573 47.248,16.483C47.179,16.698 47.116,16.882 47.03,17.093C46.957,17.271 46.794,17.55 46.832,17.705C47.383,17.859 48.87,16.735 49.252,16.459C49.965,15.943 50.179,15.691 50.761,15.171C51.751,14.286 53.258,12.053 53.96,10.69C54.05,10.515 54.198,10.159 54.297,10.041C54.482,10.576 54.387,11.373 55.241,13.304C55.373,13.604 56.474,15.741 56.851,15.854C56.892,15.662 56.589,14.893 56.516,14.616C56.151,13.218 55.996,11.416 56.104,9.957C56.222,11.484 56.944,13.489 57.651,14.763C58.017,15.422 58.544,16.111 58.99,16.566C59.366,16.951 59.752,17.337 60.197,17.67C60.326,17.767 60.503,17.948 60.692,17.966C60.713,17.551 60.356,16.588 60.237,16.171C60.09,15.653 59.89,14.872 59.838,14.299C60.336,14.625 61.462,16.838 61.783,17.552C62.599,19.372 62.642,19.6 63.088,21.509C63.547,21.454 63.856,20.631 64.034,20.124C64.224,19.585 64.46,18.451 64.546,18.28C64.559,18.69 64.381,19.629 64.433,19.872C64.9,19.868 65.42,18.716 65.574,18.261C65.694,17.903 65.788,17.527 65.854,17.119C65.912,16.762 65.897,16.115 66.015,15.839C66.04,16.509 65.926,17.133 65.974,17.746C66.75,17.748 67.191,16.272 67.365,15.364C67.621,14.033 67.616,13.174 67.476,11.81C67.68,11.95 68.138,12.717 68.397,12.765C68.746,12.017 68.293,10.044 68.044,9.346C67.783,8.617 67.503,7.991 67.166,7.311C67.045,7.065 66.916,6.882 66.814,6.643C66.353,5.785 64.278,4.049 63.43,3.472C61.89,2.423 60.727,2.02 58.611,1.808C58.806,1.4 59.006,1.202 59.268,0.896C59.378,0.768 59.32,0.882 59.388,0.72C58.665,0.774 57.998,1.128 57.498,1.608C57.315,1.784 57.203,1.971 57.046,2.131C56.884,2.003 56.22,0.362 55.239,0.315C55.426,0.885 55.919,1.436 55.981,2.133C55.487,1.907 55,1.249 53.226,0.75C47.901,-0.748 41.655,1.253 37.526,4.815C37.141,5.148 36.792,5.491 36.449,5.828C35.698,6.566 34.037,8.776 33.754,9.616L34.319,8.959C34.484,8.753 34.702,8.451 34.917,8.332C34.814,8.516 34.756,8.582 34.632,8.742C33.914,9.669 33.125,10.549 32.659,11.72C32.374,12.437 32.127,13.001 31.961,13.862C31.856,14.403 31.508,16.055 31.895,16.361C32.115,16.288 32.195,15.763 32.29,15.537C32.58,14.845 33.172,13.533 33.677,13.18C33.772,13.409 33.348,14.288 33.243,14.574C33.059,15.075 32.905,15.531 32.775,16.075C32.647,16.608 32.566,17.243 32.527,17.825C32.466,18.752 32.584,18.891 32.734,19.631" style="fill:#b56a32;"/>
                <path d="M49.42,14.682L50.354,13.078C50.654,12.517 50.92,11.938 51.168,11.305C51.842,9.586 51.895,8.841 52.139,7.07C52.428,7.584 52.387,8.894 52.293,9.544C52.093,10.922 51.441,12.314 50.696,13.316C50.411,13.7 49.807,14.51 49.42,14.682ZM46.143,5.459C46.503,5.421 48.946,4.418 49.496,4.836C49.483,5.149 49.285,5.45 49.169,5.663C49.192,5.652 50.554,4.516 50.281,6.09C50.161,6.78 49.843,7.375 49.686,8.022C50.034,7.746 50.32,7.291 50.634,6.956C50.877,6.699 51.199,6.09 51.719,6.046C52.136,7.207 50.352,10.108 49.64,11.159C49.307,11.652 48.646,12.478 48.229,12.881C48.134,12.973 48.081,13.025 47.99,13.132L46.648,14.414C46.258,14.779 45.937,15.048 45.468,15.314C43.906,16.201 45.124,14.405 45.487,13.832C46.23,12.66 47.126,11.028 47.894,9.879C48.038,9.662 48.32,9.302 48.4,9.088C47.97,9.293 47.212,10.307 46.648,10.201C46.609,9.797 47.652,8.785 47.854,8.525C47.48,8.667 45.968,9.79 45.547,10.094C44.777,10.65 44.034,11.262 43.377,11.867C42.787,12.409 41.43,13.731 40.953,14.392L39.882,15.785C39.778,15.91 39.754,15.985 39.553,16.001C39.382,15.454 39.761,14.926 39.973,14.525C40.471,13.583 40.903,12.8 41.51,11.956L43.882,9.235C44.383,8.723 45.487,7.845 46.091,7.363C46.286,7.208 46.511,7.087 46.683,6.939C45.194,6.99 41.323,9.608 40.185,10.628C39.941,10.847 39.743,11.024 39.508,11.239C39.385,11.351 39.313,11.441 39.192,11.546L38.252,12.57C37.477,13.488 36.66,14.542 36.21,15.751C36.102,16.041 35.955,16.574 35.655,16.485C35.431,16.35 35.521,15.313 35.548,15.109C35.697,13.974 36.256,12.468 36.691,11.496C37.042,10.711 37.454,10.224 37.9,9.597C38.233,9.13 38.971,8.413 39.394,8.014C40.364,7.099 41.642,6.252 43.051,5.589C43.736,5.267 44.427,4.938 45.169,4.698C45.783,4.499 46.951,4.009 47.568,4.214C47.55,4.673 46.484,5.263 46.143,5.459ZM36.167,7.132C36.375,7.113 36.907,6.66 37.11,6.514C37.838,5.987 39.298,5.014 40.146,4.929C38.447,5.915 37.517,6.48 36.199,7.85C35.683,8.385 35.096,9.079 34.647,9.792C34.344,10.273 33.593,11.469 33.599,12.276C33.771,12.256 33.964,11.907 34.136,11.668C35.129,10.287 37.098,8.298 38.466,7.734C38.407,7.816 38.207,8.006 38.109,8.091C37.978,8.204 37.878,8.327 37.751,8.444C37.603,8.58 37.545,8.677 37.412,8.82C37.274,8.968 37.206,9.03 37.07,9.193C36.541,9.832 36.322,10.037 35.827,10.867C35.015,12.232 34.581,13.74 34.581,15.713C34.581,17.048 34.796,18.492 35.49,19.524C35.654,19.769 36.001,20.176 36.313,20.225C36.747,19.104 36.455,19.11 36.629,18.094C37.023,15.799 38.645,13.422 40.038,11.873C40.804,11.02 42.944,9.023 43.889,8.616C43.756,8.813 43.563,8.929 43.395,9.116C43.231,9.298 43.061,9.413 42.897,9.598L41.983,10.65C40.689,12.377 39.96,13.365 39.044,15.656C38.768,16.347 38.104,18.073 38.244,18.867C38.577,18.804 40.044,17.447 40.325,17.17C40.475,17.021 40.651,16.864 40.811,16.722C41.163,16.41 41.859,15.665 42.259,15.323C43.005,14.686 44.38,13.251 45.108,12.518C45.376,12.249 45.782,11.703 46.042,11.53C45.81,12.19 44.614,14.4 44.224,15.013C43.677,15.873 43.176,16.506 42.625,17.325C42.494,17.518 42.157,17.955 42.136,18.208C43.158,18.308 45.729,16.555 46.555,15.908C47.803,14.931 48.955,13.735 49.883,12.441C49.506,13.712 47.511,16.127 47.48,16.511C47.949,16.717 49.285,15.491 49.537,15.27C50.127,14.752 50.725,14.109 51.198,13.449C52.122,12.159 52.923,10.427 53.168,8.306C53.378,8.949 53.222,10.2 53.287,10.581C53.797,10.512 53.844,8.902 53.844,8.294C53.844,4.604 50.745,2.979 48,3.287C47.53,3.34 47.124,3.499 46.714,3.559C47.211,2.975 49.783,2.461 50.741,2.461C52.153,2.461 53.672,2.737 54.7,3.809C54.826,3.941 54.918,4.128 55.12,4.181C55.097,3.324 54.542,2.975 54.093,2.618C54.435,2.732 55.138,3.37 55.4,3.645C55.541,3.793 55.631,3.973 55.815,4.008C56.301,2.576 54.334,1.758 53.445,1.49C52.147,1.099 50.412,0.931 49.005,0.931C46.457,0.931 43.553,1.756 41.444,2.725C40.151,3.319 38.845,4.165 37.79,5.061C37.346,5.438 36.259,6.573 36.167,7.132" style="fill:#c17c3e;"/>
                <path d="M46.143,5.459C46.484,5.263 47.55,4.673 47.568,4.214C46.951,4.009 45.783,4.499 45.169,4.698C44.427,4.938 43.736,5.267 43.051,5.589C41.642,6.252 40.364,7.099 39.394,8.014C38.971,8.413 38.233,9.13 37.9,9.597C37.454,10.224 37.042,10.711 36.691,11.496C36.256,12.468 35.697,13.974 35.548,15.109C35.521,15.313 35.431,16.35 35.655,16.485C35.955,16.574 36.102,16.041 36.21,15.751C36.66,14.542 37.477,13.488 38.252,12.57L39.192,11.546C39.313,11.441 39.385,11.351 39.508,11.239C39.743,11.024 39.941,10.847 40.185,10.628C41.323,9.608 45.194,6.99 46.683,6.939C46.511,7.087 46.286,7.208 46.091,7.363C45.487,7.845 44.383,8.723 43.882,9.235L41.51,11.956C40.903,12.8 40.471,13.583 39.973,14.525C39.761,14.926 39.382,15.454 39.553,16.001C39.754,15.985 39.778,15.91 39.882,15.785L40.953,14.392C41.43,13.731 42.787,12.409 43.377,11.867C44.034,11.262 44.777,10.65 45.547,10.094C45.968,9.79 47.48,8.667 47.854,8.525C47.652,8.785 46.609,9.797 46.648,10.201C47.212,10.307 47.97,9.293 48.4,9.088C48.32,9.302 48.038,9.662 47.894,9.879C47.126,11.028 46.23,12.66 45.487,13.832C45.124,14.405 43.906,16.201 45.468,15.314C45.937,15.048 46.258,14.779 46.648,14.414L47.99,13.132C48.081,13.025 48.134,12.973 48.229,12.881C48.646,12.478 49.307,11.652 49.64,11.159C50.352,10.108 52.136,7.207 51.719,6.046C51.199,6.09 50.877,6.699 50.634,6.956C50.32,7.291 50.034,7.746 49.686,8.022C49.843,7.375 50.161,6.78 50.281,6.09C50.554,4.516 49.192,5.652 49.169,5.663C49.285,5.45 49.483,5.149 49.496,4.836C48.946,4.418 46.503,5.421 46.143,5.459" style="fill:#d99d57;"/>
                <path d="M58.609,13.73C58.434,13.727 58.435,13.635 58.35,13.472C57.66,12.142 57.286,10.599 57.162,9.058C57.027,7.384 57.632,6.484 57.866,7.294C58.151,8.276 57.966,10.041 58.328,11.992C58.39,12.327 58.661,13.453 58.609,13.73ZM64.713,14.728C64.319,14.534 63.857,11.307 63.38,11.13C63.362,11.413 63.407,11.674 63.456,11.937C63.521,12.289 63.643,12.602 63.518,12.711C63.126,12.943 62.468,11.627 62.211,11.386C62.33,12.297 62.766,13.364 62.969,14.315C62.998,14.449 63.438,17.123 63.409,17.357C63.382,17.579 63.408,17.459 63.34,17.532C63.081,17.74 62.698,16.862 62.572,16.632C61.651,14.949 60.223,12.141 59.531,10.377L58.626,8.044C58.611,7.97 58.598,7.903 58.607,7.825C58.663,7.333 58.999,7.832 59.035,7.876C59.173,8.044 59.227,8.057 59.358,8.27C59.53,8.55 59.671,8.989 59.885,9.198C59.876,8.873 59.861,8.806 60.013,8.632C60.714,8.476 61.12,9.343 61.693,9.45C61.798,9.261 61.922,7.64 62.989,9.126C63.099,9.278 63.289,9.588 63.397,9.667L63.199,7.389C63.165,7.258 62.939,6.83 63.214,6.904C63.345,6.939 63.708,7.665 63.808,7.89C64.432,9.283 65.503,14.225 64.713,14.728ZM58.284,3.219C58.321,3.338 58.235,3.283 58.577,3.455L59.753,3.983C60.437,4.311 60.565,4.462 61.081,4.95C61.552,5.394 62.581,6.886 62.72,7.959C62.096,7.241 61.819,6.515 60.787,5.792C60.15,5.346 58.314,4.531 57.785,4.789C57.819,4.902 58.235,5.131 58.357,5.248C58.862,5.731 59.454,6.587 59.671,7.324C59.462,7.196 59.229,6.713 58.533,6.412C57.941,6.157 57.425,6.194 57.09,6.696C56.582,7.456 56.612,9.425 56.807,10.44C57.198,12.471 58.167,14.282 59.275,15.874C59.415,16.076 59.364,16.107 59.573,16.159C59.548,15.824 58.879,13.633 58.732,12.956C58.215,10.568 58.638,10.031 58.633,9.362C58.757,9.539 58.995,10.502 59.094,10.813C59.461,11.965 60.39,13.639 60.903,14.726C61.61,16.224 62.318,17.75 63.126,19.163C63.28,19.434 63.362,19.636 63.55,19.716C63.779,19.23 63.835,19.013 63.855,18.343C63.873,17.772 63.829,17.215 63.815,16.65C63.801,16.1 63.786,15.556 63.741,15.009C63.698,14.487 63.591,13.969 63.55,13.482C63.561,13.555 63.854,14.241 63.919,14.431C64.261,15.433 64.378,16.801 64.779,17.47C64.868,17.619 64.843,17.605 64.967,17.647C65.489,17.046 65.538,14.207 65.482,13.27C65.454,12.781 65.324,12.248 65.309,11.83C65.45,12.062 65.61,12.65 65.731,12.937L66.099,13.753C66.177,13.914 66.154,13.919 66.29,13.968C66.745,13.278 65.93,11.199 65.67,10.568C65.237,9.512 64.729,8.619 64.213,7.792C64.793,8.039 65.773,9.024 66.123,9.407L67.544,11.117C67.671,11.277 67.624,11.312 67.819,11.356C68.106,10.334 67.191,8.796 66.692,8.025C65.198,5.717 62.858,3.778 60.232,3.26C59.827,3.18 58.58,3.012 58.284,3.219" style="fill:#c17c3e;"/>
                <path d="M41.952,17.459C41.855,17.551 41.894,17.524 41.811,17.642L39.875,20.393C40.553,20.515 42.965,19.391 43.655,19.026C44.553,18.552 45.894,17.844 46.644,17.09L46.858,16.915C46.417,17.762 44.718,19.091 44.635,19.34C45.579,19.424 48.042,17.681 48.964,16.936C49.15,16.785 49.301,16.629 49.516,16.495C49.466,17.44 48.43,18.513 48.303,18.846C49.045,18.807 51.005,16.382 51.543,15.711C51.925,15.235 52.51,14.349 52.854,13.785C53.253,13.13 53.615,12.322 54.005,11.687C54.274,12.21 54.157,13.307 55.779,15.479L56.696,16.433C56.926,16.629 57.127,16.83 57.343,17.032C57.55,17.226 57.752,17.446 58.084,17.471C58.148,17.045 57.664,16.165 57.508,15.814C57.309,15.369 57.07,14.538 56.929,14.063C57.334,14.318 57.559,14.935 57.993,15.559C59.014,17.028 59.211,16.966 60.054,17.921C60.361,18.268 61.389,19.268 61.781,19.359C61.787,18.829 60.605,16.501 60.485,15.865C60.69,16.139 60.837,16.363 60.987,16.746C61.119,17.086 61.261,17.409 61.392,17.752C61.529,18.114 61.926,18.972 61.944,19.296C61.963,19.639 61.739,19.523 61.52,19.462L62.027,20.522C62.358,21.217 62.703,21.988 62.894,22.752C62.985,23.112 63.057,23.711 63.225,23.984C63.386,23.061 64.208,21.362 64.638,20.794C64.818,20.558 64.678,20.773 64.905,20.622C65.01,20.552 65.053,20.487 65.158,20.386C66.432,19.161 68.612,18.689 67.922,16.099C67.775,15.551 67.552,15.257 67.515,14.627C68.267,15.089 68.323,15.774 68.612,16.036C68.66,15.331 68.324,14.253 67.984,13.636C67.831,13.357 67.734,13.309 67.664,12.902C67.821,12.972 68.469,13.595 68.577,13.73C68.907,14.142 69.054,14.696 69.289,14.841C69.6,13.077 68.783,9.874 67.891,8.246L67.135,7.018C67.039,6.883 66.937,6.725 66.814,6.643C66.916,6.882 67.045,7.065 67.166,7.311C67.503,7.991 67.783,8.617 68.044,9.346C68.293,10.044 68.746,12.017 68.397,12.765C68.138,12.717 67.68,11.95 67.476,11.81C67.616,13.174 67.621,14.033 67.365,15.364C67.191,16.272 66.75,17.748 65.974,17.746C65.926,17.133 66.04,16.509 66.015,15.839C65.897,16.115 65.912,16.762 65.854,17.119C65.788,17.527 65.694,17.903 65.574,18.261C65.42,18.716 64.9,19.868 64.433,19.872C64.381,19.629 64.559,18.69 64.546,18.28C64.46,18.451 64.224,19.585 64.034,20.124C63.856,20.631 63.547,21.454 63.088,21.509C62.642,19.6 62.599,19.372 61.783,17.552C61.462,16.838 60.336,14.625 59.838,14.299C59.89,14.872 60.09,15.653 60.237,16.171C60.356,16.588 60.713,17.551 60.692,17.966C60.503,17.948 60.326,17.767 60.197,17.67C59.752,17.337 59.366,16.951 58.99,16.566C58.544,16.111 58.017,15.422 57.651,14.763C56.944,13.489 56.222,11.484 56.104,9.957C55.996,11.416 56.151,13.218 56.516,14.616C56.589,14.893 56.892,15.662 56.851,15.854C56.474,15.741 55.373,13.604 55.241,13.304C54.387,11.373 54.482,10.576 54.297,10.041C54.198,10.159 54.05,10.515 53.96,10.69C53.258,12.053 51.751,14.286 50.761,15.171C50.179,15.691 49.965,15.943 49.252,16.459C48.87,16.735 47.383,17.859 46.832,17.705C46.794,17.55 46.957,17.271 47.03,17.093C47.116,16.882 47.179,16.698 47.248,16.483C47.006,16.573 46.807,16.759 46.584,16.922C45.573,17.659 42.013,19.606 41.157,19.252C41.161,19.188 41.828,17.97 41.952,17.459" style="fill:#a35624;"/>
                <path d="M45.615,22.427C45.858,22.582 45.672,22.304 46.296,22.896C46.396,22.991 46.486,23.092 46.574,23.198C46.689,23.334 46.714,23.43 46.852,23.52C46.913,21.647 45.572,20.335 45.523,19.883C46.809,19.642 47.638,18.542 47.94,18.491C47.951,18.713 47.864,18.708 47.735,18.859C47.628,18.982 47.559,19.077 47.451,19.203C47.287,19.394 47.034,19.65 46.932,19.892C47.958,20.588 50.748,18.32 51.251,17.876C52.294,16.955 53.039,15.764 53.783,14.533C53.884,14.366 53.983,14.11 54.128,14.037C54.234,14.157 54.458,14.703 54.569,14.895C54.743,15.199 54.877,15.439 55.066,15.706C55.777,16.707 57.985,19.339 59.04,19.564L58.782,18.453C59.118,18.4 59.614,19.193 59.778,19.45C60.039,19.859 60.251,20.298 60.494,20.769C60.941,21.635 61.373,22.669 61.637,23.724C62.109,25.613 62.034,27.421 61.614,29.323C61.483,29.918 61.281,30.43 61.147,30.978L61.366,30.692C61.434,30.588 61.499,30.47 61.569,30.353C61.984,29.66 62.317,28.936 62.589,28.108C63.144,26.423 63.104,26.08 63.096,24.212C63.049,23.684 62.435,21.846 62.194,21.325C62.035,20.982 61.451,19.558 61.301,19.355L60.813,18.912C59.556,17.793 58.245,16.411 57.358,14.875C57.507,15.764 58.368,16.96 58.237,17.488C58.141,17.876 57.523,17.467 57.37,17.329C56.207,16.287 55.297,15.401 54.597,13.878C54.183,12.979 54.064,12.179 53.967,11.972C53.226,13.299 53.168,13.638 52.178,15.053C51.504,16.017 50.418,17.348 49.587,18.096C49.17,18.471 48.726,19.015 48.117,19.041C48.125,18.701 48.581,18.231 48.734,17.996C48.888,17.76 49.227,17.168 49.299,16.865C49.156,16.948 47.84,18.004 47.08,18.462C46.698,18.692 44.907,19.789 44.435,19.423C44.48,19.069 45.384,18.492 45.781,17.977L44.469,18.759C44.122,18.962 43.326,19.312 43.079,19.517C44.169,19.477 44.588,19.914 45.109,20.504C45.348,20.774 45.54,21.069 45.723,21.419C45.901,21.763 46.214,22.447 45.615,22.427" style="fill:#f2a881;"/>
                <path d="M42.029,20.848C42.139,20.509 42.464,20.069 42.667,19.906C42.995,19.644 43.409,19.554 43.866,19.721C44.496,19.952 45.147,20.684 45.407,21.231C45.522,21.503 45.73,21.888 45.708,22.24C45.205,22.156 44.725,21.219 43.77,20.941C43.233,20.785 42.659,20.894 42.234,21.256L42.046,21.474C41.852,21.703 41.892,21.778 41.723,22.016C41.794,21.925 41.86,21.03 42.029,20.848ZM66.814,6.643C66.937,6.725 67.039,6.883 67.135,7.018L67.891,8.246C68.783,9.874 69.6,13.077 69.289,14.841C69.054,14.696 68.907,14.142 68.577,13.73C68.469,13.595 67.821,12.972 67.664,12.902C67.734,13.309 67.831,13.357 67.984,13.636C68.324,14.253 68.66,15.331 68.612,16.036C68.323,15.774 68.267,15.089 67.515,14.627C67.552,15.257 67.775,15.551 67.922,16.099C68.612,18.689 66.432,19.161 65.158,20.386C65.053,20.487 65.01,20.552 64.905,20.622C64.678,20.773 64.818,20.558 64.638,20.794C64.208,21.362 63.386,23.061 63.225,23.984C63.057,23.711 62.985,23.112 62.894,22.752C62.703,21.988 62.358,21.217 62.027,20.522L61.52,19.462C61.739,19.523 61.963,19.639 61.944,19.296C61.926,18.972 61.529,18.114 61.392,17.752C61.261,17.409 61.119,17.086 60.987,16.746C60.837,16.363 60.69,16.139 60.485,15.865C60.605,16.501 61.787,18.829 61.781,19.359C61.389,19.268 60.361,18.268 60.054,17.921C59.211,16.966 59.014,17.028 57.993,15.559C57.559,14.935 57.334,14.318 56.929,14.063C57.07,14.538 57.309,15.369 57.508,15.814C57.664,16.165 58.148,17.045 58.084,17.471C57.752,17.446 57.55,17.226 57.343,17.032C57.127,16.83 56.926,16.629 56.696,16.433L55.779,15.479C54.157,13.307 54.274,12.21 54.005,11.687C53.615,12.322 53.253,13.13 52.854,13.785C52.51,14.349 51.925,15.235 51.543,15.711C51.005,16.382 49.045,18.807 48.303,18.846C48.43,18.513 49.466,17.44 49.516,16.495C49.301,16.629 49.15,16.785 48.964,16.936C48.042,17.681 45.579,19.424 44.635,19.34C44.718,19.091 46.417,17.762 46.858,16.915L46.644,17.09C45.894,17.844 44.553,18.552 43.655,19.026C42.965,19.391 40.553,20.515 39.875,20.393L41.811,17.642C41.894,17.524 41.855,17.551 41.952,17.459L42.311,16.613C42.214,16.743 41.992,17.127 41.896,17.187C41.639,17.892 40.246,19.151 39.812,19.652C39.511,19.998 37.825,21.741 37.499,21.799C37.285,21.436 37.042,19.713 37.234,19.277C37.222,18.59 37.581,17.478 37.8,16.904C38.168,15.939 38.403,15.733 38.757,15.015C38.27,15.393 37.732,16.642 37.448,17.501C37.292,17.977 37.164,18.542 37.096,19.077C36.982,19.983 37.095,20.639 37.051,20.9C37.088,20.962 37.052,20.865 37.103,21.015C37.119,21.06 37.134,21.126 37.143,21.17C37.184,21.357 37.277,21.884 37.409,21.943C37.788,21.95 38.273,21.347 38.508,21.17C38.642,22.217 38.589,24.036 38.508,25.117C38.501,25.108 38.49,25.081 38.486,25.089L38.183,24.615C37.461,23.582 36.302,22.911 35.234,21.829C34.754,21.342 34.292,20.704 34.027,19.737C33.842,19.065 33.644,17.318 34.063,16.802L34.077,16.638C33.861,16.686 34.029,16.579 33.907,16.768C33.748,17.014 33.475,17.839 33.397,18.122C33.23,18.728 33.156,19.298 32.892,19.767C32.757,19.7 32.793,19.742 32.734,19.631C32.584,18.891 32.466,18.752 32.527,17.825C32.566,17.243 32.647,16.608 32.775,16.075C32.905,15.531 33.059,15.075 33.243,14.574C33.348,14.288 33.772,13.409 33.677,13.18C33.172,13.533 32.58,14.845 32.29,15.537C32.195,15.763 32.115,16.288 31.895,16.361C31.508,16.055 31.856,14.403 31.961,13.862C32.127,13.001 32.374,12.437 32.659,11.72C33.125,10.549 33.914,9.669 34.632,8.742C34.756,8.582 34.814,8.516 34.917,8.332C34.702,8.451 34.484,8.753 34.319,8.959L33.754,9.616C34.037,8.776 35.698,6.566 36.449,5.828C36.792,5.491 37.141,5.148 37.526,4.815C41.655,1.253 47.901,-0.748 53.226,0.75C55,1.249 55.487,1.907 55.981,2.133C55.919,1.436 55.426,0.885 55.239,0.315C56.22,0.362 56.884,2.003 57.046,2.131C57.203,1.971 57.315,1.784 57.498,1.608C57.998,1.128 58.665,0.774 59.388,0.72C59.32,0.882 59.378,0.768 59.268,0.896C59.006,1.202 58.806,1.4 58.611,1.808C60.727,2.02 61.89,2.423 63.43,3.472C64.278,4.049 66.353,5.785 66.814,6.643ZM37.189,23.786C37.281,23.86 37.353,23.962 37.406,24.035C37.606,24.134 38.276,24.932 38.327,25.277C38.407,25.365 38.395,25.459 38.512,25.521C38.582,25.484 38.621,25.586 38.667,25.103C38.686,24.914 38.69,24.719 38.693,24.536C38.701,24.138 38.73,23.753 38.74,23.369C38.762,22.533 38.703,21.788 38.683,20.98L40.068,19.607C40.33,19.351 40.359,19.221 40.547,19.123C40.391,19.451 39.703,20.237 39.688,20.502C40.167,20.82 42.128,19.865 42.654,19.714C42.318,19.989 42.034,20.289 41.821,20.754C41.646,21.138 41.401,21.854 41.585,22.291C42.104,22.393 41.979,21.348 42.974,21.05C43.388,20.926 43.749,21.078 44.046,21.258C44.247,21.379 44.709,21.69 44.796,21.896C45.024,21.952 45.233,22.32 45.615,22.427C46.214,22.447 45.901,21.763 45.723,21.419C45.54,21.069 45.348,20.774 45.109,20.504C44.588,19.914 44.169,19.477 43.079,19.517C43.326,19.312 44.122,18.962 44.469,18.759L45.781,17.977C45.384,18.492 44.48,19.069 44.435,19.423C44.907,19.789 46.698,18.692 47.08,18.462C47.84,18.004 49.156,16.948 49.299,16.865C49.227,17.168 48.888,17.76 48.734,17.996C48.581,18.231 48.125,18.701 48.117,19.041C48.726,19.015 49.17,18.471 49.587,18.096C50.418,17.348 51.504,16.017 52.178,15.053C53.168,13.638 53.226,13.299 53.967,11.972C54.064,12.179 54.183,12.979 54.597,13.878C55.297,15.401 56.207,16.287 57.37,17.329C57.523,17.467 58.141,17.876 58.237,17.488C58.368,16.96 57.507,15.764 57.358,14.875C58.245,16.411 59.556,17.793 60.813,18.912L61.301,19.355C61.451,19.558 62.035,20.982 62.194,21.325C62.435,21.846 63.049,23.684 63.096,24.212C63.23,24.389 63.114,24.381 63.273,24.356C63.33,24.313 63.335,24.233 63.355,24.117C63.511,23.203 63.672,22.966 64.036,22.162C64.065,22.042 64.038,22.125 64.075,22.007C64.079,21.992 64.094,21.947 64.099,21.932L64.151,21.817C64.258,21.715 64.673,20.96 65.419,20.347C66.466,19.485 67.902,18.865 68.173,17.485C68.37,16.485 68.012,15.864 67.764,15.096C67.924,15.208 68.111,15.56 68.242,15.79C68.447,16.15 68.532,16.435 68.751,16.468C69.026,15.721 68.432,14.233 68.155,13.57C68.418,13.788 68.524,13.917 68.714,14.282C68.868,14.575 69.031,14.954 69.244,15.081C69.715,14.846 69.459,13.141 69.395,12.539C69.161,10.349 68.385,8.488 67.206,6.796C67.083,6.619 67.005,6.559 66.895,6.357C66.792,6.329 66.823,6.32 66.689,6.151C66.622,6.065 66.577,6.008 66.509,5.927C66.38,5.772 66.259,5.656 66.117,5.516C65.847,5.248 65.59,4.992 65.305,4.727C63.548,3.088 61.368,1.721 58.828,1.737C59.002,1.283 59.549,0.933 59.589,0.583C58.909,0.492 58.058,0.952 57.562,1.397C57.359,1.579 57.265,1.725 57.092,1.867C56.884,1.629 56.778,1.21 56.294,0.726C56.082,0.513 55.514,-0.012 55.035,0.189C55.033,0.459 55.653,1.409 55.777,1.812C55.562,1.699 55.328,1.508 55.083,1.365C53.208,0.266 50.749,0.002 48.645,0.097C43.199,0.447 38.659,3.151 35.967,6.138C35.247,6.937 34.604,7.855 33.958,8.935C33.672,9.412 33.421,10.09 33.148,10.524C32.838,11.016 32.564,11.539 32.323,12.145C31.964,13.049 31.339,15.481 31.611,16.267C31.76,16.7 32.08,16.549 32.221,16.164C32.343,15.833 32.436,15.582 32.56,15.272C32.791,14.696 33.093,14.082 33.415,13.699C33.187,14.587 32.78,15.03 32.507,16.626C32.414,17.167 32.331,17.867 32.347,18.437C32.362,18.984 32.47,19.734 32.788,19.967C33.402,19.74 33.323,18.37 33.637,17.913C33.707,18.781 33.674,19.229 33.924,20.04C34.374,21.494 35.472,22.368 36.533,23.252C36.701,23.391 37.039,23.706 37.189,23.786" style="fill:#824d14;"/>
                <path d="M63.38,11.13C63.857,11.307 64.319,14.534 64.713,14.728C65.503,14.225 64.432,9.283 63.808,7.89C63.708,7.665 63.345,6.939 63.214,6.904C62.939,6.83 63.165,7.258 63.199,7.389L63.397,9.667C63.289,9.588 63.099,9.278 62.989,9.126C61.922,7.64 61.798,9.261 61.693,9.45C61.12,9.343 60.714,8.476 60.013,8.632C59.861,8.806 59.876,8.873 59.885,9.198C59.671,8.989 59.53,8.55 59.358,8.27C59.227,8.057 59.173,8.044 59.035,7.876C58.999,7.832 58.663,7.333 58.607,7.825C58.598,7.903 58.611,7.97 58.626,8.044L59.531,10.377C60.223,12.141 61.651,14.949 62.572,16.632C62.698,16.862 63.081,17.74 63.34,17.532C63.408,17.459 63.382,17.579 63.409,17.357C63.438,17.123 62.998,14.449 62.969,14.315C62.766,13.364 62.33,12.297 62.211,11.386C62.468,11.627 63.126,12.943 63.518,12.711C63.643,12.602 63.521,12.289 63.456,11.937C63.407,11.674 63.362,11.413 63.38,11.13" style="fill:#d99d57;"/>
                <path d="M38.433,29.815C38.325,29.87 38.389,29.869 38.266,29.834L38.132,29.746C38.035,29.682 37.945,29.648 37.849,29.586C37.45,29.331 36.752,28.577 36.645,28.08C35.849,26.073 37.322,25.125 38.357,26.607C38.421,26.329 38.334,25.617 38.327,25.277C38.276,24.932 37.606,24.134 37.406,24.035C35.841,23.884 34.536,26.749 36.306,29.373C36.508,29.674 36.755,30.022 37.021,30.27C37.442,30.663 38.471,31.453 39.229,30.786L38.865,29.558C38.729,29.657 38.673,29.777 38.433,29.815" style="fill:#fad5bd;"/>
                <path d="M64.036,22.162C64.507,22.02 64.839,22.051 65.259,22.245C65.627,22.414 65.79,22.594 65.973,22.956C66.671,24.344 66.09,26.457 65.092,27.402C64.274,28.176 63.533,27.658 63.006,27.411C63.057,26.965 63.218,26.577 63.258,26.039C63.301,25.465 63.237,24.907 63.273,24.356C63.114,24.381 63.23,24.389 63.096,24.212C63.104,26.08 63.144,26.423 62.589,28.108C62.317,28.936 61.984,29.66 61.569,30.353C61.499,30.47 61.434,30.588 61.366,30.692L61.147,30.978C60.849,31.66 59.478,32.944 58.817,33.45C57.955,34.111 56.888,34.725 55.758,35.176C52.299,36.558 47.498,36.88 43.919,35.441C41.502,34.469 40.194,33.064 39.288,30.385C38.825,29.015 38.642,27.657 38.53,26.101L38.512,25.521C38.395,25.459 38.407,25.365 38.327,25.277C38.334,25.617 38.421,26.329 38.357,26.607C38.413,26.877 38.618,27.944 38.523,28.183C38.593,28.261 38.598,28.26 38.636,28.438C38.849,29.463 38.879,29.365 38.479,29.683C38.437,29.717 38.447,29.695 38.424,29.742C38.372,29.848 38.251,29.69 38.433,29.815C38.673,29.777 38.729,29.657 38.865,29.558L39.229,30.786C38.471,31.453 37.442,30.663 37.021,30.27C36.755,30.022 36.508,29.674 36.306,29.373C34.536,26.749 35.841,23.884 37.406,24.035C37.353,23.962 37.281,23.86 37.189,23.786C37.115,23.866 37.205,23.803 37.081,23.859L36.644,24.027C36.054,24.326 35.761,24.693 35.513,25.449C34.866,27.42 35.742,29.198 36.979,30.458C37.426,30.914 38.043,31.27 38.708,31.197C38.994,31.165 39.105,31.048 39.308,30.984C39.416,31.149 39.593,31.638 39.682,31.828C40.604,33.798 42.212,35.075 44.202,35.736C49.086,37.359 54.904,36.613 59.058,33.483C59.914,32.837 60.784,31.878 61.381,30.988C61.868,30.263 62.738,28.698 62.924,27.573C63.565,27.865 64.187,28.353 65.137,27.594C65.949,26.945 66.496,25.449 66.43,24.211C66.417,23.975 66.39,23.767 66.338,23.534C66.107,22.492 65.42,21.847 64.501,21.897C64.48,21.898 64.335,21.911 64.33,21.91C64.145,21.888 64.243,21.969 64.151,21.817L64.099,21.932C64.094,21.947 64.079,21.992 64.075,22.007C64.038,22.125 64.065,22.042 64.036,22.162" style="fill:#b36f41;"/>
                <path d="M64.649,26.595C64.09,26.648 63.87,26.253 63.779,25.715C63.574,24.502 64.008,22.933 64.918,23.424C65.306,23.633 65.421,24.109 65.424,24.698C65.334,25.128 65.283,25.945 64.867,26.359C64.596,26.63 64.832,26.562 64.649,26.595ZM64.036,22.162C63.672,22.966 63.511,23.203 63.355,24.117C63.335,24.233 63.33,24.313 63.273,24.356C63.237,24.907 63.301,25.465 63.258,26.039C63.218,26.577 63.057,26.965 63.006,27.411C63.533,27.658 64.274,28.176 65.092,27.402C66.09,26.457 66.671,24.344 65.973,22.956C65.79,22.594 65.627,22.414 65.259,22.245C64.839,22.051 64.507,22.02 64.036,22.162" style="fill:#fad5bd;"/>
                <path d="M37.051,20.9C37.014,21.249 37.074,21.629 37.168,21.939C37.308,22.398 37.66,22.668 37.421,22.624C37.415,22.623 37.402,22.62 37.397,22.618L36.324,21.558C35.891,21.152 35.556,20.794 35.2,20.363C34.658,19.706 33.917,18.089 34.063,16.802C33.644,17.318 33.842,19.065 34.027,19.737C34.292,20.704 34.754,21.342 35.234,21.829C36.302,22.911 37.461,23.582 38.183,24.615L38.486,25.089C38.49,25.081 38.501,25.108 38.508,25.117C38.589,24.036 38.642,22.217 38.508,21.17C38.273,21.347 37.788,21.95 37.409,21.943C37.277,21.884 37.184,21.357 37.143,21.17C37.134,21.126 37.119,21.06 37.103,21.015C37.052,20.865 37.088,20.962 37.051,20.9" style="fill:#a35624;"/>
                <path d="M38.512,25.521L38.53,26.101L38.643,25.867C38.67,25.778 38.696,25.675 38.722,25.58C38.995,24.601 39.196,23.627 39.331,22.603C39.48,21.469 39.312,21.237 39.646,21.221C40.192,21.195 40.064,21.217 40.639,20.991C40.727,20.957 40.926,20.858 40.995,20.935C41.145,21.208 40.199,23.706 41.1,24.277C41.185,23.978 41.46,23.433 41.6,23.139C41.78,22.761 41.997,22.406 42.275,22.149C42.83,21.635 44.012,21.444 44.796,21.896C44.709,21.69 44.247,21.379 44.046,21.258C43.749,21.078 43.388,20.926 42.974,21.05C41.979,21.348 42.104,22.393 41.585,22.291C41.401,21.854 41.646,21.138 41.821,20.754C42.034,20.289 42.318,19.989 42.654,19.714C42.128,19.865 40.167,20.82 39.688,20.502C39.703,20.237 40.391,19.451 40.547,19.123C40.359,19.221 40.33,19.351 40.068,19.607L38.683,20.98C38.703,21.788 38.762,22.533 38.74,23.369C38.73,23.753 38.701,24.138 38.693,24.536C38.69,24.719 38.686,24.914 38.667,25.103C38.621,25.586 38.582,25.484 38.512,25.521" style="fill:#f2a881;"/>
                <path d="M49.268,34.298C49.936,34.762 49.992,34.567 50.31,34.347C50.976,33.885 51.94,33.648 52.754,33.769C53.451,33.872 53.346,33.963 53.721,33.433C54.148,32.828 54.414,31.856 54.417,30.874C53.821,31.117 54.081,31.552 53.256,32.261C52.382,33.012 50.567,33.428 49.426,33.37C48.282,33.311 47.987,32.887 47.494,32.916L49.268,34.298Z" style="fill:#910000;"/>
                <path d="M55.24,30.865L55.415,30.957C55.458,30.971 55.546,30.991 55.586,31.001C55.308,31.164 54.908,31.007 54.635,30.922C54.606,32.089 54.246,33.118 53.714,33.754C53.58,33.915 53.455,34.062 53.271,34.202C52.683,34.65 51.993,34.872 51.249,34.892C50.103,34.924 49.326,34.518 48.582,33.977C46.702,32.608 47.904,33.094 46.178,32.775C47.963,32.638 48.68,32.904 50.829,32.389C51.497,32.229 52.159,32.031 52.753,31.749C53.798,31.253 53.726,31.104 54.336,30.737C54.203,30.53 54.087,30.505 53.964,30.17C54.195,30.342 54.864,30.882 55.24,30.865M55.24,30.865C54.78,30.588 54.677,30.662 54.164,30.183C54.081,30.105 53.935,29.933 53.87,29.94C53.781,30.17 53.808,30.453 53.857,30.692C53.677,30.949 52.59,31.476 52.195,31.648C50.148,32.54 47.681,32.717 45.471,32.692C45.48,32.701 45.495,32.7 45.5,32.717L45.816,32.867C46.352,33.026 46.48,33.009 46.993,33.101C47.215,33.141 47.162,33.154 47.282,33.307C47.376,33.426 47.424,33.454 47.524,33.555C50.283,36.343 54.958,35.285 54.918,31.205C55.26,31.237 55.688,31.287 55.818,30.929C55.577,30.932 55.43,30.877 55.24,30.865" style="fill:#f2a881;"/>
                <path d="M42.695,28.621L42.822,28.656C42.626,28.272 42.522,28.162 42.439,27.599C42.371,27.138 42.392,26.629 42.469,26.162C42.615,25.27 42.993,24.547 43.497,24.207C44.647,23.43 45.377,25.079 45.449,26.276C45.485,26.866 45.334,27.288 45.339,27.703C45.362,27.872 46.076,26.539 45.483,24.644C45.226,23.824 44.554,22.613 43.504,23.136C42.805,23.484 42.3,24.432 42.101,25.476C41.868,26.704 41.987,28 42.695,28.621" style="fill:#fdf9f5;"/>
                <path d="M54.391,27.007C53.149,24.6 54.186,22.096 55.558,22.766C56.616,23.283 57.497,25.492 56.743,26.971C56.64,27.174 56.443,27.313 56.414,27.452C56.414,27.536 56.434,27.484 56.537,27.42C56.67,27.368 56.719,27.261 56.819,27.149C56.905,27.054 57.039,26.923 57.09,26.863C57.224,26.264 57.404,26.157 57.315,25.182C57.187,23.782 56.341,21.775 54.975,21.817C53.659,21.857 52.771,25.025 54.157,26.857C54.397,27.174 54.343,27.057 54.391,27.007" style="fill:#fdf9f5;"/>
                <path d="M36.645,28.08C36.752,28.577 37.45,29.331 37.849,29.586C37.945,29.648 38.035,29.682 38.132,29.746L38.266,29.834C38.389,29.869 38.325,29.87 38.433,29.815C38.251,29.69 38.372,29.848 38.424,29.742C38.447,29.695 38.437,29.717 38.479,29.683C38.879,29.365 38.849,29.463 38.636,28.438C38.598,28.26 38.593,28.261 38.523,28.183C38.479,28.815 37.527,29.05 37.231,28.475C37.869,28.666 38.198,28.562 38.35,27.896C38.524,27.132 38.194,26.845 37.885,26.495C37.514,26.076 37.047,26.006 36.713,26.499C36.324,27.072 36.69,27.904 36.645,28.08" style="fill:#f2a881;"/>
                <path d="M55.777,29.56L55.864,29.263L55.835,29.201C55.806,28.939 55.952,28.535 56.065,28.342C56.011,28.292 56.075,28.34 55.99,28.289C55.989,28.289 55.925,28.261 55.913,28.255L55.307,28.254C54.932,28.422 54.043,27.629 53.912,27.458C53.616,27.074 53.311,26.541 53.165,25.892C53.012,25.216 53.042,24.352 53.198,23.696C53.772,21.284 55.581,20.995 56.789,22.81C57.487,23.859 57.745,24.965 57.576,26.545C57.73,26.505 57.894,26.394 58.061,26.453C58.161,26.412 58.3,26.408 58.352,26.278L57.897,26.296C58.032,24.531 57.577,23.214 56.765,22.32C56.101,21.589 55.193,21.064 54.188,21.602C53.86,21.778 53.713,21.964 53.495,22.195C51.909,23.871 52.754,28.53 55.744,28.612C55.676,28.978 55.613,29.428 55.767,29.754L55.777,29.56Z" style="fill:#f2a881;"/>
                <path d="M51.122,34.772L50.223,34.694C50.628,34.105 52.426,33.605 53.187,34.016C52.551,34.48 51.997,34.772 51.122,34.772ZM48.124,32.906C49.387,32.727 49.604,32.893 51.177,32.492C52.468,32.162 52.643,31.921 53.646,31.459C52.786,33.194 49.161,33.664 48.124,32.906ZM47.494,32.916C47.987,32.887 48.282,33.311 49.426,33.37C50.567,33.428 52.382,33.012 53.256,32.261C54.081,31.552 53.821,31.117 54.417,30.874C54.414,31.856 54.148,32.828 53.721,33.433C53.346,33.963 53.451,33.872 52.754,33.769C51.94,33.648 50.976,33.885 50.31,34.347C49.992,34.567 49.936,34.762 49.268,34.298L47.494,32.916ZM55.24,30.865C54.864,30.882 54.195,30.342 53.964,30.17C54.087,30.505 54.203,30.53 54.336,30.737C53.726,31.104 53.798,31.253 52.753,31.749C52.159,32.031 51.497,32.229 50.829,32.389C48.68,32.904 47.963,32.638 46.178,32.775C47.904,33.094 46.702,32.608 48.582,33.977C49.326,34.518 50.103,34.924 51.249,34.892C51.993,34.872 52.683,34.65 53.271,34.202C53.455,34.062 53.58,33.915 53.714,33.754C54.246,33.118 54.606,32.089 54.635,30.922C54.908,31.007 55.308,31.164 55.586,31.001C55.546,30.991 55.458,30.971 55.415,30.957L55.24,30.865Z" style="fill:#a35624;"/>
                <path d="M44.591,30.67C44.553,30.818 44.58,30.719 44.501,30.818L44.149,31.129C44.037,31.205 43.978,31.22 43.842,31.26C43.744,31.289 43.784,31.271 43.683,31.319C43.674,31.323 43.664,31.33 43.655,31.334C43.382,31.464 43.087,31.393 42.843,31.327C42.212,31.156 42.391,31.203 41.946,30.776C41.942,30.771 41.932,30.762 41.928,30.758L41.835,30.614C41.664,30.275 41.725,30.533 41.613,30.108C41.369,29.19 41.618,28.791 41.627,28.625L41.331,28.533C41.101,28.792 40.792,28.687 40.72,29.157C40.65,29.62 40.806,30.355 41.023,30.762C41.271,31.227 41.11,30.972 41.395,31.336L41.875,31.791C42.104,31.915 42.467,32.099 42.721,32.167C43.037,32.251 43.68,32.289 43.978,32.067C44.331,31.805 44.456,31.968 44.627,31.804C44.757,31.68 44.749,31.182 44.707,30.951L44.591,30.67Z" style="fill:#f8c8b1;"/>
                <path d="M41.331,28.533L41.627,28.625L41.705,28.6L41.663,28.496L42.043,28.475C41.21,26.467 42.053,23.705 43.23,23.021C43.776,22.703 44.5,22.822 44.933,23.187C46.109,24.181 46.704,26.957 45.43,28.652C44.786,29.51 44.497,29.333 44.04,29.612C44.152,29.817 44.484,30.135 44.532,30.399L44.578,30.494C44.621,30.552 44.586,30.519 44.631,30.569C44.637,30.576 44.647,30.587 44.654,30.595L44.74,30.669C44.687,30.198 44.574,30.155 44.43,29.847C44.692,29.656 45.296,29.629 45.772,28.752C46.09,28.167 46.244,27.519 46.303,26.726C46.426,25.065 45.967,23.524 45.079,22.884C43.736,21.917 42.548,23.031 42.019,23.977C41.247,25.359 41.37,26.699 41.767,28.296C41.474,28.335 41.242,28.38 41.008,28.515L41.331,28.533Z" style="fill:#f2a881;"/>
                <path d="M44.767,26.604C44.837,26.702 44.864,26.694 44.815,27.025C44.624,28.317 43.665,28.345 43.337,27.773C42.87,26.956 43.304,25.411 44.096,25.529C44.074,24.588 44.619,24.27 45.024,25.01C45.26,25.442 45.484,26.625 44.767,26.604ZM45.335,26.304C45.417,27.293 44.996,28.173 44.493,28.551C43.745,29.113 42.968,28.613 42.683,27.886C42.052,26.273 43.286,23.332 44.551,24.293C43.819,24.256 43.89,24.989 43.747,25.142C43.71,25.181 42.861,25.52 42.86,26.982C42.859,27.668 43.028,27.87 43.397,28.4C43.476,28.513 43.587,28.555 43.721,28.578C44.951,28.784 45.059,26.947 45.133,26.817C45.207,26.687 45.361,26.514 45.335,26.304ZM42.822,28.656L43.59,29.14C44.085,29.24 44.471,28.991 44.725,28.717C44.868,28.563 44.954,28.47 45.07,28.253C45.162,28.08 45.214,27.827 45.339,27.703C45.334,27.288 45.485,26.866 45.449,26.276C45.377,25.079 44.647,23.43 43.497,24.207C42.993,24.547 42.615,25.27 42.469,26.162C42.392,26.629 42.371,27.138 42.439,27.599C42.522,28.162 42.626,28.272 42.822,28.656" style="fill:#3d2616;"/>
                <path d="M49.316,26.757C49.313,26.855 49.345,27.377 49.36,27.503L49.381,27.611C49.573,27.466 49.871,27.063 49.996,26.721C50.475,25.41 49.612,23.902 48.898,23.484C48.547,23.279 48.045,23.274 47.88,23.625C47.524,24.382 48.894,24.628 49.316,26.757" style="fill:#fce9da;"/>
                <path d="M58.609,13.73C58.661,13.453 58.39,12.327 58.328,11.992C57.966,10.041 58.151,8.276 57.866,7.294C57.632,6.484 57.027,7.384 57.162,9.058C57.286,10.599 57.66,12.142 58.35,13.472C58.435,13.635 58.434,13.727 58.609,13.73" style="fill:#d99d57;"/>
                <path d="M56.005,24.916C56.017,24.926 56.032,24.935 56.044,24.941C56.055,24.947 56.068,24.958 56.082,24.964L56.306,25.01C56.716,26.076 55.824,27.255 55.066,26.459C54.82,26.2 54.642,25.728 54.652,25.199C54.659,24.747 54.837,24.179 55.286,24.142C54.913,23.205 55.527,22.744 56.127,23.404C56.408,23.713 56.996,25.023 56.005,24.916ZM54.424,26.697C54.412,26.561 54.186,26.225 54.141,25.954C54.128,25.94 54.075,25.956 54.03,25.715C54.017,25.646 54.004,25.522 53.991,25.438C53.819,24.285 54.018,22.583 55.374,22.76L55.324,22.809C55.3,22.828 54.896,22.961 54.874,23.651C54.862,24.01 54.836,23.868 54.664,24.101C54.581,24.213 54.505,24.362 54.463,24.534C54.372,24.916 54.372,25.362 54.442,25.757C54.492,26.041 54.712,26.537 54.835,26.669C54.947,26.789 55.091,26.855 55.215,26.954C55.371,27.079 55.327,27.156 55.607,27.153C55.987,27.149 56.255,26.903 56.397,26.681C56.851,25.969 56.549,25.303 56.603,25.034C56.655,24.775 56.675,24.777 56.69,24.461C57.006,25.342 56.955,26.371 56.413,26.981C56.168,27.255 55.814,27.495 55.319,27.4C54.99,27.337 54.539,27.045 54.424,26.697ZM54.391,27.007C54.628,27.275 54.798,27.592 55.239,27.721C55.796,27.884 56.045,27.647 56.414,27.452C56.443,27.313 56.64,27.174 56.743,26.971C57.497,25.492 56.616,23.283 55.558,22.766C54.186,22.096 53.149,24.6 54.391,27.007" style="fill:#3d2616;"/>
                <path d="M55.307,28.254L55.913,28.255C56.153,28.239 56.168,28.084 56.269,27.902C56.358,27.742 56.483,27.582 56.537,27.42C56.434,27.484 56.414,27.536 56.414,27.452C56.045,27.647 55.796,27.884 55.239,27.721C54.798,27.592 54.628,27.275 54.391,27.007C54.343,27.057 54.397,27.174 54.157,26.857C52.771,25.025 53.659,21.857 54.975,21.817C56.341,21.775 57.187,23.782 57.315,25.182C57.404,26.157 57.224,26.264 57.09,26.863C57.463,26.648 57.489,26.661 57.539,26.128C57.674,24.677 56.98,22.661 55.817,21.964C53.926,20.831 52.917,23.774 53.238,25.712C53.414,26.778 54.39,28.211 55.307,28.254" style="fill:#e7ddd2;"/>
                <path d="M37.234,19.277C37.042,19.713 37.285,21.436 37.499,21.799C37.825,21.741 39.511,19.998 39.812,19.652C40.246,19.151 41.639,17.892 41.896,17.187L40.823,18.051C40.643,18.203 40.458,18.343 40.28,18.482C39.69,18.945 38.093,20.543 37.647,20.603C37.268,19.674 37.553,19.527 37.57,18.577C37.403,18.85 37.378,19.244 37.224,19.494L37.234,19.277Z" style="fill:#a35624;"/>
                <path d="M49.42,14.682C49.807,14.51 50.411,13.7 50.696,13.316C51.441,12.314 52.093,10.922 52.293,9.544C52.387,8.894 52.428,7.584 52.139,7.07C51.895,8.841 51.842,9.586 51.168,11.305C50.92,11.938 50.654,12.517 50.354,13.078L49.42,14.682Z" style="fill:#d99d57;"/>
                <path d="M58.061,26.453C58.137,26.708 58.059,26.465 58.291,26.733L58.58,27.364C58.738,27.857 58.694,28.53 58.505,28.963C58.461,29.064 58.484,29.019 58.422,29.111C58.208,29.426 58.203,29.494 57.87,29.687C57.751,29.756 57.856,29.695 57.744,29.775C57.384,30.029 56.824,30.021 56.446,29.919C56.305,29.88 56.247,29.871 56.125,29.798C56.022,29.736 55.962,29.672 55.855,29.636L55.864,29.263L55.777,29.56L55.898,30.298C55.981,30.336 55.986,30.342 56.052,30.389C56.174,30.476 56.086,30.449 56.212,30.481C57.169,30.726 57.607,30.404 57.943,30.327C58.091,30.294 57.988,30.361 58.081,30.276L58.486,29.891C59.008,29.318 59.219,28.777 59.213,27.921C59.21,27.556 59.184,27.186 59.053,26.966C58.891,26.696 58.946,26.68 58.658,26.369L58.608,26.318C58.493,26.314 58.429,26.297 58.352,26.278C58.3,26.408 58.161,26.412 58.061,26.453" style="fill:#f8c4ab;"/>
                <path d="M42.695,28.621C41.987,28 41.868,26.704 42.101,25.476C42.3,24.432 42.805,23.484 43.504,23.136C44.554,22.613 45.226,23.824 45.483,24.644C46.076,26.539 45.362,27.872 45.339,27.703C45.214,27.827 45.162,28.08 45.07,28.253C44.954,28.47 44.868,28.563 44.725,28.717C44.471,28.991 44.085,29.24 43.59,29.14C43.869,29.594 44.044,29.527 44.361,29.393C46.536,28.478 46.408,24.693 44.91,23.306C43.158,21.683 41.187,25.222 41.998,28.038C42.156,28.589 42.181,28.515 42.695,28.621" style="fill:#e7ddd2;"/>
                <path d="M56.232,31.001C56.303,31.228 56.375,31.255 56.552,31.385C56.962,31.686 57.06,31.645 57.779,31.445L59.131,30.652L59.581,30.077C59.735,29.831 59.62,29.882 59.801,29.612C59.987,29.336 59.971,29.279 60.055,28.924C60.204,28.29 60.223,27.76 60.047,27.171C59.942,26.82 59.674,26.658 59.328,26.475C59.403,27.075 59.98,27.34 59.479,29.16L59.113,29.881C58.83,30.266 58.792,30.261 58.48,30.541C58.4,30.613 58.439,30.595 58.335,30.662L57.837,30.909C57.377,31.112 56.73,31.078 56.232,31.001" style="fill:#f8d0b7;"/>
                <path d="M55.898,30.298C55.98,30.608 56.106,30.787 56.232,31.001C56.73,31.078 57.377,31.112 57.837,30.909L58.335,30.662C58.439,30.595 58.4,30.613 58.48,30.541C58.792,30.261 58.83,30.266 59.113,29.881L59.479,29.16C59.98,27.34 59.403,27.075 59.328,26.475C59.225,26.478 58.848,26.334 58.608,26.318L58.658,26.369C58.946,26.68 58.891,26.696 59.053,26.966C59.184,27.186 59.21,27.556 59.213,27.921C59.219,28.777 59.008,29.318 58.486,29.891L58.081,30.276C57.988,30.361 58.091,30.294 57.943,30.327C57.607,30.404 57.169,30.726 56.212,30.481C56.086,30.449 56.174,30.476 56.052,30.389C55.986,30.342 55.981,30.336 55.898,30.298" style="fill:#f8c8b1;"/>
                <path d="M56.005,24.916C55.68,24.785 55.389,24.474 55.286,24.142C54.837,24.179 54.659,24.747 54.652,25.199C54.642,25.728 54.82,26.2 55.066,26.459C55.824,27.255 56.716,26.076 56.306,25.01L56.082,24.964C56.068,24.958 56.055,24.947 56.044,24.941C56.032,24.935 56.017,24.926 56.005,24.916" style="fill:#050106;"/>
                <path d="M64.649,26.595C64.832,26.562 64.596,26.63 64.867,26.359C65.283,25.945 65.334,25.128 65.424,24.698C65.158,23.093 64.319,23.448 64.091,24.085C63.744,25.054 64.349,25.533 64.666,25.513C64.912,25.497 64.938,25.363 65.123,25.248C64.944,25.817 64.415,25.969 63.929,25.256C63.925,26.355 64.15,26.373 64.649,26.595" style="fill:#f2a881;"/>
                <path d="M44.767,26.604C44.371,26.47 44.161,26.043 44.096,25.529C43.304,25.411 42.87,26.956 43.337,27.773C43.665,28.345 44.624,28.317 44.815,27.025C44.864,26.694 44.837,26.702 44.767,26.604" style="fill:#050106;"/>
                <path d="M45.335,26.304C45.361,26.514 45.207,26.687 45.133,26.817C45.059,26.947 44.951,28.784 43.721,28.578C43.587,28.555 43.476,28.513 43.397,28.4C43.028,27.87 42.859,27.668 42.86,26.982C42.861,25.52 43.71,25.181 43.747,25.142C43.89,24.989 43.819,24.256 44.551,24.293C43.286,23.332 42.052,26.273 42.683,27.886C42.968,28.613 43.745,29.113 44.493,28.551C44.996,28.173 45.417,27.293 45.335,26.304" style="fill:#744e32;"/>
                <path d="M44.591,30.67L44.578,30.494L44.532,30.399L44.305,30.199C44.151,30.199 44.193,30.238 44.087,30.355C44.081,30.362 44.072,30.371 44.066,30.378C44.059,30.384 44.049,30.393 44.043,30.399C43.832,30.618 43.97,30.546 43.827,30.621C43.582,30.752 43.279,30.727 43.031,30.723C42.71,30.717 42.791,30.695 42.635,30.521C42.548,30.423 42.317,30.319 42.222,30.097C41.858,29.246 42.436,28.949 41.891,28.908C41.909,28.923 41.976,29.111 41.916,28.673C41.549,28.672 41.842,28.69 41.722,28.577L41.705,28.6L41.627,28.625C41.618,28.791 41.369,29.19 41.613,30.108C41.725,30.533 41.664,30.275 41.835,30.614L41.928,30.758C41.932,30.762 41.942,30.771 41.946,30.776C42.391,31.203 42.212,31.156 42.843,31.327C43.087,31.393 43.382,31.464 43.655,31.334C43.664,31.33 43.674,31.323 43.683,31.319C43.784,31.271 43.744,31.289 43.842,31.26C43.978,31.22 44.037,31.205 44.149,31.129L44.501,30.818C44.58,30.719 44.553,30.818 44.591,30.67" style="fill:#f7baa5;"/>
                <path d="M57.854,26.57C57.678,26.954 57.865,26.608 57.896,26.889C58.316,26.812 58.235,27.162 57.843,27.165C57.897,27.225 57.98,27.255 58.029,27.358C58.076,27.456 58.061,27.493 58.099,27.606C58.189,27.874 58.246,28.043 58.117,28.496C58.057,28.707 58.109,28.541 58.016,28.711C57.786,29.135 57.359,29.494 56.816,29.405C56.045,29.279 56.312,29 55.941,29.021L55.835,29.201L55.864,29.263L55.855,29.636C55.962,29.672 56.022,29.736 56.125,29.798C56.247,29.871 56.305,29.88 56.446,29.919C56.824,30.021 57.384,30.029 57.744,29.775C57.856,29.695 57.751,29.756 57.87,29.687C58.203,29.494 58.208,29.426 58.422,29.111C58.484,29.019 58.461,29.064 58.505,28.963C58.694,28.53 58.738,27.857 58.58,27.364L58.291,26.733C58.059,26.465 58.137,26.708 58.061,26.453L57.854,26.57Z" style="fill:#f7baa5;"/>
                <path d="M54.141,25.954C54.054,25.475 54.017,24.757 54.213,24.573C54.307,24.736 54.25,25.1 54.276,25.377C54.319,25.843 54.433,26.24 54.687,26.595C54.873,26.855 55.015,26.894 55.104,27.037C54.854,27.035 54.772,26.967 54.608,26.831C54.492,26.734 54.568,26.776 54.424,26.697C54.539,27.045 54.99,27.337 55.319,27.4C55.814,27.495 56.168,27.255 56.413,26.981C56.955,26.371 57.006,25.342 56.69,24.461C56.675,24.777 56.655,24.775 56.603,25.034C56.549,25.303 56.851,25.969 56.397,26.681C56.255,26.903 55.987,27.149 55.607,27.153C55.327,27.156 55.371,27.079 55.215,26.954C55.091,26.855 54.947,26.789 54.835,26.669C54.712,26.537 54.492,26.041 54.442,25.757C54.372,25.362 54.372,24.916 54.463,24.534C54.505,24.362 54.581,24.213 54.664,24.101C54.836,23.868 54.862,24.01 54.874,23.651C54.896,22.961 55.3,22.828 55.324,22.809L55.374,22.76C54.018,22.583 53.819,24.285 53.991,25.438C54.004,25.522 54.017,25.646 54.03,25.715C54.075,25.956 54.128,25.94 54.141,25.954" style="fill:#613d27;"/>
                <path d="M48.124,32.906C49.161,33.664 52.786,33.194 53.646,31.459C52.643,31.921 52.468,32.162 51.177,32.492C49.604,32.893 49.387,32.727 48.124,32.906" style="fill:#fefefd;"/>
                <path d="M52.541,20.858C52.597,20.558 53.123,19.895 53.288,19.713C53.981,18.953 54.791,18.442 55.79,18.988C56.241,19.235 56.427,19.496 56.673,19.97L56.718,20.115C56.728,20.154 56.747,20.239 56.752,20.259C56.784,20.38 56.813,20.461 56.84,20.592C56.618,20.243 56.254,19.905 55.837,19.767C54.943,19.472 53.905,20.009 53.252,20.606L53.183,20.671C52.94,20.918 52.92,20.858 52.772,21.061C52.66,21.213 52.477,21.377 52.338,21.489C52.31,21.315 52.458,20.96 52.541,20.858ZM57.048,20.874C57.248,20.239 56.358,18.492 54.761,18.668C53.136,18.846 51.884,21.253 52.102,21.623C52.325,22.003 52.942,21.188 53.369,20.788C53.95,20.243 54.887,19.608 55.734,19.896C56.6,20.191 56.467,20.988 57.048,20.874" style="fill:#824d14;"/>
                <path d="M32.734,19.631C32.793,19.742 32.757,19.7 32.892,19.767C33.156,19.298 33.23,18.728 33.397,18.122C33.475,17.839 33.748,17.014 33.907,16.768C34.029,16.579 33.861,16.686 34.077,16.638C33.927,16.108 34.267,15.169 34.292,14.706C34.256,14.783 34.048,15.03 33.973,15.149C33.416,16.047 33.054,17.005 32.87,18.104C32.733,18.921 32.809,19.306 32.789,19.47C32.766,19.654 32.81,19.52 32.734,19.631" style="fill:#9a4b1c;"/>
                <path d="M56.834,27.495C56.843,27.489 56.854,27.479 56.858,27.474L56.905,27.432C57.005,27.335 57.363,26.957 57.529,27.155C57.603,27.358 57.506,27.462 57.433,27.639C57.571,27.596 57.465,27.582 57.548,27.64C57.577,28.308 57.637,28.544 57.172,28.735C56.689,28.934 56.553,28.642 56.246,28.422C56.127,28.517 55.999,28.835 55.941,29.021C56.312,29 56.045,29.279 56.816,29.405C57.359,29.494 57.786,29.135 58.016,28.711C58.109,28.541 58.057,28.707 58.117,28.496C58.246,28.043 58.189,27.874 58.099,27.606C58.061,27.493 58.076,27.456 58.029,27.358C57.98,27.255 57.897,27.225 57.843,27.165C57.78,26.961 57.846,27.042 57.896,26.889C57.865,26.608 57.678,26.954 57.854,26.57C57.515,26.705 56.983,27.229 56.834,27.495" style="fill:#f5b699;"/>
                <path d="M43.59,29.14L42.822,28.656L42.695,28.621C42.181,28.515 42.156,28.589 41.998,28.038C41.187,25.222 43.158,21.683 44.91,23.306C46.408,24.693 46.536,28.478 44.361,29.393C44.044,29.527 43.869,29.594 43.59,29.14ZM41.705,28.6L41.722,28.577C41.995,28.613 42.639,28.812 42.852,28.97L42.942,29.06C43.115,29.085 43.548,29.422 43.708,29.569L43.935,29.817C43.997,29.839 43.951,29.815 44.023,29.878C44.031,29.885 44.088,29.942 44.111,29.964C44.24,30.082 44.231,30.035 44.305,30.199L44.532,30.399C44.484,30.135 44.152,29.817 44.04,29.612C44.497,29.333 44.786,29.51 45.43,28.652C46.704,26.957 46.109,24.181 44.933,23.187C44.5,22.822 43.776,22.703 43.23,23.021C42.053,23.705 41.21,26.467 42.043,28.475L41.663,28.496L41.705,28.6Z" style="fill:#9c5624;"/>
                <path d="M42.029,20.848C41.86,21.03 41.794,21.925 41.723,22.016C41.892,21.778 41.852,21.703 42.046,21.474L42.234,21.256C42.659,20.894 43.233,20.785 43.77,20.941C44.725,21.219 45.205,22.156 45.708,22.24C45.73,21.888 45.522,21.503 45.407,21.231C45.321,21.336 45.435,21.275 45.28,21.292C45.101,21.312 44.74,20.974 44.609,20.871C43.037,19.64 42.167,20.901 42.029,20.848" style="fill:#a35624;"/>
                <path d="M52.541,20.858C52.458,20.96 52.31,21.315 52.338,21.489C52.477,21.377 52.66,21.213 52.772,21.061C52.92,20.858 52.94,20.918 53.183,20.671L53.252,20.606C53.905,20.009 54.943,19.472 55.837,19.767C56.254,19.905 56.618,20.243 56.84,20.592C56.813,20.461 56.784,20.38 56.752,20.259C56.747,20.239 56.728,20.154 56.718,20.115L56.673,19.97C56.605,20.047 56.739,20.1 56.561,19.97C56.478,19.91 56.315,19.531 55.742,19.275C54.737,18.826 53.54,19.647 52.926,20.483C52.839,20.601 52.672,20.789 52.541,20.858" style="fill:#a35624;"/>
                <path d="M55.307,28.254C54.39,28.211 53.414,26.778 53.238,25.712C52.917,23.774 53.926,20.831 55.817,21.964C56.98,22.661 57.674,24.677 57.539,26.128C57.489,26.661 57.463,26.648 57.09,26.863C57.039,26.923 56.905,27.054 56.819,27.149C56.719,27.261 56.67,27.368 56.537,27.42C56.483,27.582 56.358,27.742 56.269,27.902C56.168,28.084 56.153,28.239 55.913,28.255C55.925,28.261 55.989,28.289 55.99,28.289C56.075,28.34 56.011,28.292 56.065,28.342C55.952,28.535 55.806,28.939 55.835,29.201L55.941,29.021C55.999,28.835 56.127,28.517 56.246,28.422C56.296,28.23 56.58,27.784 56.72,27.603L56.834,27.495C56.983,27.229 57.515,26.705 57.854,26.57L58.061,26.453C57.894,26.394 57.73,26.505 57.576,26.545C57.745,24.965 57.487,23.859 56.789,22.81C55.581,20.995 53.772,21.284 53.198,23.696C53.042,24.352 53.012,25.216 53.165,25.892C53.311,26.541 53.616,27.074 53.912,27.458C54.043,27.629 54.932,28.422 55.307,28.254" style="fill:#9c5624;"/>
                <path d="M42.029,20.848C42.167,20.901 43.037,19.64 44.609,20.871C44.74,20.974 45.101,21.312 45.28,21.292C45.435,21.275 45.321,21.336 45.407,21.231C45.147,20.684 44.496,19.952 43.866,19.721C43.409,19.554 42.995,19.644 42.667,19.906C42.464,20.069 42.139,20.509 42.029,20.848" style="fill:#c17b3d;"/>
                <path d="M55.286,24.142C55.389,24.474 55.68,24.785 56.005,24.916C56.996,25.023 56.408,23.713 56.127,23.404C55.527,22.744 54.913,23.205 55.286,24.142" style="fill:#fefefd;"/>
                <path d="M44.096,25.529C44.161,26.043 44.371,26.47 44.767,26.604C45.484,26.625 45.26,25.442 45.024,25.01C44.619,24.27 44.074,24.588 44.096,25.529" style="fill:#fefefd;"/>
                <path d="M44.305,30.199C44.231,30.035 44.24,30.082 44.111,29.964C44.088,29.942 44.031,29.885 44.023,29.878C43.951,29.815 43.997,29.839 43.935,29.817C43.773,29.937 43.913,29.845 43.805,29.995C43.568,30.324 43.066,30.325 42.792,30.094C42.656,29.978 42.418,29.582 42.569,29.443C42.525,29.385 42.556,29.423 42.502,29.361C42.484,29.341 42.416,29.265 42.415,29.263C42.326,29.128 42.343,29.198 42.37,29.014C42.58,28.913 42.748,29.01 42.942,29.06L42.852,28.97C42.639,28.812 41.995,28.613 41.722,28.577C41.842,28.69 41.549,28.672 41.916,28.673C41.976,29.111 41.909,28.923 41.891,28.908C42.436,28.949 41.858,29.246 42.222,30.097C42.317,30.319 42.548,30.423 42.635,30.521C42.791,30.695 42.71,30.717 43.031,30.723C43.279,30.727 43.582,30.752 43.827,30.621C43.97,30.546 43.832,30.618 44.043,30.399C44.049,30.393 44.059,30.384 44.066,30.378C44.072,30.371 44.081,30.362 44.087,30.355C44.193,30.238 44.151,30.199 44.305,30.199" style="fill:#f5b699;"/>
                <path d="M51.122,34.772C51.997,34.772 52.551,34.48 53.187,34.016C52.426,33.605 50.628,34.105 50.223,34.694L51.122,34.772Z" style="fill:#d55b52;"/>
                <path d="M52.541,20.858C52.672,20.789 52.839,20.601 52.926,20.483C53.54,19.647 54.737,18.826 55.742,19.275C56.315,19.531 56.478,19.91 56.561,19.97C56.739,20.1 56.605,20.047 56.673,19.97C56.427,19.496 56.241,19.235 55.79,18.988C54.791,18.442 53.981,18.953 53.288,19.713C53.123,19.895 52.597,20.558 52.541,20.858" style="fill:#c17b3d;"/>
                <path d="M36.645,28.08C36.69,27.904 36.324,27.072 36.713,26.499C37.047,26.006 37.514,26.076 37.885,26.495C38.194,26.845 38.524,27.132 38.35,27.896C38.198,28.562 37.869,28.666 37.231,28.475C37.527,29.05 38.479,28.815 38.523,28.183C38.618,27.944 38.413,26.877 38.357,26.607C37.322,25.125 35.849,26.073 36.645,28.08" style="fill:#9a4b1c;"/>
                <path d="M50.806,29.83L50.954,29.705C51.083,29.547 51.265,29.297 51.082,29.133C50.825,28.956 50.19,29.405 49.726,29.432C49.466,29.447 49.206,29.396 48.999,29.289C48.896,29.236 48.838,29.194 48.75,29.097L48.541,28.839C48.575,29.395 48.93,29.723 49.373,29.858C50.038,30.06 50.477,29.803 50.649,29.787C50.781,29.774 50.599,29.766 50.744,29.797L50.806,29.83Z" style="fill:#f2a881;"/>
                <path d="M64.649,26.595C64.15,26.373 63.925,26.355 63.929,25.256C64.415,25.969 64.944,25.817 65.123,25.248C64.938,25.363 64.912,25.497 64.666,25.513C64.349,25.533 63.744,25.054 64.091,24.085C64.319,23.448 65.158,23.093 65.424,24.698C65.421,24.109 65.306,23.633 64.918,23.424C64.008,22.933 63.574,24.502 63.779,25.715C63.87,26.253 64.09,26.648 64.649,26.595" style="fill:#9a4b1c;"/>
                <path d="M49.144,27.946C49.021,27.96 49.025,27.958 48.91,28.053C48.802,28.141 48.799,28.141 48.773,28.25C48.714,28.445 48.64,28.507 48.685,28.745C49.107,28.969 50.405,28.362 50.482,27.968C50.187,27.629 49.469,27.924 49.144,27.946" style="fill:#fce9da;"/>
                <path d="M50.806,29.83L50.744,29.797C50.599,29.766 50.781,29.774 50.649,29.787C50.477,29.803 50.038,30.06 49.373,29.858C48.93,29.723 48.575,29.395 48.541,28.839C48.547,28.678 48.565,28.52 48.654,28.38C48.749,28.23 48.602,28.436 48.695,28.325C48.744,28.265 48.714,28.299 48.773,28.25C48.799,28.141 48.802,28.141 48.91,28.053C49.025,27.958 49.021,27.96 49.144,27.946C49.317,27.727 49.702,27.791 49.907,27.687L49.286,27.684C49.316,27.526 49.293,27.595 49.36,27.503C49.345,27.377 49.313,26.855 49.316,26.757C49.307,26.749 49.294,26.722 49.291,26.73C49.268,26.778 49.205,26.446 48.867,26.335C49.078,26.895 49.227,26.916 49.178,27.742C48.413,27.957 48.009,28.959 48.625,29.657C48.835,29.896 49.211,30.095 49.642,30.11C50.221,30.131 50.46,29.87 50.806,29.83" style="fill:#9c5624;"/>
                <path d="M56.246,28.422C56.553,28.642 56.689,28.934 57.172,28.735C57.637,28.544 57.577,28.308 57.548,27.64C57.465,27.582 57.571,27.596 57.433,27.639C57.296,27.677 57.197,27.888 56.979,27.938C56.624,28.019 56.782,27.69 56.834,27.495L56.72,27.603C56.58,27.784 56.296,28.23 56.246,28.422" style="fill:#f4ab96;"/>
                <path d="M42.569,29.443C42.418,29.582 42.656,29.978 42.792,30.094C43.066,30.325 43.568,30.324 43.805,29.995C43.913,29.845 43.773,29.937 43.935,29.817L43.708,29.569C43.548,29.422 43.115,29.085 42.942,29.06C43.02,29.138 43.271,29.304 43.141,29.445C42.996,29.643 42.748,29.462 42.569,29.443" style="fill:#f4ab96;"/>
                <path d="M54.141,25.954C54.186,26.225 54.412,26.561 54.424,26.697C54.568,26.776 54.492,26.734 54.608,26.831C54.772,26.967 54.854,27.035 55.104,27.037C55.015,26.894 54.873,26.855 54.687,26.595C54.433,26.24 54.319,25.843 54.276,25.377C54.25,25.1 54.307,24.736 54.213,24.573C54.017,24.757 54.054,25.475 54.141,25.954" style="fill:#aa7746;"/>
                <path d="M56.834,27.495C56.782,27.69 56.624,28.019 56.979,27.938C57.197,27.888 57.296,27.677 57.433,27.639C57.506,27.462 57.603,27.358 57.529,27.155C57.363,26.957 57.005,27.335 56.905,27.432L56.858,27.474C56.854,27.479 56.843,27.489 56.834,27.495" style="fill:#fefefd;"/>
                <path d="M42.569,29.443C42.748,29.462 42.996,29.643 43.141,29.445C43.271,29.304 43.02,29.138 42.942,29.06C42.748,29.01 42.58,28.913 42.37,29.014C42.343,29.198 42.326,29.128 42.415,29.263C42.416,29.265 42.484,29.341 42.502,29.361C42.556,29.423 42.525,29.385 42.569,29.443" style="fill:#fefefd;"/>
                <path d="M57.896,26.889C57.846,27.042 57.78,26.961 57.843,27.165C58.235,27.162 58.316,26.812 57.896,26.889" style="fill:#fdfbfa;"/>
            </g>
            <path d="M24.165,32.712C24.125,32.741 24.019,32.725 23.99,32.752C23.974,32.766 23.983,32.768 23.958,32.771C23.814,32.792 23.692,32.913 23.609,33.026C23.478,33.206 23.417,33.503 23.563,33.718C23.811,34.083 24.455,34 24.645,33.51C24.786,33.149 24.601,32.975 24.476,32.648C24.468,32.628 24.454,32.581 24.446,32.568C24.433,32.549 24.429,32.56 24.419,32.538C24.414,32.527 24.41,32.507 24.405,32.494C24.292,32.198 24.122,31.856 23.994,31.561C23.975,31.516 23.728,30.966 23.721,30.937C23.739,30.928 23.89,30.913 23.923,30.908C24.293,30.855 24.514,30.821 24.788,31.138C24.838,31.197 24.929,31.4 24.98,31.429C24.999,31.084 24.704,30.792 24.469,30.673C24.361,30.618 24.287,30.599 24.157,30.574C23.933,30.531 23.73,30.465 23.526,30.39C23.448,30.361 23.461,30.356 23.427,30.283C23.401,30.228 23.381,30.19 23.334,30.164C23.245,30.116 23.095,30.17 23.124,30.336C23.142,30.439 23.2,30.56 23.242,30.644C23.29,30.741 23.331,30.837 23.377,30.938C23.466,31.133 23.552,31.329 23.64,31.528L24.099,32.561C24.109,32.584 24.117,32.617 24.133,32.632C24.155,32.651 24.159,32.676 24.165,32.712" style="fill:#d9dada;"/>
            <path d="M4.86,15.638L3.926,15.863C3.878,15.427 3.939,15.06 4.108,14.763C4.278,14.466 4.599,14.21 5.071,13.995C5.5,13.8 5.842,13.71 6.094,13.727C6.345,13.744 6.546,13.818 6.696,13.952C6.846,14.086 7.008,14.382 7.18,14.843L7.628,16.087C7.76,16.439 7.872,16.692 7.965,16.846C8.058,16.999 8.183,17.153 8.338,17.305L7.384,17.738C7.334,17.68 7.264,17.591 7.176,17.471C7.137,17.415 7.11,17.379 7.096,17.363C6.999,17.615 6.873,17.827 6.719,18.001C6.566,18.175 6.384,18.31 6.172,18.407C5.799,18.576 5.463,18.598 5.164,18.471C4.865,18.346 4.652,18.111 4.524,17.768C4.439,17.543 4.413,17.318 4.445,17.096C4.477,16.875 4.562,16.676 4.705,16.501C4.846,16.327 5.07,16.129 5.377,15.906C5.791,15.61 6.071,15.38 6.214,15.222L6.174,15.115C6.097,14.909 5.996,14.782 5.872,14.735C5.747,14.689 5.557,14.724 5.304,14.839C5.132,14.917 5.012,15.015 4.945,15.135C4.876,15.254 4.848,15.421 4.86,15.638ZM6.471,15.91C6.365,16.011 6.19,16.154 5.946,16.338C5.703,16.523 5.551,16.664 5.491,16.761C5.403,16.917 5.386,17.069 5.443,17.22C5.499,17.369 5.597,17.474 5.738,17.537C5.879,17.599 6.026,17.595 6.182,17.525C6.355,17.446 6.497,17.308 6.608,17.111C6.688,16.962 6.722,16.811 6.706,16.655C6.697,16.554 6.645,16.375 6.55,16.121L6.471,15.91Z" style="fill:#00963f;"/>
            <path d="M13.958,28.85L13.073,28.733C13.096,28.54 13.07,28.38 12.995,28.253C12.92,28.127 12.804,28.037 12.644,27.983C12.432,27.912 12.239,27.936 12.068,28.056C11.897,28.176 11.759,28.425 11.654,28.806C11.538,29.228 11.52,29.548 11.6,29.766C11.681,29.983 11.829,30.128 12.044,30.2C12.206,30.254 12.353,30.247 12.483,30.18C12.615,30.113 12.735,29.962 12.847,29.728L13.642,30.166C13.438,30.562 13.183,30.827 12.876,30.962C12.57,31.096 12.21,31.094 11.794,30.954C11.324,30.797 10.993,30.507 10.804,30.085C10.614,29.662 10.599,29.161 10.759,28.579C10.922,27.991 11.188,27.582 11.56,27.348C11.931,27.114 12.356,27.078 12.836,27.239C13.227,27.37 13.513,27.568 13.694,27.832C13.874,28.096 13.961,28.435 13.958,28.85" style="fill:#e3000f;"/>
            <path d="M19.833,33.642L19.27,33.415L19.393,33.043C19.251,33.15 19.104,33.214 18.952,33.235C18.8,33.256 18.659,33.241 18.528,33.189C18.263,33.082 18.075,32.873 17.964,32.562C17.854,32.25 17.868,31.885 18.008,31.464C18.15,31.034 18.35,30.743 18.608,30.594C18.867,30.444 19.136,30.426 19.416,30.539C19.673,30.642 19.857,30.85 19.967,31.161L20.385,29.899L20.993,30.144L19.833,33.642ZM18.647,31.672C18.557,31.943 18.526,32.153 18.553,32.301C18.593,32.517 18.701,32.66 18.876,32.73C19.016,32.787 19.157,32.769 19.298,32.676C19.44,32.584 19.554,32.407 19.641,32.145C19.738,31.853 19.76,31.623 19.707,31.456C19.655,31.289 19.555,31.176 19.406,31.116C19.262,31.058 19.121,31.073 18.981,31.161C18.842,31.249 18.731,31.419 18.647,31.672ZM20.182,33.783L20.357,33.255L21.578,32.515C21.779,32.393 21.925,32.31 22.018,32.262C21.945,32.239 21.851,32.205 21.735,32.16L20.923,31.838L21.107,31.281L23.009,32.047L22.852,32.521L21.603,33.283L21.171,33.528C21.343,33.586 21.449,33.623 21.49,33.639L22.43,34.018L22.234,34.61L20.182,33.783Z" style="fill:#ffed00;"/>
            <path d="M25.833,30.879L26.314,30.807L26.35,31.105C26.495,30.85 26.686,30.705 26.924,30.669C27.051,30.651 27.164,30.663 27.264,30.707C27.365,30.75 27.452,30.826 27.525,30.933C27.598,30.804 27.681,30.703 27.775,30.631C27.868,30.558 27.972,30.514 28.086,30.497C28.231,30.475 28.358,30.489 28.467,30.539C28.576,30.59 28.662,30.674 28.727,30.793C28.775,30.88 28.811,31.028 28.836,31.236L29.007,32.629L28.484,32.707L28.332,31.461C28.305,31.245 28.271,31.108 28.227,31.051C28.168,30.976 28.088,30.946 27.988,30.961C27.915,30.972 27.848,31.007 27.79,31.065C27.731,31.125 27.693,31.204 27.676,31.303C27.659,31.402 27.664,31.554 27.689,31.76L27.817,32.806L27.294,32.884L27.148,31.689C27.122,31.478 27.096,31.342 27.07,31.284C27.044,31.225 27.01,31.183 26.967,31.158C26.924,31.134 26.869,31.127 26.802,31.137C26.721,31.149 26.652,31.184 26.593,31.241C26.534,31.299 26.497,31.374 26.48,31.469C26.463,31.563 26.468,31.715 26.493,31.924L26.623,32.983L26.1,33.061L25.833,30.879ZM29.734,30.984L29.25,30.962C29.278,30.741 29.35,30.569 29.468,30.448C29.586,30.326 29.774,30.246 30.031,30.208C30.264,30.173 30.442,30.178 30.564,30.222C30.685,30.266 30.775,30.331 30.833,30.418C30.891,30.505 30.935,30.673 30.966,30.924L31.041,31.598C31.064,31.789 31.09,31.929 31.117,32.018C31.145,32.107 31.188,32.2 31.247,32.296L30.728,32.374C30.71,32.338 30.686,32.284 30.657,32.213C30.644,32.18 30.635,32.158 30.63,32.148C30.553,32.258 30.467,32.345 30.371,32.408C30.275,32.471 30.17,32.512 30.055,32.529C29.852,32.559 29.684,32.522 29.552,32.418C29.421,32.314 29.343,32.168 29.32,31.982C29.305,31.859 29.319,31.745 29.36,31.64C29.402,31.536 29.467,31.451 29.558,31.386C29.647,31.32 29.781,31.255 29.957,31.189C30.195,31.103 30.359,31.03 30.448,30.972L30.441,30.914C30.427,30.802 30.392,30.726 30.337,30.685C30.281,30.645 30.184,30.635 30.046,30.655C29.952,30.669 29.882,30.7 29.835,30.749C29.787,30.798 29.754,30.876 29.734,30.984ZM30.493,31.347C30.43,31.381 30.327,31.426 30.186,31.482C30.045,31.538 29.954,31.586 29.913,31.625C29.852,31.689 29.826,31.761 29.836,31.843C29.846,31.924 29.881,31.99 29.943,32.04C30.005,32.091 30.078,32.11 30.163,32.098C30.257,32.084 30.343,32.036 30.42,31.955C30.477,31.893 30.511,31.824 30.522,31.746C30.529,31.694 30.524,31.6 30.507,31.461L30.493,31.347Z" style="fill:#00963f;"/>
            <path d="M2.232,16.682L2.975,17.029C2.808,17.316 2.599,17.512 2.35,17.619C2.1,17.726 1.813,17.737 1.492,17.652C0.983,17.517 0.645,17.234 0.481,16.802C0.352,16.456 0.336,16.059 0.434,15.609C0.55,15.074 0.769,14.687 1.088,14.451C1.407,14.213 1.761,14.147 2.149,14.249C2.585,14.364 2.894,14.614 3.077,14.998C3.259,15.382 3.274,15.901 3.12,16.554L1.182,16.042C1.133,16.297 1.152,16.51 1.241,16.683C1.329,16.856 1.462,16.966 1.639,17.012C1.761,17.044 1.87,17.035 1.968,16.984C2.067,16.933 2.154,16.832 2.232,16.682ZM2.465,15.828C2.514,15.578 2.497,15.374 2.415,15.216C2.333,15.057 2.213,14.958 2.055,14.916C1.887,14.871 1.732,14.903 1.593,15.01C1.453,15.117 1.359,15.288 1.31,15.523L2.465,15.828Z" style="fill:#009ee3;"/>
            <path d="M1.636,12.797L0.844,12.708L1.15,9.401L1.884,9.483L1.841,9.953C1.988,9.745 2.115,9.612 2.222,9.555C2.33,9.497 2.448,9.476 2.576,9.49C2.757,9.511 2.926,9.585 3.084,9.714L2.767,10.448C2.642,10.338 2.523,10.276 2.408,10.263C2.296,10.251 2.199,10.274 2.115,10.332C2.032,10.392 1.96,10.506 1.9,10.677C1.839,10.848 1.783,11.216 1.731,11.777L1.636,12.797ZM3.886,13.05L3.094,12.961L3.4,9.654L4.134,9.736L4.09,10.205C4.237,9.998 4.364,9.865 4.472,9.807C4.579,9.75 4.697,9.729 4.825,9.743C5.006,9.763 5.176,9.838 5.333,9.966L5.017,10.701C4.892,10.591 4.772,10.529 4.657,10.516C4.546,10.503 4.448,10.527 4.365,10.585C4.281,10.644 4.21,10.759 4.149,10.93C4.088,11.101 4.032,11.468 3.98,12.03L3.886,13.05ZM6.135,13.302L5.343,13.213L5.649,9.906L6.383,9.989L6.34,10.458C6.487,10.25 6.614,10.118 6.721,10.06C6.829,10.002 6.947,9.981 7.075,9.996C7.256,10.016 7.425,10.091 7.583,10.219L7.266,10.954C7.141,10.843 7.022,10.782 6.907,10.769C6.795,10.756 6.698,10.779 6.614,10.838C6.531,10.897 6.459,11.011 6.398,11.183C6.338,11.354 6.282,11.721 6.23,12.283L6.135,13.302Z" style="fill:#e3000f;"/>
            <path d="M5.281,24.708L4.59,25.144L3.092,22.259L3.733,21.855L3.945,22.265C3.955,22.001 3.988,21.812 4.045,21.696C4.102,21.58 4.187,21.487 4.299,21.417C4.457,21.317 4.634,21.27 4.83,21.273L4.961,22.073C4.8,22.063 4.67,22.09 4.57,22.153C4.473,22.215 4.406,22.296 4.369,22.397C4.332,22.499 4.334,22.638 4.376,22.816C4.417,22.994 4.565,23.329 4.819,23.819L5.281,24.708ZM6.061,21.567L5.372,21.839C5.297,21.513 5.311,21.228 5.413,20.984C5.515,20.74 5.736,20.51 6.076,20.296C6.384,20.102 6.635,19.996 6.828,19.982C7.02,19.967 7.18,20.002 7.306,20.087C7.432,20.173 7.581,20.38 7.753,20.712L8.204,21.608C8.336,21.861 8.444,22.041 8.528,22.148C8.612,22.254 8.72,22.357 8.852,22.456L8.166,22.889C8.123,22.85 8.061,22.79 7.984,22.708C7.95,22.67 7.926,22.645 7.914,22.635C7.863,22.837 7.786,23.012 7.685,23.16C7.583,23.309 7.457,23.432 7.305,23.528C7.037,23.697 6.783,23.75 6.545,23.686C6.307,23.623 6.124,23.468 5.996,23.222C5.912,23.06 5.872,22.892 5.876,22.719C5.881,22.548 5.928,22.388 6.021,22.239C6.113,22.092 6.265,21.917 6.478,21.715C6.766,21.445 6.958,21.24 7.053,21.104L7.013,21.027C6.936,20.879 6.848,20.794 6.749,20.771C6.65,20.75 6.51,20.797 6.327,20.912C6.204,20.99 6.122,21.078 6.081,21.176C6.039,21.273 6.033,21.404 6.061,21.567ZM7.309,21.599C7.238,21.687 7.118,21.814 6.949,21.981C6.781,22.148 6.678,22.272 6.641,22.351C6.588,22.479 6.589,22.597 6.645,22.705C6.701,22.813 6.785,22.882 6.898,22.914C7.01,22.946 7.122,22.927 7.234,22.857C7.358,22.778 7.454,22.658 7.521,22.496C7.568,22.374 7.58,22.256 7.554,22.139C7.538,22.063 7.483,21.933 7.388,21.751L7.309,21.599ZM9.362,22.134L7.296,18.154L7.987,17.718L9.083,19.83L9.365,18.303L10.217,17.765L9.872,19.383L11.781,20.609L11.034,21.08L9.698,20.195L9.574,20.775L10.053,21.698L9.362,22.134Z" style="fill:#2f2483;"/>
            <path d="M5.812,26.766L6.307,26.57C6.348,26.674 6.406,26.747 6.483,26.788C6.558,26.83 6.656,26.838 6.775,26.812C6.906,26.784 7,26.737 7.058,26.669C7.095,26.622 7.109,26.567 7.098,26.505C7.09,26.463 7.071,26.43 7.043,26.408C7.013,26.386 6.951,26.374 6.86,26.37C6.433,26.358 6.157,26.323 6.033,26.264C5.861,26.182 5.757,26.04 5.721,25.836C5.688,25.652 5.727,25.484 5.836,25.331C5.945,25.178 6.138,25.072 6.413,25.013C6.675,24.956 6.879,24.962 7.023,25.029C7.168,25.096 7.28,25.217 7.361,25.392L6.902,25.593C6.867,25.514 6.816,25.459 6.751,25.427C6.686,25.395 6.6,25.391 6.493,25.414C6.359,25.443 6.267,25.484 6.215,25.538C6.182,25.575 6.169,25.617 6.178,25.664C6.185,25.704 6.207,25.734 6.246,25.755C6.299,25.782 6.466,25.8 6.75,25.81C7.033,25.82 7.236,25.862 7.361,25.937C7.485,26.014 7.563,26.141 7.594,26.319C7.628,26.513 7.585,26.696 7.462,26.866C7.34,27.037 7.135,27.154 6.847,27.216C6.585,27.272 6.368,27.258 6.195,27.175C6.022,27.091 5.894,26.955 5.812,26.766ZM7.947,26.924L7.869,26.484L8.427,25.424C8.519,25.249 8.587,25.126 8.633,25.052C8.574,25.068 8.497,25.088 8.401,25.11L7.726,25.259L7.644,24.795L9.229,24.454L9.299,24.849L8.731,25.937L8.528,26.301C8.667,26.262 8.753,26.239 8.787,26.232L9.571,26.064L9.659,26.557L7.947,26.924ZM9.716,25.927L10.211,25.732C10.252,25.835 10.31,25.908 10.386,25.949C10.462,25.991 10.56,25.999 10.679,25.974C10.81,25.945 10.904,25.898 10.961,25.831C10.999,25.784 11.012,25.729 11.001,25.666C10.994,25.624 10.975,25.591 10.946,25.569C10.916,25.548 10.855,25.535 10.764,25.531C10.337,25.519 10.061,25.484 9.937,25.425C9.764,25.343 9.661,25.201 9.625,24.998C9.592,24.814 9.631,24.645 9.74,24.492C9.849,24.339 10.041,24.233 10.317,24.174C10.579,24.117 10.783,24.123 10.927,24.19C11.071,24.258 11.184,24.379 11.265,24.554L10.805,24.754C10.77,24.675 10.72,24.62 10.655,24.588C10.59,24.556 10.504,24.552 10.397,24.575C10.263,24.604 10.17,24.645 10.119,24.699C10.086,24.737 10.073,24.779 10.081,24.825C10.088,24.865 10.111,24.895 10.15,24.916C10.203,24.943 10.37,24.962 10.653,24.971C10.936,24.981 11.14,25.023 11.265,25.099C11.389,25.175 11.466,25.303 11.498,25.48C11.532,25.674 11.488,25.857 11.366,26.028C11.244,26.198 11.039,26.315 10.75,26.377C10.489,26.433 10.272,26.419 10.099,26.336C9.926,26.252 9.798,26.116 9.716,25.927ZM11.851,26.086L11.773,25.645L12.331,24.585C12.423,24.411 12.491,24.287 12.537,24.213C12.478,24.229 12.401,24.249 12.305,24.271L11.629,24.42L11.547,23.956L13.133,23.615L13.203,24.01L12.635,25.098L12.431,25.462C12.57,25.423 12.657,25.401 12.691,25.393L13.475,25.225L13.562,25.718L11.851,26.086Z" style="fill:#afca07;"/>
            <path d="M13.758,33.552L14.078,33.153C14.152,33.217 14.228,33.247 14.306,33.243C14.384,33.24 14.465,33.198 14.551,33.12C14.645,33.033 14.701,32.949 14.72,32.867C14.732,32.811 14.72,32.76 14.686,32.715C14.664,32.685 14.636,32.668 14.603,32.664C14.571,32.662 14.516,32.681 14.441,32.723C14.093,32.921 13.858,33.027 13.734,33.041C13.563,33.059 13.422,32.995 13.312,32.849C13.212,32.717 13.175,32.563 13.201,32.387C13.228,32.211 13.34,32.031 13.537,31.85C13.726,31.676 13.891,31.581 14.034,31.565C14.177,31.549 14.317,31.591 14.452,31.693L14.163,32.078C14.103,32.032 14.04,32.012 13.975,32.018C13.91,32.024 13.84,32.063 13.763,32.133C13.667,32.222 13.609,32.3 13.589,32.368C13.577,32.415 13.584,32.455 13.609,32.488C13.631,32.516 13.662,32.53 13.701,32.527C13.754,32.524 13.896,32.457 14.128,32.326C14.359,32.196 14.54,32.131 14.67,32.131C14.801,32.131 14.914,32.196 15.011,32.324C15.116,32.463 15.154,32.631 15.124,32.828C15.095,33.025 14.977,33.219 14.77,33.409C14.583,33.582 14.402,33.676 14.23,33.694C14.057,33.711 13.9,33.664 13.758,33.552ZM15.233,32.194L15.553,31.796C15.627,31.859 15.703,31.889 15.781,31.885C15.859,31.882 15.941,31.841 16.026,31.762C16.12,31.676 16.176,31.591 16.195,31.51C16.207,31.453 16.195,31.403 16.162,31.358C16.139,31.328 16.111,31.31 16.078,31.306C16.046,31.304 15.991,31.323 15.916,31.365C15.568,31.564 15.333,31.67 15.209,31.683C15.038,31.702 14.897,31.638 14.787,31.492C14.687,31.36 14.65,31.206 14.677,31.029C14.703,30.853 14.815,30.674 15.012,30.492C15.201,30.319 15.367,30.224 15.509,30.208C15.653,30.192 15.792,30.234 15.927,30.335L15.638,30.72C15.578,30.674 15.515,30.654 15.45,30.66C15.385,30.667 15.315,30.705 15.238,30.775C15.142,30.864 15.084,30.942 15.064,31.011C15.052,31.057 15.059,31.097 15.084,31.13C15.106,31.159 15.137,31.172 15.176,31.17C15.23,31.166 15.372,31.099 15.603,30.969C15.834,30.839 16.015,30.773 16.145,30.773C16.276,30.774 16.389,30.839 16.486,30.967C16.591,31.105 16.63,31.274 16.6,31.471C16.57,31.667 16.452,31.861 16.245,32.052C16.058,32.224 15.877,32.319 15.705,32.336C15.532,32.354 15.375,32.306 15.233,32.194ZM16.708,30.837L17.028,30.438C17.102,30.502 17.178,30.532 17.256,30.528C17.334,30.525 17.416,30.483 17.501,30.405C17.595,30.318 17.651,30.234 17.67,30.152C17.682,30.096 17.671,30.045 17.637,30C17.614,29.97 17.586,29.953 17.553,29.949C17.521,29.947 17.466,29.966 17.392,30.008C17.043,30.207 16.808,30.313 16.684,30.326C16.513,30.344 16.372,30.28 16.262,30.134C16.162,30.002 16.125,29.848 16.152,29.672C16.178,29.496 16.29,29.317 16.487,29.135C16.676,28.961 16.842,28.867 16.984,28.85C17.128,28.834 17.267,28.876 17.402,28.978L17.113,29.363C17.053,29.317 16.99,29.297 16.925,29.303C16.86,29.309 16.79,29.348 16.713,29.418C16.617,29.507 16.559,29.585 16.539,29.653C16.528,29.7 16.534,29.74 16.56,29.773C16.581,29.802 16.612,29.815 16.651,29.813C16.705,29.809 16.847,29.742 17.078,29.612C17.309,29.481 17.49,29.416 17.621,29.416C17.751,29.416 17.865,29.481 17.961,29.609C18.066,29.748 18.105,29.916 18.075,30.113C18.045,30.31 17.927,30.504 17.72,30.694C17.533,30.867 17.352,30.961 17.18,30.979C17.007,30.996 16.85,30.949 16.708,30.837" style="fill:#ef7c00;"/>
        </g>
    </g>
</svg>
